<?xml version="1.0" encoding="UTF-8"?>
<!DOCTYPE svg PUBLIC "-//W3C//DTD SVG 1.1//EN" "http://www.w3.org/Graphics/SVG/1.1/DTD/svg11.dtd">
<!-- Creator: CorelDRAW 2020 (64-Bit) -->
<svg xmlns="http://www.w3.org/2000/svg" xml:space="preserve" width="10.6mm" height="10mm" version="1.1" style="shape-rendering:geometricPrecision; text-rendering:geometricPrecision; image-rendering:optimizeQuality; fill-rule:evenodd; clip-rule:evenodd"
viewBox="0 0 420 400"
 xmlns:xlink="http://www.w3.org/1999/xlink"
 xmlns:xodm="http://www.corel.com/coreldraw/odm/2003">
 <defs>
  <style type="text/css">
   <![CDATA[
    .fil0 {fill:#F24F29}
   ]]>
  </style>
 </defs>
 <g id="Layer_x0020_1">
  <metadata id="CorelCorpID_0Corel-Layer"/>
  <g id="_1215538704384">
   <path class="fil0" d="M78.42 141.46c3.49,3.78 14.99,17.14 19.97,17.51 7.22,0.53 13.35,2.35 13.5,11.5 0.11,6.21 -0.82,4.08 3.34,8.08 3.68,3.54 10.17,9.4 12.76,13.17 26.62,-1.27 17.56,27.62 1.22,22.96 -11.07,-3.16 -7.22,-14.89 -8.64,-17.36l-12.53 -12.54c-2.14,-1.64 -0.24,-0.5 -2.77,-1.72 0.35,10.14 0.13,20.72 0.1,30.89 -0.03,6.66 -1.47,9.11 2.75,13.39 12.02,12.15 -5.91,27.3 -16.36,17.28 -2.25,-2.15 -4.28,-7.08 -3.24,-11.76 1.23,-5.56 4.33,-5.6 7.03,-8.72l0.03 -41.67c-2.57,-2.49 -5.57,-3.77 -6.8,-8.01 -2.1,-7.18 2.51,-6.44 -1.83,-11.07 -3.57,-3.8 -11.17,-11.75 -15.44,-14.74l-37.89 37.6c-19.32,19.3 -15.9,16.97 9.9,42.73 13.04,13.02 25.41,25.37 38.45,38.4 20.94,20.94 18.34,16.81 42.78,-7.6l47.26 -47.18c12.57,-12.4 4.35,-16.31 -12.87,-33.51 -13.03,-13.02 -25.41,-25.38 -38.45,-38.4 -24.54,-24.51 -20.51,-19.98 -42.27,0.77z"/>
   <path class="fil0" d="M263.64 250.53c5.73,14.99 -33.63,12.83 -36.93,6.28 -1.72,-3.42 0.32,-8.79 2.73,-10.03 2.21,-1.13 30.4,-0.29 34.2,3.75zm-23.41 -71.97c19.82,-7.47 26.77,19.18 10.81,24.15 -20.22,6.3 -25.76,-18.52 -10.81,-24.15zm-17.47 35.39c-2.25,4.94 -8.41,7.42 -11.23,12.21 -1.63,2.77 -2.14,6.35 -1.07,9.8 0.65,2.11 0.7,1.99 2.18,3.51l1.99 1.78c0.14,0.14 0.35,0.37 0.49,0.51 0.13,0.14 0.37,0.43 0.48,0.55 0.11,0.12 0.34,0.36 0.47,0.57 -4.56,3.04 -10.05,10.44 -7.02,19.63 5.65,17.17 47.81,15.96 64.26,7.88 6.19,-3.04 10.71,-7.2 12.68,-15.09 2.2,-8.85 -0.23,-18.11 -5.33,-21.8 -8.71,-6.3 -36.24,-7.46 -49.14,-7.62 0.88,-3.2 2.51,-4.35 3.75,-7.68 15.43,0.84 26.92,2.42 37.04,-7.15 3.57,-3.37 6.69,-8.8 7.18,-15.73 0.7,-9.85 -2.49,-11.24 -4.97,-17.35l13.25 -1.22 0.02 -12.34c-10.61,-1.51 -22.46,0.35 -33.98,-1.29 -38.3,-5.46 -49.76,22.27 -40.26,41.19 3.21,6.4 4.34,5.48 9.21,9.64z"/>
   <path class="fil0" d="M336.23 163.02l-0.26 13.01 11.31 0.06c2.08,14.82 -3.24,45.91 3.84,56.4 7.35,10.89 34.97,10.34 45.17,1.83l-3.97 -12.73c-13.71,4.26 -21.75,4.35 -22.11,-9.46 -0.3,-11.36 -0.36,-24.78 0.12,-36.1l22.13 -0.07 0.03 -14.61 -21.84 -0.42 -0.49 -22.34 -13.94 -0.22c-5.91,21.62 -1.9,17.07 -19.99,24.65z"/>
   <path class="fil0" d="M294.78 174.12c2.18,1.9 7.27,3.21 9.77,4.81 0.4,6.92 1.16,44.12 -0.63,48.04l-9.2 1.71 0.14 11.71 42.14 0.06 0.37 -11.68c-12.55,-3.34 -9.98,4.5 -9.98,-33.34 0,-10.92 -0.1,-21.89 0.04,-32.81l-30.92 0.07 -1.73 11.43z"/>
   <path class="fil0" d="M309.5 124.72c-15.74,4.34 -10.47,31.73 10.05,25.22 13.9,-4.41 10.23,-30.81 -10.05,-25.22z"/>
  </g>
 </g>
</svg>
