<?xml version="1.0" encoding="UTF-8"?>
<!DOCTYPE svg PUBLIC "-//W3C//DTD SVG 1.1//EN" "http://www.w3.org/Graphics/SVG/1.1/DTD/svg11.dtd">
<!-- Creator: CorelDRAW 2019 (64-Bit Evaluation Version) -->
<svg xmlns="http://www.w3.org/2000/svg" xml:space="preserve" width="4.20mm" height="4.00mm" version="1.1" style="shape-rendering:geometricPrecision; text-rendering:geometricPrecision; image-rendering:optimizeQuality; fill-rule:evenodd; clip-rule:evenodd"
viewBox="0 0 21000 20000"
 xmlns:xlink="http://www.w3.org/1999/xlink"
 xmlns:xodm="http://www.corel.com/coreldraw/odm/2003">
 <defs>
  <style type="text/css">
   <![CDATA[
    .fil4 {fill:#AB3C31}
    .fil6 {fill:#AD231F}
    .fil0 {fill:#BBBABA}
    .fil7 {fill:#BE4336}
    .fil8 {fill:#BF2623}
    .fil3 {fill:#D0CFCF}
    .fil1 {fill:#D54A3C}
    .fil5 {fill:#D62B27}
    .fil2 {fill:#E3E3E3}
   ]]>
  </style>
 </defs>
 <g id="Layer_x0020_1">
  <metadata id="CorelCorpID_0Corel-Layer"/>
  <g id="_2728052587376">
   <path class="fil0" d="M3021.65 6180.37l5.99 441.19 -1.19 10934.96 21.62 0 1.69 -14.59 1.71 -10886.54 1291.47 1322.22c34.79,35.19 57.91,59.99 92.79,94.83 38.84,38.79 60.77,47.8 103.05,84.43 65.85,57.06 123.2,125.89 186.44,189.01l557.55 568.2c253.95,259.02 494.27,510.07 750.43,766.44l374.05 376.15c145.03,103.98 968.28,969.77 1131.45,1136.19l837.47 850.88c60.7,42.45 57.61,37.44 103.51,84.64 126.72,130.3 497,490.03 561.19,581.98 68.59,22.71 243.58,224.67 304.94,287.6l3908.67 3941.02c104.51,106.48 197.89,201.28 302.73,307.1 81.85,82.62 239.27,226.68 298.15,310.44 678.03,0 1356.05,0 2034.07,0 338.8,0 677.6,0 1016.4,0 200.64,0 895.55,-24.96 1038.42,12.11l0 -11416.46c-86.74,38.99 -385.47,269.93 -482.9,341.43 -153.61,112.73 -312.04,227.04 -472.2,341.32 -420.87,300.32 -6448.68,4720.28 -6525.72,4744.8l-2336.04 -1694.82c-511.6,-369.29 -4993.81,-3661.7 -5105.74,-3704.53z"/>
   <path class="fil1" d="M10485.65 8706.05c-126.8,-43.2 -3472.52,-2504.75 -3727.94,-2689.64l-3714.96 -2696.41c-203.44,-142.21 -414.14,-297.72 -615.43,-447.74 -214.45,-159.82 -515.5,-249.48 -854.39,-180.61 -919.07,186.8 -1157.83,1319.29 -404.57,1908.54 99.22,77.62 206.02,145.98 307.75,223.9l1548.78 1125.06c814.13,575.48 1668.64,1210.57 2481.03,1803.38 205.2,149.74 418.07,297.51 617.6,446.29 502.12,374.45 1052.57,750.6 1537.88,1119.88l2802.03 2031.57c141.17,-58.27 5202.94,-3804.97 6221.19,-4522.79 723.28,-509.88 1452.57,-1068.56 2179.59,-1588.84l940.95 -685.33c750.89,-550.82 548.17,-1724.26 -394.74,-1933.1 -523.62,-115.97 -843.41,165.5 -1160.8,392.97 -102.94,73.78 -210.73,149.1 -315.55,231.67 -99,77.99 -203.37,151.79 -306.27,225.35 -929.22,664.28 -1861.09,1371.95 -2789.03,2042.84l-4353.12 3193.01z"/>
   <path class="fil2" d="M18764.54 2482.56l-16877.04 0c84.27,41.62 264.81,52.41 368.12,92.14 246.03,94.61 572.82,371.65 817.07,543.28 360.93,253.62 695.59,513 1059.79,769.91 355.45,250.73 696.23,509.26 1050.74,763.28l5005.46 3641.29c81.68,60.11 186.9,141.71 274.75,196.28 53.91,-19.84 207.29,-137.37 260.95,-178.63 84.39,-64.89 175.88,-131.68 261.14,-192.11 177.19,-125.61 339.87,-247.88 516.05,-375.58 349.54,-253.35 676.14,-500.18 1029.47,-753.1 1377.11,-985.73 2761.28,-2035.24 4136.92,-3024.74l1543.03 -1130.52c107.15,-79.63 275.9,-209.14 397.52,-274.77 49.2,-26.55 112.34,-41.42 156.03,-76.73z"/>
   <path class="fil3" d="M3049.76 17541.93c323.42,-294.17 1096.76,-876.69 1489.23,-1203.12 480.25,-399.45 1012.33,-807.35 1499.17,-1206.02 268,-219.46 2934.68,-2344.13 3002.71,-2422.43 -64.19,-91.95 -434.47,-451.68 -561.19,-581.98 -45.9,-47.2 -42.81,-42.19 -103.51,-84.64l-837.47 -850.88c-163.17,-166.42 -986.42,-1032.21 -1131.45,-1136.19l-374.05 -376.15c-256.16,-256.37 -496.48,-507.42 -750.43,-766.44l-557.55 -568.2c-63.24,-63.12 -120.59,-131.95 -186.44,-189.01 -42.28,-36.63 -64.21,-45.64 -103.05,-84.43 -34.88,-34.84 -58,-59.64 -92.79,-94.83l-1291.47 -1322.22 -1.71 10886.54z"/>
   <path class="fil2" d="M3049.76 17541.93l-1.69 14.59 10807.29 0c-58.88,-83.76 -216.3,-227.82 -298.15,-310.44 -104.84,-105.82 -198.22,-200.62 -302.73,-307.1l-3908.67 -3941.02c-61.36,-62.93 -236.35,-264.89 -304.94,-287.6 -68.03,78.3 -2734.71,2202.97 -3002.71,2422.43 -486.84,398.67 -1018.92,806.57 -1499.17,1206.02 -392.47,326.43 -1165.81,908.95 -1489.23,1203.12z"/>
   <path class="fil4" d="M18124.22 6019.27l0.46 11377.42c315.88,0 627.45,-0.87 939.05,-0.62 542.65,0.43 970.85,-217.98 1143.62,-744.88 76.66,-233.78 49.79,-640.95 49.79,-908.55l0 -9460.32c0,-627.54 -19.34,-1286.2 1.7,-1909.81 -50.53,31.87 -77.6,80.53 -124.49,134.56 -179.89,207.26 -1193.45,905.26 -1470.49,1109.49 -87.11,64.21 -181.61,130.19 -272.64,196.73 -83.94,61.36 -208.06,140.16 -267,205.98z"/>
   <path class="fil1" d="M2848.65 6463.93l0.56 -13.68c-127.44,-108.67 -215.33,-234.61 -362.31,-353.8 -111.67,-90.56 -253.04,-252.39 -359.07,-360.26l-701.5 -724.25c-116.32,-103.79 -263.78,-190.11 -382.86,-286.86 -232.62,-188.99 -260.22,-304.36 -326.32,-352.3 -17.46,302.47 -2.65,648.48 -2.65,955.7l0 10398.52c0,268.89 -26.74,672.44 50.54,909.53 174.93,536.62 607.07,742.72 1145.01,742.22 308.98,-0.28 623.38,5.89 937.57,-0.81l1.03 -10914.01z"/>
   <path class="fil5" d="M14838.77 5513.04c927.94,-670.89 1859.81,-1378.56 2789.03,-2042.84 102.9,-73.56 207.27,-147.36 306.27,-225.35 104.82,-82.57 212.61,-157.89 315.55,-231.67 317.39,-227.47 637.18,-508.94 1160.8,-392.97 942.91,208.84 1145.63,1382.28 394.74,1933.1l-940.95 685.33c-727.02,520.28 -1456.31,1078.96 -2179.59,1588.84 -1018.25,717.82 -6080.02,4464.52 -6221.19,4522.79l-2802.03 -2031.57c-485.31,-369.28 -1035.76,-745.43 -1537.88,-1119.88 -199.53,-148.78 -412.4,-296.55 -617.6,-446.29 -812.39,-592.81 -1666.9,-1227.9 -2481.03,-1803.38l-1548.78 -1125.06c-101.73,-77.92 -208.53,-146.28 -307.75,-223.9 -753.26,-589.25 -514.5,-1721.74 404.57,-1908.54 338.89,-68.87 639.94,20.79 854.39,180.61 201.29,150.02 411.99,305.53 615.43,447.74l3714.96 2696.41c255.42,184.89 3601.14,2646.44 3727.94,2689.64l4353.12 -3193.01zm4258.33 -3093.03l121.38 0c109.91,1.86 183.23,9.45 292.88,37.1 203.09,51.21 408.44,168.3 533.71,295.05 158,159.85 246.29,259.67 339.05,489.71 137.06,339.96 59.23,526.08 55.65,718.17 -55.22,176.46 -116.28,272.3 -180.93,412.47 -50.53,31.87 -77.6,80.53 -124.49,134.56 -179.89,207.26 -1193.45,905.26 -1470.49,1109.49 -87.11,64.21 -181.61,130.19 -272.64,196.73 -83.94,61.36 -208.06,140.16 -267,205.98 -35.1,17.12 -135.92,90.95 -174.13,122.32l-5.84 11427.04 0 -11416.46c-86.74,38.99 -385.47,269.93 -482.9,341.43 -153.61,112.73 -312.04,227.04 -472.2,341.32 -420.87,300.32 -6448.68,4720.28 -6525.72,4744.8l-2336.04 -1694.82c-511.6,-369.29 -4993.81,-3661.7 -5105.74,-3704.53 -29.34,-36.69 -136.85,-115.31 -175.27,-130.72 -51.83,-54.13 -103.98,-85.44 -167.15,-130.14 -64.05,-45.34 -118.18,-86.61 -181.05,-131.69 -122.48,-87.83 -232.2,-170.81 -352.77,-256.98 -182.61,-130.53 -569.39,-428.36 -719.08,-518.9 -116.32,-103.79 -263.78,-190.11 -382.86,-286.86 -232.62,-188.99 -260.22,-304.36 -326.32,-352.3 -17.46,302.47 -2.65,648.48 -2.65,955.7l0 10398.52c0,268.89 -26.74,672.44 50.54,909.53 174.93,536.62 607.07,742.72 1145.01,742.22 308.98,-0.28 623.38,5.89 937.57,-0.81l1.03 -10914.01 178.99 157.63 -1.19 10934.96c-398.19,0 -796.39,-0.1 -1194.59,0 -239.39,0.06 -337.68,-13.5 -514.02,-80.18 -417.11,-157.71 -708.93,-546.14 -777.79,-1004.81 -24.17,-160.98 -6.05,-9748.35 -6.05,-10627.04 0,-366.58 -22.26,-2140.12 13.07,-2348.11 112.83,-664.42 668.32,-1013.82 1340.43,-1013.82 84.27,41.62 264.81,52.41 368.12,92.14 246.03,94.61 572.82,371.65 817.07,543.28 360.93,253.62 695.59,513 1059.79,769.91 355.45,250.73 696.23,509.26 1050.74,763.28l5005.46 3641.29c81.68,60.11 186.9,141.71 274.75,196.28 53.91,-19.84 207.29,-137.37 260.95,-178.63 84.39,-64.89 175.88,-131.68 261.14,-192.11 177.19,-125.61 339.87,-247.88 516.05,-375.58 349.54,-253.35 676.14,-500.18 1029.47,-753.1 1377.11,-985.73 2761.28,-2035.24 4136.92,-3024.74l1543.03 -1130.52c107.15,-79.63 275.9,-209.14 397.52,-274.77 49.2,-26.55 112.34,-41.42 156.03,-76.73 108.6,-23.79 203.98,-57.9 332.56,-62.55z"/>
   <path class="fil6" d="M20258.84 4372.51c-21.04,623.61 -1.7,1282.27 -1.7,1909.81l0 9460.32c0,267.6 26.87,674.77 -49.79,908.55 -172.77,526.9 -600.97,745.31 -1143.62,744.88 -311.6,-0.25 -623.17,0.62 -939.05,0.62l-0.46 -11377.42c-35.1,17.12 -135.92,90.95 -174.13,122.32l-5.84 11427.04c150.11,29 764.74,3.53 978.74,3.53 428.65,0 577.45,10.7 870.59,-145.81 308.89,-164.92 576.75,-519.43 628.34,-872.8 42.58,-291.62 17.85,-3965.19 17.85,-4532.49 0,-2687.01 0,-5374.01 0,-8061.02 -55.22,176.46 -116.28,272.3 -180.93,412.47z"/>
   <path class="fil7" d="M2849.21 6450.25l-2.83 -400.6c-51.83,-54.13 -103.98,-85.44 -167.15,-130.14 -64.05,-45.34 -118.18,-86.61 -181.05,-131.69 -122.48,-87.83 -232.2,-170.81 -352.77,-256.98 -182.61,-130.53 -569.39,-428.36 -719.08,-518.9l701.5 724.25c106.03,107.87 247.4,269.7 359.07,360.26 146.98,119.19 234.87,245.13 362.31,353.8z"/>
   <path class="fil8" d="M2849.21 6450.25l-0.56 13.68 178.99 157.63 -5.99 -441.19c-29.34,-36.69 -136.85,-115.31 -175.27,-130.72l2.83 400.6z"/>
  </g>
 </g>
</svg>
