<?xml version="1.0" encoding="UTF-8"?>
<!DOCTYPE svg PUBLIC "-//W3C//DTD SVG 1.1//EN" "http://www.w3.org/Graphics/SVG/1.1/DTD/svg11.dtd">
<!-- Creator: CorelDRAW 2019 (64-Bit Evaluation Version) -->
<svg xmlns="http://www.w3.org/2000/svg" xml:space="preserve" width="4.20mm" height="4.00mm" version="1.1" style="shape-rendering:geometricPrecision; text-rendering:geometricPrecision; image-rendering:optimizeQuality; fill-rule:evenodd; clip-rule:evenodd"
viewBox="0 0 21000 20000"
 xmlns:xlink="http://www.w3.org/1999/xlink"
 xmlns:xodm="http://www.corel.com/coreldraw/odm/2003">
 <defs>
  <style type="text/css">
   <![CDATA[
    .fil0 {fill:black}
   ]]>
  </style>
 </defs>
 <g id="Layer_x0020_1">
  <metadata id="CorelCorpID_0Corel-Layer"/>
  <path class="fil0" d="M7892.28 13660.31c1855.87,2511.74 3957.39,3988.51 6614.34,5060.33 630.25,254.25 624.5,268.88 1438.32,-190.96 631.51,-356.84 840.36,-528.58 794.61,-1161.97 -95.05,-1315.29 -1958.44,-5098.13 -3458.14,-4385.48 -1013.15,481.44 -809.71,1074.95 -2396.09,-1008.45 -705.06,-925.98 -1303.05,-1992.86 -1734.44,-3063.29 -956.05,-2372.26 -552.21,-2027.76 307.81,-2563.42 967.67,-602.7 400.2,-1833.88 31.22,-2657.01 -403.09,-899.19 -1172.33,-2098.44 -1904.12,-2616.45 -482.45,-341.48 -816.38,-260.28 -1420.72,91.89 -721.3,420.33 -803.87,475.19 -935.34,1135.09 -636.69,3195.61 -6.05,7748 2662.55,11359.72z"/>
 </g>
</svg>
