<?xml version="1.0" encoding="UTF-8"?>
<!DOCTYPE svg PUBLIC "-//W3C//DTD SVG 1.1//EN" "http://www.w3.org/Graphics/SVG/1.1/DTD/svg11.dtd">
<!-- Creator: CorelDRAW 2019 (64-Bit Evaluation Version) -->
<svg xmlns="http://www.w3.org/2000/svg" xml:space="preserve" width="297mm" height="210mm" version="1.1" style="shape-rendering:geometricPrecision; text-rendering:geometricPrecision; image-rendering:optimizeQuality; fill-rule:evenodd; clip-rule:evenodd"
viewBox="0 0 29700 21000"
 xmlns:xlink="http://www.w3.org/1999/xlink"
 xmlns:xodm="http://www.corel.com/coreldraw/odm/2003">
 <defs>
  <style type="text/css">
   <![CDATA[
    .str0 {stroke:black;stroke-width:20;stroke-miterlimit:22.9256}
    .fil1 {fill:none}
    .fil3 {fill:black}
    .fil48 {fill:#002F86}
    .fil45 {fill:#003087}
    .fil46 {fill:#009CDE}
    .fil47 {fill:#012169}
    .fil30 {fill:#01AAEB}
    .fil32 {fill:#0280B1}
    .fil27 {fill:#029C54}
    .fil40 {fill:#084272}
    .fil20 {fill:#129E5A}
    .fil24 {fill:#137B49}
    .fil17 {fill:#14A05C}
    .fil18 {fill:#159F5D}
    .fil19 {fill:#17A05E}
    .fil14 {fill:#19A15F}
    .fil43 {fill:#1A252D}
    .fil21 {fill:#1AA260}
    .fil54 {fill:#217246}
    .fil41 {fill:#27649E}
    .fil39 {fill:#2B669F}
    .fil8 {fill:#2C394B}
    .fil34 {fill:#39B449}
    .fil36 {fill:#39B549}
    .fil35 {fill:#39B54A}
    .fil28 {fill:#3BAC75}
    .fil5 {fill:#3E2D44}
    .fil0 {fill:#3E2D44}
    .fil25 {fill:#43B47D}
    .fil22 {fill:#6AC499}
    .fil2 {fill:gray}
    .fil26 {fill:#82C7A6}
    .fil23 {fill:#85C9A9}
    .fil55 {fill:#87AC96}
    .fil29 {fill:#87CAAA}
    .fil16 {fill:#8CD0B0}
    .fil38 {fill:#9D4D43}
    .fil56 {fill:#A9C3B3}
    .fil42 {fill:#AEBECD}
    .fil33 {fill:#D8E2D1}
    .fil37 {fill:#EC1C24}
    .fil6 {fill:#ED3237}
    .fil15 {fill:#F0F0F0}
    .fil11 {fill:#F4830F}
    .fil44 {fill:#F9FCFD}
    .fil12 {fill:#FDA411}
    .fil10 {fill:#FEA513}
    .fil9 {fill:#FECB2F}
    .fil13 {fill:#FFD34D}
    .fil7 {fill:#FFF212}
    .fil31 {fill:white}
    .fil49 {fill:#009CDE;fill-rule:nonzero}
    .fil57 {fill:white;fill-rule:nonzero}
    .fil53 {fill:#009CDE;fill-rule:nonzero;fill-opacity:0.109804}
    .fil52 {fill:#009CDE;fill-rule:nonzero;fill-opacity:0.490196}
    .fil51 {fill:#009CDE;fill-rule:nonzero;fill-opacity:0.639216}
    .fil50 {fill:#009CDE;fill-rule:nonzero;fill-opacity:0.850980}
    .fil4 {fill:url(#id0)}
   ]]>
  </style>
  <linearGradient id="id0" gradientUnits="userSpaceOnUse" x1="13570.95" y1="8500.86" x2="13582.13" y2="11635.88">
   <stop offset="0" style="stop-opacity:1; stop-color:#99CCCC"/>
   <stop offset="1" style="stop-opacity:1; stop-color:#FEFEFE"/>
  </linearGradient>
 </defs>
 <g id="Layer_x0020_1">
  <metadata id="CorelCorpID_0Corel-Layer"/>
  <g id="_2355361923392">
   <rect class="fil0" x="7918.97" y="7360.45" width="10870.57" height="5714.01" rx="371.64" ry="371.64"/>
   <path class="fil1" d="M10221.24 7333.85l6313.26 0c115.82,0 209.74,93.92 209.74,209.74l0 4110.96c0,115.82 -93.92,209.74 -209.74,209.74l-6313.26 0c-115.81,0 -209.74,-93.92 -209.74,-209.74l0 -4110.96c0,-115.82 93.93,-209.74 209.74,-209.74z"/>
   <g id="thescreen35">
    <rect class="fil2 str0" x="13296.38" y="10534.17" width="197.56" height="363.93"/>
    <path class="fil2 str0" d="M12428.15 9213.63l1944.41 0c63.16,0 114.38,51.22 114.38,114.38l0 1195.76c0,63.16 -51.22,114.37 -114.38,114.37l-1944.41 0.01c-63.16,-0.01 -114.38,-51.22 -114.38,-114.38l0 -1195.76c0,-63.16 51.22,-114.38 114.38,-114.38l0 0z"/>
    <path class="fil3" d="M12482.76 9253.64l1835.19 0c59.61,0 107.95,48.34 107.95,107.95l0 1128.59c0,59.61 -48.34,107.95 -107.95,107.95l-1835.19 0c-59.61,0 -107.95,-48.34 -107.95,-107.95l0 -1128.59c0,-59.61 48.34,-107.95 107.95,-107.95l0 0z"/>
    <path class="fil4" d="M12482.76 9253.64l1835.19 0c59.61,0 107.95,48.34 107.95,107.95l0 1128.59c0,59.61 -48.34,107.95 -107.95,107.95l-1835.19 0c-59.61,0 -107.95,-48.34 -107.95,-107.95l0 -1128.59c0,-59.61 48.34,-107.95 107.95,-107.95l0 0z"/>
    <rect class="fil2 str0" x="12456.08" y="10896.34" width="1913.22" height="114.38"/>
   </g>
   <g id="theLogo12">
    <path class="fil5" d="M13054.77 10138.88l-12.77 11.08 99.5 146 13.91 -9.41 -100.64 -147.67z"/>
    <path class="fil5" d="M13775.89 9959.73l8.42 -0.14c17.5,-0.23 40.54,-0.55 40.51,-3.22l-0.15 -17.53c0,-0.46 -3.52,-0.06 -8.44,-1.11 -4.01,-0.85 -8.65,-1.43 -13.32,-1.59 -4.67,-0.15 -9.4,0.1 -13.61,0.89 -6.61,1.23 -11.76,3.66 -12.11,7.73l-1.3 14.97z"/>
    <path class="fil5" d="M13840.34 9905.35l0 0.02c4.22,4.23 6.8,9.44 6.3,15.52l-2.21 26.87c-1.62,19.66 -14.39,30.04 -33.49,35.74 -16.05,4.79 -36.62,6.09 -58.6,7.1l-0.93 10.77c-0.62,7.18 5.08,10.25 12.31,10.88 3.8,0.32 7.95,0.07 12.02,-0.61 4.11,-0.69 16.79,1.88 20.31,0.49 9.12,-3.37 9.67,-6.97 1.97,-14.62 5.22,-4.39 9.8,-5.59 17.43,-7.57 4.96,-1.29 11.43,-2.98 20.73,-6.42l8.34 -3.08 -0.19 8.9c-0.42,20.34 -3.98,34.24 -11.38,43.68 -7.7,9.84 -15.53,18.42 -34.61,18.46l-61.92 0.64c-22.94,-0.05 -51.11,-14.56 -47.65,-37.97l12.64 -85.7c3.3,-22.4 17.98,-32.61 40.21,-32.67l76.49 -0.2c10.97,0.07 17.37,4.9 22.23,9.77z"/>
    <path class="fil5" d="M13665.67 10003.8c0.8,38.73 -19.38,48.33 -30.54,48.21l-36.38 -0.39c-4.55,-0.73 -10.88,-4.34 -15.22,-15.47 -5.61,8.28 -16.7,15.58 -24.22,15.9l-19.58 -0.13c-31.4,0.07 -41.41,-26.26 -40.56,-49.51l10.87 -102.92 55.81 -35.44 -16.77 138.84c0.2,2.12 0.62,3.5 1.19,4.29 0.22,0.3 0.54,0.45 0.91,0.48 1.05,0.08 2.4,-0.28 3.83,-0.92 3.68,-1.63 7.32,-4.72 9.36,-7.53l36.3 -56.91 0.43 19.96c0.16,24.83 11.14,42.23 25.68,38.04l-12.43 -104.04 56.8 -0.18 -5.48 107.72z"/>
    <path class="fil5" d="M13966.51 9895.71l-4.58 171.61c-1.43,33.53 -18.14,50.61 -42.66,53.86l-25.31 1.73c-25.76,2.91 -67.51,-12.38 -68.08,-71.69l58.77 0.01c0.66,35.01 15.88,17.86 14.7,1.7l0.19 -157.1 66.97 -0.12z"/>
    <path class="fil5" d="M13905.19 9813.57l61.52 -3.02 0 60.04 -68.93 3.38 0 -60.04 7.41 -0.36z"/>
    <path class="fil5" d="M14049.8 9985.43l-3.32 0.73c-4.12,0.88 -9.35,1.91 -15.7,3.06 -5.63,1.04 -10.41,2.09 -14.3,3.15 -3.44,0.93 -5.86,1.79 -7.23,2.56 -1.91,1.2 -3.32,2.47 -4.2,3.82 -0.74,1.12 -1.11,2.4 -1.11,3.81 0,3.28 1.51,6.15 4.53,8.66 1.64,1.36 3.53,2.4 5.66,3.1 2.22,0.72 4.77,1.09 7.62,1.09 3.33,0 6.56,-0.45 9.66,-1.36 3.13,-0.92 6.23,-2.31 9.28,-4.16 2.07,-1.34 3.78,-2.8 5.1,-4.35 1.22,-1.45 2.12,-2.99 2.67,-4.64l0.03 -0.07c0.39,-1.12 0.71,-2.93 0.94,-5.4 0.24,-2.53 0.36,-5.87 0.37,-10z"/>
    <path class="fil5" d="M13998.39 9955.98l5.04 -31.41c0,0 0.66,-25.08 37.54,-28.75l56.01 -0.35c32.87,2.81 44.09,31.75 44.09,60.17l-3.17 57.63 18.14 35.62 -139.15 1.17c-16.95,0.28 -31.79,-13.65 -28.01,-34.86l4.13 -23.16c5.22,-29.3 68.54,-34.41 93.54,-42.61 -0.17,-7.58 -2.46,-10.5 -10.09,-12l-22.09 -0.17c-8.23,1.8 -8.69,2.73 -10.73,7.76l-45.25 10.96z"/>
    <path class="fil5" d="M14178.41 9935.77c-12.06,-20.03 -11.11,-22.64 -28.67,-39.38l67.66 0.4 4.37 23.74c11.8,-9.94 18.62,-22.59 54.13,-25.12l27.44 -0.2 -22.6 44.82c-43.58,15.92 -48.32,11.11 -47.3,41.59l2.39 71.34 -53.84 0.05 -3.58 -117.24z"/>
    <path class="fil5" d="M13375.93 9736.01l114.17 -0.34 1.53 0.62c25.2,10.31 55.22,33.53 51.54,78.07l-3.22 38.89c-0.28,27.55 -30.52,44.01 -56.57,44.14l-64.93 -0.09c-15.04,0.07 -26.07,6.5 -25.98,26.33l0.82 163.26 -74.31 -51.26 -0.76 -134.64c-0.09,-16.97 5.81,-32.08 15.74,-44.2 10.34,-12.62 25.04,-22 41.82,-26.82l102.57 -2.18c8.65,-5.39 7.87,-14.83 -0.32,-19.79l-175.59 0.69 73.49 -72.68z"/>
    <path class="fil5" d="M12709.13 10000.95l20.52 34.06c276.72,229.89 143.91,209.4 418.89,9.36l23 -43.42c19.28,21.63 19.28,57.02 0,78.65l-196.16 220.06c-19.27,21.63 -50.82,21.63 -70.1,0l-196.15 -220.06c-19.28,-21.63 -19.28,-57.02 0,-78.65z"/>
    <path class="fil5" d="M12940.06 9809.72c95.96,0 173.12,97.06 173.12,185.98 0,88.91 -173.74,187.04 -173.74,187.04 0,0 -173.74,-98.13 -173.74,-187.04 0,-88.92 78.4,-185.98 174.36,-185.98z"/>
    <path class="fil5" d="M12826.6 9833.9l-85.44 -125.36 -3.15 -0.71 -10.88 -12.87 -57.09 -28.18 -8.38 -90.67 81.06 41.47 2.95 59.29 11.21 18.22 -1.49 4.51 83.93 123.15 -12.72 11.15z"/>
    <path class="fil6" d="M12966.49 9853.56c36.03,19.79 71.66,51.4 87.61,90.66 -0.08,-2.76 -0.27,-5.43 -0.61,-7.99 -9.97,-75.67 -53.57,-100.52 -61.71,-107.96 76.08,41.79 150.42,136.25 41.33,244.17 -3.57,3.53 -6.15,5.58 -7.92,6.39 -5.19,6.25 -10.95,12.55 -17.37,18.9 -36.11,35.73 28.05,-78.08 20.38,-136.21 -9.97,-75.67 -53.57,-100.52 -61.71,-107.96z"/>
    <path class="fil7" d="M12972.36 9941.59c23.29,12.8 46.32,33.23 56.63,58.61 -0.05,-1.79 -0.17,-3.51 -0.39,-5.17 -6.45,-48.91 -34.63,-64.98 -39.89,-69.79 49.18,27.02 97.23,88.08 26.71,157.85 -2.3,2.28 -3.97,3.6 -5.12,4.13 -3.35,4.04 -7.08,8.11 -11.23,12.22 -23.34,23.09 18.13,-50.48 13.18,-88.06 -6.45,-48.91 -34.63,-64.98 -39.89,-69.79z"/>
    <path class="fil6" d="M12914.87 9871.26c-36.03,19.79 -71.66,51.4 -87.61,90.65 0.08,-2.75 0.27,-5.43 0.61,-7.98 9.97,-75.67 53.57,-100.52 61.71,-107.96 -76.08,41.79 -150.42,136.25 -41.33,244.17 3.57,3.53 6.15,5.58 7.92,6.38 5.19,6.26 10.95,12.56 17.37,18.91 36.11,35.73 -28.05,-78.08 -20.38,-136.22 9.97,-75.66 53.57,-100.5 61.71,-107.95z"/>
    <path class="fil7" d="M12905.57 9953.22c-23.29,12.79 -46.33,33.23 -56.64,58.6 0.05,-1.78 0.17,-3.51 0.39,-5.16 6.45,-48.92 34.64,-64.98 39.9,-69.79 -49.18,27.01 -97.24,88.08 -26.72,157.84 2.31,2.29 3.97,3.61 5.12,4.13 3.35,4.04 7.08,8.12 11.23,12.22 23.34,23.1 -18.13,-50.47 -13.18,-88.05 6.45,-48.92 34.63,-64.98 39.9,-69.79z"/>
    <path class="fil5" d="M13120.81 9705.27c25.46,-8.71 37.99,-10.23 42.95,-10.22 -2.74,-0.91 -7.16,-3.44 -11.22,-9.74 -9.2,-14.32 -48.11,-7.81 -29.18,-14.59 66.53,-23.8 -2.33,-12.09 9.07,-22.79 50.08,-46.96 39.32,-22.15 -4.92,-39.83 49.57,-41.72 -10.85,-10.25 -33.47,-34.25 50.29,-90.05 -47.98,-34.51 -22.66,-74.25 23.17,-36.36 -56.21,13.23 -56.89,-4.93 -0.97,-25.62 39.3,-32.02 15.82,-35.59 -38.53,-5.85 -98.83,71.01 -117.12,96.53 -23.59,32.92 -37.28,19.78 -45.25,60.9 -8.43,43.43 -26.31,41.82 -26.1,63.45 0.13,14.23 -7.27,4.99 -5.52,17.26 18.94,10.97 -3.97,10.64 10.85,13.51 15.1,2.93 -17.49,51.86 52.31,18.86l4.28 -3.43c-0.89,13.81 11.59,42.32 20.19,69.51 5.58,-0.67 11.23,-1.01 16.95,-1.01 48.21,0 91.68,24.5 123,60.16 5.92,-7.95 7.18,-17.86 1.54,-29.72 -13.69,-1.55 -43.99,-41.38 -48.68,-49.29 -21.16,-35.66 -65.03,-52.64 -30.08,-44.23 27.16,6.54 128.94,-7.71 135.75,-10.33 63.5,-24.37 -36.32,-4.12 -1.62,-15.98z"/>
   </g>
   <g id="_2749643401552">
    <ellipse class="fil8 str0" transform="matrix(5.92135E-15 -0.223578 0.223578 5.92135E-15 16046.5 11112.5)" rx="2087.31" ry="1876.23"/>
    <g>
     <path class="fil9" d="M16126.37 10933.4l-57.25 57.83c-4.46,7.54 -21.94,23.12 -29.24,30.52 -10.31,10.44 -19.32,19.49 -29.69,29.88 -10.24,10.25 -53.33,51.36 -57.67,59.58 -0.38,5.95 0.22,2.47 -2.72,6.25 -0.38,0.48 -3.08,3.07 -3.71,3.71l-7.56 6.75c-5.49,4.74 -10.19,10.04 -15.45,15.33 -10.65,10.7 -20.05,19.93 -30.57,30.77 -10.41,10.74 -19.95,20.24 -30.52,30.87 -8.64,8.67 -21.95,23.99 -31.32,30.48l-0.25 -4.08c-3.75,-0.31 -1.84,2.15 -2.9,-0.93l-0.38 6.19 169.35 94.33c65.45,37.19 54.68,34.74 120.42,-1.12l140.29 -78.13c8.38,-4.85 19.65,-11.8 28.25,-15.15 0.06,-16.44 -46.21,-291.03 -53.69,-337.49 -1.65,-10.26 -3.6,-38.1 -12.4,-43.07 -17.27,-2.2 -20.23,6.41 -28.69,15.16 -9.77,10.1 -55.58,59.79 -64.3,62.32z"/>
     <path class="fil10" d="M15829.59 11226.48c2.31,0.27 -0.77,2.38 1.56,-1.84l134.36 -255.44c8.05,-15.1 15.09,-28.58 23.02,-43.74l16.81 -32.03c2.84,-5.55 2.36,-7.69 8.81,-6.87l-0.41 -3.8c-5.35,-2.91 -3.36,-1.26 -7.06,-7.91l-68.64 -128.09c-4.43,-8.87 -13.28,-30.64 -28.73,-18.07 -7.05,5.74 -8.31,30.58 -10.11,42.24l-42.69 273.27c-4.71,30.56 -9.44,60.22 -14.12,90.53 -2.75,17.82 -14.47,78.85 -12.8,91.75z"/>
     <path class="fil11" d="M15829.59 11226.48l-2.07 3.88c1.06,3.08 -0.85,0.62 2.9,0.93 10.55,-14.18 72.29,-71.05 90.98,-89.74 7.76,-7.76 23.4,-25.34 31.12,-30.34 4.34,-8.22 47.43,-49.33 57.67,-59.58 10.37,-10.39 19.38,-19.44 29.69,-29.88 7.3,-7.4 24.78,-22.98 29.24,-30.52 -2.07,-5.86 -10.91,-20.08 -14.63,-26.89 -4.96,-9.11 -8.81,-16.78 -13.77,-25.97 -5.85,-10.83 -24.82,-43.98 -26.57,-51.81 -6.45,-0.82 -5.97,1.32 -8.81,6.87l-16.81 32.03c-7.93,15.16 -14.97,28.64 -23.02,43.74l-134.36 255.44c-2.33,4.22 0.75,2.11 -1.56,1.84z"/>
     <path class="fil12" d="M16013.74 10882.76l0.41 3.8c1.75,7.83 20.72,40.98 26.57,51.81 4.96,9.19 8.81,16.86 13.77,25.97 3.72,6.81 12.56,21.03 14.63,26.89l57.25 -57.83c-3.45,-11.47 -18.32,-37.02 -24.64,-48.98 -8.72,-16.54 -17.25,-32.9 -26.29,-49.42 -4.45,-8.13 -7.54,-19.28 -17.6,-20.24 -12.7,-1.21 -15.08,9.48 -19.25,18.03 -4.93,10.11 -23.98,42.09 -24.85,49.97z"/>
     <path class="fil13" d="M15830.42 11231.29l0.25 4.08c9.37,-6.49 22.68,-21.81 31.32,-30.48 10.57,-10.63 20.11,-20.13 30.52,-30.87 10.52,-10.84 19.92,-20.07 30.57,-30.77 5.26,-5.29 9.96,-10.59 15.45,-15.33l7.56 -6.75c0.63,-0.64 3.33,-3.23 3.71,-3.71 2.94,-3.78 2.34,-0.3 2.72,-6.25 -7.72,5 -23.36,22.58 -31.12,30.34 -18.69,18.69 -80.43,75.56 -90.98,89.74z"/>
    </g>
   </g>
   <g id="_2749643461936">
    <ellipse class="fil8" cx="15747.01" cy="10573.27" rx="41.95" ry="57.68"/>
    <ellipse class="fil8" cx="15635.22" cy="10461.48" rx="41.95" ry="57.68"/>
    <ellipse class="fil8" cx="15523.43" cy="10349.69" rx="41.95" ry="57.68"/>
    <ellipse class="fil8" cx="15411.64" cy="10237.9" rx="41.95" ry="57.68"/>
    <ellipse class="fil8" cx="15299.86" cy="10126.11" rx="41.95" ry="57.68"/>
    <ellipse class="fil8" cx="15184.09" cy="10038.88" rx="41.95" ry="57.68"/>
    <ellipse class="fil8" cx="15037.06" cy="9961.79" rx="41.95" ry="57.68"/>
    <ellipse class="fil8" cx="14933.49" cy="9895.93" rx="41.95" ry="57.68"/>
    <ellipse class="fil8" cx="14811.22" cy="9892.54" rx="41.95" ry="57.68"/>
    <ellipse class="fil8" cx="14676.22" cy="9913.62" rx="41.95" ry="57.68"/>
    <ellipse class="fil8" cx="14540.99" cy="9933.55" rx="41.95" ry="57.68"/>
   </g>
   <g id="_2749643453680">
    <path class="fil14" d="M16269.52 8345.87l0.43 261.07c0,69.53 5.44,57.31 -27.97,57.14 -58.25,-0.29 -116.58,0 -174.85,0 -53.86,0 -120.81,-3.52 -172.97,0.33 -4.76,-8.39 -3.39,-10.93 -3.26,-21.56 0.75,-60.21 -3.63,-278.32 1.38,-299.37 12.67,-3.87 239.42,-1.27 285.03,-1.27 15.96,0 31.93,0 47.9,0 12.9,0 42.31,-2.75 44.31,3.66zm-528.11 421.4l0 -244.16 0 -496.58c0.52,-31.34 1.28,-51.83 2.39,-54.97 6.8,-6.46 16.22,-31.63 39.23,-33.76 42.41,-7.04 370.62,3.38 412.01,-3.42 -1.69,39.57 -0.32,81.83 -0.32,121.7 0,15.06 -1.75,45.03 1.72,57.49 5.28,18.98 16.47,24.77 27.06,35.85 -7.77,5.51 18.85,14.2 42.45,14.39 12.37,0.09 26.04,0.05 43.24,0.91l103.51 1.7c7.04,-0.68 3.93,2.85 8.9,-5.63 0,184.64 0,369.28 0,553.93 0,22.52 0.99,47.27 0.05,69.5 -0.62,14.71 -3.03,18 -9.52,26.41 -27.91,36.14 -80.45,23.84 -148.6,23.84 -138.92,0 -277.83,0 -416.74,0 -33.9,0 -87.55,7.73 -101.57,-37.35 -1.72,-5.52 -2.95,-16.03 -3.81,-29.85z"/>
    <path class="fil15" d="M16100.88 8567.68l131.87 0.23 -0.74 58.28 -131.37 -0.38 0.24 -58.13zm-169.95 0.62l132.34 -0.18 -0.91 57.71 -131.66 -0.71 0.23 -56.82zm170.94 -94.27l130.18 -0.01 0 56.4 -131.17 -0.35 0.99 -56.04zm-40.54 56.11l-128.7 1.02 -3.43 -5.65 0.67 -51.02c12.04,-3.78 122.19,-3.86 133.41,-0.03 1.7,10.5 5.45,50.28 -1.95,55.68zm40.73 -149.41l130.11 0.06 -0.79 55.56 -130.35 -0.33 1.03 -55.29zm-39.66 1.09c4.08,9.48 2.7,41.32 0.84,53.81 -9.62,4.79 -122.57,4.83 -133.37,0 -6.41,-63.63 1.56,-56.11 15.03,-56.07 14.33,0.05 109.88,-2.32 117.5,2.26zm-168.24 282.59c52.16,-3.85 119.11,-0.33 172.97,-0.33 58.27,0 116.6,-0.29 174.85,0 33.41,0.17 27.97,12.39 27.97,-57.14l-0.43 -261.07 -374.22 -1c-4.67,15.93 -1.49,132.85 -1.49,159.08 0,52.71 -1.55,108.08 0.35,160.46z"/>
    <path class="fil16" d="M16194.24 7931.92l0.8 2.46c-1.69,39.57 -0.32,81.83 -0.32,121.7 0,15.06 -1.75,45.03 1.72,57.49 5.28,18.98 16.47,24.77 27.06,35.85 18.89,3.78 17.43,6.57 42.4,6.49 17.58,-0.06 35.14,-0.09 52.71,-0.09 34.24,0 68.8,-0.47 102.99,0.07 -3.3,-10.38 -17.95,-20.26 -25.61,-28.69 -0.7,-0.77 -3.23,-3.62 -3.4,-3.79l-197.79 -196.66 -0.56 5.17z"/>
    <path class="fil17" d="M15930.7 8625.12l131.66 0.71 0.91 -57.71 -132.34 0.18 -0.23 56.82z"/>
    <path class="fil18" d="M16100.88 8530.07l131.17 0.35 0 -56.4 -130.18 0.01 -0.99 56.04z"/>
    <path class="fil19" d="M16101.03 8436.02l130.35 0.33 0.79 -55.56 -130.11 -0.06 -1.03 55.29z"/>
    <path class="fil19" d="M15932.63 8531.16l128.7 -1.02 0.51 -54.94 -128.68 0.52c-3.39,13.33 -2.46,41.24 -0.53,55.44z"/>
    <path class="fil20" d="M16102.16 8624.15c26.63,-5.3 97.11,-0.85 128.53,-1.3l0.92 -53.36 -129.6 -0.46 0.15 55.12z"/>
    <path class="fil21" d="M15935.41 8432.2l124.07 -0.44 0.34 -47.57 -124.97 -0.31 0.56 48.32z"/>
    <path class="fil22" d="M15743.8 7971.56c6.8,-6.46 16.22,-31.63 39.23,-33.76 1.56,-1.91 -3.36,-5.29 18.09,-5.44l184.58 0.09c66.27,0 143.62,3.65 208.54,-0.53l0.56 -5.17 -369.57 0c-31.63,-0.01 -73.53,-0.61 -81.43,44.81z"/>
    <path class="fil23" d="M15894.16 8664.41c-1.9,-52.38 -0.35,-107.75 -0.35,-160.46 0,-26.23 -3.18,-143.15 1.49,-159.08l374.22 1c-2,-6.41 -31.41,-3.66 -44.31,-3.66 -15.97,0 -31.94,0 -47.9,0 -45.61,0 -272.36,-2.6 -285.03,1.27 -5.01,21.05 -0.63,239.16 -1.38,299.37 -0.13,10.63 -1.5,13.17 3.26,21.56z"/>
    <path class="fil24" d="M16421.6 8160.79l0 -4.9c-34.19,-0.54 -68.75,-0.07 -102.99,-0.07 -17.57,0 -35.13,0.03 -52.71,0.09 -24.97,0.08 -23.51,-2.71 -42.4,-6.49 -7.77,5.51 18.85,14.2 42.45,14.39 12.37,0.09 26.04,0.05 43.24,0.91l103.51 1.7c7.04,-0.68 3.93,2.85 8.9,-5.63z"/>
    <path class="fil25" d="M15783.03 7937.8c42.41,-7.04 370.62,3.38 412.01,-3.42l-0.8 -2.46c-64.92,4.18 -142.27,0.53 -208.54,0.53l-184.58 -0.09c-21.45,0.15 -16.53,3.53 -18.09,5.44z"/>
    <path class="fil26" d="M16062.4 8381.82l-0.8 52.82 -129.4 0.03 -0.27 -52.92 130.47 0.07zm0 0c-7.62,-4.58 -103.17,-2.21 -117.5,-2.26 -13.47,-0.04 -21.44,-7.56 -15.03,56.07 10.8,4.83 123.75,4.79 133.37,0 1.86,-12.49 3.24,-44.33 -0.84,-53.81z"/>
    <path class="fil27" d="M15934.85 8383.88l124.97 0.31 -0.34 47.57 -124.07 0.44 -0.56 -48.32zm127.55 -2.06l-130.47 -0.07 0.27 52.92 129.4 -0.03 0.8 -52.82z"/>
    <path class="fil28" d="M16102.01 8569.03l129.6 0.46 -0.92 53.36c-31.42,0.45 -101.9,-4 -128.53,1.3l-0.15 -55.12zm-1.37 56.78l131.37 0.38 0.74 -58.28 -131.87 -0.23 -0.24 58.13z"/>
    <path class="fil29" d="M15932.63 8531.16c-1.93,-14.2 -2.86,-42.11 0.53,-55.44l128.68 -0.52 -0.51 54.94c7.4,-5.4 3.65,-45.18 1.95,-55.68 -11.22,-3.83 -121.37,-3.75 -133.41,0.03l-0.67 51.02 3.43 5.65z"/>
   </g>
   <path class="fil14" d="M14295.86 9536.93l75.78 0 30.7 42.17 0 123.47 -106.48 0 0 -165.64z"/>
   <path class="fil14" d="M14460.89 9507.96l75.78 0 30.7 42.17 0 123.46 -106.48 0 0 -165.63z"/>
   <path class="fil14" d="M14625.91 9396.17l75.79 0 30.69 42.17 0 123.46 -106.48 0 0 -165.63z"/>
   <path class="fil14" d="M14856.13 9233.42l75.78 0 30.7 42.17 0 123.46 -106.48 0 0 -165.63z"/>
   <path class="fil14" d="M15222.42 8906.26l75.79 0 30.69 42.17 0 123.46 -106.48 0 0 -165.63z"/>
   <path class="fil14" d="M15064.54 9072.51l75.78 0 30.69 42.17 0 123.46 -106.47 0 0 -165.63z"/>
   <path class="fil14" d="M15425.08 8716.19l75.79 0 30.69 42.17 0 123.46 -106.48 0 0 -165.63z"/>
   <path class="fil14" d="M15597.49 8581.65l75.79 0 30.69 42.17 0 123.46 -106.48 0 0 -165.63z"/>
   <g id="_2749643447344">
    <path class="fil30" d="M13417.01 9076.04l32.1 0.01 -0.03 3.57 0 78.2 36.64 0 0 24.85 -68.71 0 0 -106.63zm-70.16 108.73c-30.1,0 -53.3,-23.44 -52.54,-54.74 1.39,-57.25 64.09,-69.79 92.95,-40.42 12.18,12.39 14.41,26.51 14.41,44.09 0,20.86 -14.53,33.54 -15.35,36.91 4.99,4.48 9.18,8.54 14.07,13.34l13.61 13.25c-5.66,0.07 -37.6,0.73 -40.29,-0.5 -2.28,-1.05 -8.32,-7.98 -10.3,-10.13 -2.98,-3.24 -2.04,-3.28 -6.4,-2.66l-10.16 0.86zm-137.78 -76.65c0,-20.75 18.81,-33.62 39.84,-33.62 20.98,0 24.01,3.27 32.91,3.65l-0.39 27.42c-6.41,-4.74 -31.38,-11.41 -36.77,-3.16 -10.9,16.65 48.65,13.42 42.6,52.95 -2.34,15.33 -13.7,24.34 -28.55,27.59 -12.86,2.82 -38.5,2.07 -48.18,-4.29l0 -28.52c2.21,0.55 8.54,5.13 12.89,6.8 5.32,2.06 23.62,7.55 27.26,-0.26 8.54,-18.28 -41.61,-11.55 -41.61,-48.56zm272.34 -198.78c1.53,2.13 2.33,3.32 3.18,6.95 0.36,1.55 0.58,3.15 0.47,4.75 -0.22,2.9 0.11,2.03 -1.17,3.31 0.83,9.07 -11.82,15.82 -19.52,18.59 -3.81,2.31 -16.36,5.4 -21.49,6.91 -6.9,2.03 -16.16,3.32 -22.21,5.51 -5.19,0.55 -11.16,2.08 -16.7,3 -37.75,6.23 -71.67,6.6 -109.53,1.13 -5.3,-0.76 -11.35,-2.14 -16.3,-2.67l-10.96 -2.19 -10.78 -2.92c-5.05,-0.33 -17.33,-4.28 -22.11,-5.85 -6.43,-2.59 -14.22,-4.66 -17.92,-8.16 -2.95,-0.84 -5.23,-3.48 -7.14,-6.3 -4.57,-6.74 -4.63,-18.31 2.41,-25 6.62,-6.3 24.75,-12.79 34.61,-15.93 46.4,-14.78 113.04,-15.41 161.39,-8.44 15.91,2.3 67.03,13.84 73.77,27.31zm-290.97 -31.61l-17.84 10.86c-3.26,2.22 -5.46,4.02 -8.18,6.41 -2.52,2.21 -5.4,5.9 -6.88,7 -1.13,2.37 -2.41,3.61 -3.71,5.78 -0.84,1.41 -1.93,3.83 -3.02,5.19 -2.07,7.52 -3.86,11.57 -4.35,20.44 -0.46,8.24 0.12,16.01 0.12,24.14l0 10.24 0 10.96 0 10.96 0 10.24 0 12.42c1.45,5.91 0.7,39.86 0.74,48.97l-0.36 145.38c-0.28,1.85 0.08,1.01 -0.75,1.95l0.37 1.05 0 9.5 0 11.69 0 10.96 0 10.97c0,15.45 -0.75,25.49 -0.2,35.81 1.11,7.86 1.22,11.83 3.85,19.16 0.98,1.61 1.74,4 2.74,5.93 1.19,2.3 2.08,3.29 2.96,5.61 1.42,1.08 2.08,2.72 3.26,4.18 1.23,1.52 2.25,2.45 3.56,3.77 2.14,2.15 5.61,6.19 7.92,7.33 2.3,0.67 6.96,4.3 9.5,5.89 34.11,21.37 87.69,31.71 127.19,35.45 9.58,0.91 7.68,-10.13 7.68,-13.26 0.01,-38.34 19.69,-76.48 55.34,-91.54 16.81,-7.09 28.71,-9.1 47.57,-9.9 8.63,-0.36 12.18,-3.53 16.77,-11.16 17.16,-28.48 44.24,-48.92 76.58,-58.06 15.61,-4.42 29.88,-3.02 32.83,-11.61 2,-5.85 0.43,-190.54 0.43,-190.54 0,-8.69 -0.53,-19.78 0.69,-40.84 0.41,-7.06 0.61,-16.15 -1.38,-24.12 -1.05,-4.16 -2.11,-7.17 -3.77,-10.89 -2.04,-4.58 -3.31,-5.3 -4.86,-8.3l-0.47 -1.13c-0.91,-2.08 -1.46,-1.72 -3.41,-3.67 -10.76,-10.79 -13.44,-11.24 -27.27,-19.47 -31.81,-18.92 -90.87,-31.01 -128.75,-32.83 -48.93,-2.35 -99.9,1.23 -145.89,14.19 -20.16,5.67 -25.9,10.43 -39.01,14.89z"/>
    <path class="fil30" d="M13519.76 9216.66c-1.47,1.67 -3.22,1.73 -5.6,2.5 -2.05,0.67 -4.23,1.54 -5.89,2.21 -4.2,1.69 -7.45,3.51 -11.04,5.16 -4.32,2.86 -7.77,4.64 -11.5,7.32 -2.32,1.67 -3.28,2.36 -5.31,4.18 -1.63,1.46 -2.76,2.77 -4.93,3.84 -1.59,2.69 -4.61,4.78 -6.55,7.28 -2.03,2.62 -4,4.63 -6.14,7.77 -3.28,4.8 -8.18,11.98 -9.97,17.85 -4.55,8.58 -7.15,16.95 -21.2,16.81 -7.78,-1.24 -9.43,-3.87 -18.29,-3.75 -10.83,0.15 -25.32,4.31 -34.43,9.51 -5.12,2.92 -8.53,5.73 -13.01,8.86 -1.62,2.48 -3.76,4.26 -6,6.48 -2.46,2.43 -3.53,4.45 -5.75,6.67 -4.17,7.48 -6.7,11.43 -9.7,20.47 -0.59,2.59 -1.24,4.75 -1.68,7.61 -0.17,1.12 -0.19,2.85 -0.4,4.07 -0.63,3.62 0.02,1.52 -1,2.62l0.36 9.09c2,14.11 3.27,20.72 9.36,31.62 4.11,7.37 12.76,17.78 18.52,21.7 3.36,1.02 7.93,6.16 20.08,10.46 10.4,3.68 14.87,3.33 27.13,4.34 10.09,0.84 39.57,0.41 51.36,0.41l182.73 -0.23c15.87,0.04 31.76,0.74 43.25,-12.61 4.49,-5.21 7.74,-12.81 8.29,-21.82 0.67,-10.95 -5.05,-18.3 -5.37,-21.81l-2.32 -2.56c-7.56,-7.85 -8.69,-8.43 -21.2,-12.43l-11.67 0.09c-7.02,-0.73 -9.12,-3.17 -7.62,-10.52 1.05,-5.15 2.55,-11.51 2.9,-15.07 2.54,-26.33 -2.02,-48.02 -15.73,-70.34 -2.02,-3.28 -6.57,-8.2 -7.46,-10.79 -1.07,-2.15 -10.21,-10.88 -12.92,-13.35 -2.7,-2.46 -13.01,-9.1 -14.43,-11.21l-5.4 -2.53c-1.76,-0.95 -3.3,-1.79 -5.33,-2.8 -3.3,-1.64 -7.57,-2.83 -10.6,-4.54 -2.33,-0.77 -3.74,-1.21 -6.3,-1.9 -0.83,-0.22 -2.94,-0.75 -3.48,-0.93 -2.7,-0.88 -1,0.32 -2.51,-1.19 -2.94,0.27 -9.36,-1.11 -13.16,-1.57 -4,-0.48 -9.47,-0.35 -14.21,-0.3 -11.19,0.12 -22.66,3.63 -25.88,3.33z"/>
    <path class="fil31" d="M13328.57 9127.85c0,-33.72 39.1,-36.77 39.1,1.47 0,13.22 -5.47,27.77 -17.9,27.77l-3.66 0c-12.67,0 -17.54,-15.76 -17.54,-29.24zm18.28 56.92l10.16 -0.86c4.36,-0.62 3.42,-0.58 6.4,2.66 1.98,2.15 8.02,9.08 10.3,10.13 2.69,1.23 34.63,0.57 40.29,0.5l-13.61 -13.25c-4.89,-4.8 -9.08,-8.86 -14.07,-13.34 0.82,-3.37 15.35,-16.05 15.35,-36.91 0,-17.58 -2.23,-31.7 -14.41,-44.09 -28.86,-29.37 -91.56,-16.83 -92.95,40.42 -0.76,31.3 22.44,54.74 52.54,54.74z"/>
    <path class="fil32" d="M13170.67 9334.63c2.18,3.39 5.29,5.23 8.62,8.14 2.92,1.47 7.2,4.73 10.85,6.8 4.27,2.41 8.21,3.76 11.3,6.24 1.08,0.3 20.89,8.79 21.16,9.01l12.5 4.19c5.83,0.77 14.1,4.03 20.39,5.32 8.49,1.98 53.5,10.22 62.12,9.27 5.79,-0.64 5.39,-6.47 5.4,-12.39 0,-0.75 -0.07,-2.26 -0.01,-2.91 0.38,-3.96 -0.25,-1.38 0.82,-2.63l-0.34 -5.39c0.16,-1.62 0.33,-3.31 0.5,-4.58 0.08,-0.56 0.18,-1.38 0.32,-1.9 0.49,-1.71 0.14,-1.14 0.98,-2.01 -0.44,-3.39 0.97,-8.51 2,-11.25 0.83,-5.22 5.46,-18.95 8.98,-21.62 0.47,-4.1 9.61,-15.54 12.23,-18.39 2.59,-2.81 4.95,-5.21 7.87,-7.52 2.86,-2.26 5.66,-5.28 9.06,-6.17 2.33,-3.89 16.29,-9.59 21.63,-11.33 5.13,-1.56 10.51,-3.17 16.22,-4.24 5.42,-1.01 11.61,-1.27 16.67,-2.16 16.51,-1.04 15.13,-0.04 24.63,-14.25 7.77,-11.64 8.9,-11.83 17.17,-21.58l10.03 -9.05c10,-7.94 24.89,-17.59 37.33,-20.93 3.16,-1.22 5.99,-2.82 9.78,-2.72 1.41,-1.52 -0.8,-0.22 2.44,-1.37 0.84,-0.3 1.5,-0.38 2.33,-0.58 1.88,-0.45 3.83,-0.87 5.92,-1.18 9.96,-1.98 15.52,-0.84 22.1,-7.47 0.69,-2.54 0,-1.82 1.61,-3.46 -0.83,-5.54 -0.3,-48.36 -0.32,-57.93l-0.37 -113.3c0.01,-19.2 0.39,-38.11 0.4,-56.28 0.06,-13.95 1.39,-19.8 -3.13,-32.74 -2.62,-7.51 -9.57,-18.41 -15.09,-21.65l0.47 1.13c1.55,3 2.82,3.72 4.86,8.3 1.66,3.72 2.72,6.73 3.77,10.89 1.99,7.97 1.79,17.06 1.38,24.12 -1.22,21.06 -0.69,32.15 -0.69,40.84 0,0 1.57,184.69 -0.43,190.54 -2.95,8.59 -17.22,7.19 -32.83,11.61 -32.34,9.14 -59.42,29.58 -76.58,58.06 -4.59,7.63 -8.14,10.8 -16.77,11.16 -18.86,0.8 -30.76,2.81 -47.57,9.9 -35.65,15.06 -55.33,53.2 -55.34,91.54 0,3.13 1.9,14.17 -7.68,13.26 -39.5,-3.74 -93.08,-14.08 -127.19,-35.45 -2.54,-1.59 -7.2,-5.22 -9.5,-5.89z"/>
    <path class="fil31" d="M13209.07 9108.12c0,37.01 50.15,30.28 41.61,48.56 -3.64,7.81 -21.94,2.32 -27.26,0.26 -4.35,-1.67 -10.68,-6.25 -12.89,-6.8l0 28.52c9.68,6.36 35.32,7.11 48.18,4.29 14.85,-3.25 26.21,-12.26 28.55,-27.59 6.05,-39.53 -53.5,-36.3 -42.6,-52.95 5.39,-8.25 30.36,-1.58 36.77,3.16l0.39 -27.42c-8.9,-0.38 -11.93,-3.65 -32.91,-3.65 -21.03,0 -39.84,12.87 -39.84,33.62z"/>
    <path class="fil31" d="M13417.01 9182.67l68.71 0 0 -24.85 -36.64 0 0 -78.2 0.03 -3.57 -32.1 -0.01 0 106.63z"/>
    <path class="fil32" d="M13369.61 9416.53c5.39,7.53 21.37,16.87 33.24,19.97 14.92,3.91 33.09,2.55 49.98,2.72 35.03,0.33 70.2,-0.08 105.25,-0.08 35.07,0 70.19,0.32 105.25,0 13.88,-0.12 29.78,-0.24 39.3,-13.19 3.58,-4.86 7.22,-10.93 7.43,-18.86 0.31,-11.66 -0.75,-13.48 -4.31,-22.13 -2.98,-3.84 -4.58,-7.51 -8.67,-9.69 0.32,3.51 6.04,10.86 5.37,21.81 -0.55,9.01 -3.8,16.61 -8.29,21.82 -11.49,13.35 -27.38,12.65 -43.25,12.61l-182.73 0.23c-11.79,0 -41.27,0.43 -51.36,-0.41 -12.26,-1.01 -16.73,-0.66 -27.13,-4.34 -12.15,-4.3 -16.72,-9.44 -20.08,-10.46z"/>
    <path class="fil30" d="M13328.57 9127.85c0,13.48 4.87,29.24 17.54,29.24l3.66 0c12.43,0 17.9,-14.55 17.9,-27.77 0,-38.24 -39.1,-35.19 -39.1,-1.47z"/>
   </g>
   <g id="_2749643440688">
    <g>
     <path class="fil33" d="M11012.57 8073.12c0.06,27.67 4.02,62.38 -10.25,80.01 -17.65,21.8 -45.25,15.89 -74.37,15.89 -15.04,0 -30.09,-0.03 -45.13,0 -57.47,0.14 -52.18,-39.81 -52.18,-83.4l-24.39 -4.92 -3.82 0.1c0,31.34 -2,253.67 1.54,272.85 2.56,13.84 13.03,25.48 23.89,31.12 14.27,7.43 84.6,4.27 105.73,4.27 18.34,0 36.68,-0.04 55.01,0 15.54,0.04 29,-1.09 40.14,-14.87 10.27,-12.72 12.1,-20.84 12.04,-42.95l0 -275.14c-2.72,1.02 -26.67,15.22 -28.21,17.04z"/>
     <path class="fil34" d="M10478.04 8176.07l59.24 0 0 -153.73 62.06 128.35 43.72 0 62.05 -128.35c0,8.95 1.41,11.78 1.41,21.16l0 132.57 57.83 0 0 -251.04 -67.7 0c-6.49,0 -15.85,26.13 -20.21,34.79l-36.68 73.33c-4.37,8.71 -13.29,32.76 -19.27,37.14 -1.73,-7.4 -68.48,-136.51 -70.52,-145.26l-71.93 0 0 251.04z"/>
     <path class="fil35" d="M11311.58 8176.07l201.68 0 0 -52.18 -135.4 0 0 -46.54 118.47 0 0 -53.6 -118.47 0 0 -45.13 131.17 0 0 -53.59 -197.45 0 0 251.04z"/>
     <path class="fil34" d="M11894.06 7994.13l33.85 87.45 -67.7 0 33.85 -87.45zm-138.22 181.94l67.7 0 12.67 -33.87c1.5,-3.98 2.29,-9.85 7.08,-9.85l101.55 0c4.49,0 4.77,4.56 6.47,9.04l13.27 34.68 70.52 0 -99.54 -237.54c-7.8,-18.74 1.23,-13.5 -69.71,-13.5 -5.41,0 -13.53,24.12 -15.71,29.41 -4.26,10.32 -8.83,20.69 -13.51,31.62 -6.49,15.13 -80.19,182.84 -80.79,190.01z"/>
     <path class="fil35" d="M11549.93 7989.9c0,20.18 -0.26,39.36 17.97,55.37 14.64,12.87 20.99,13.91 37.44,20.38 17.6,6.92 51.54,13.84 63.39,21.25 19.32,12.06 19.48,38.4 -21.49,38.4 -42.9,0 -83,-35.11 -88.85,-36.67 -2.82,5.33 -23.98,46.64 -23.98,49.36 0,4.03 1.7,3.46 4.34,5.54 2,1.56 3.55,2.55 5.8,4.07 81.8,55.14 205.65,40.69 205.65,-46.28 0,-59.17 -53,-68.4 -95.74,-81.97 -19.61,-6.22 -35.42,-11.17 -35.42,-29.45 0,-29.41 62.84,-7.8 79.99,-1.01 5.34,2.12 7.69,3.24 12.63,5.71 4.13,2.07 9.5,5.61 13.15,6.59 4.75,-8.97 23.82,-46.22 23.98,-53.6 -19.35,-5.16 -31.3,-26.79 -107.19,-26.79 -43.47,0 -91.67,27 -91.67,69.1z"/>
     <path class="fil36" d="M11170.54 8054.78c-17.95,0 -28.21,2.62 -28.21,-4.23l0 -71.93c25.77,0 81.8,-7.96 81.8,31.03 0,14.81 1.03,29.36 -16.06,38.95 -9.01,5.06 -23.95,6.18 -37.53,6.18zm-94.5 -125.52l0 246.81 66.29 0 0 -69.1 47.95 0c57.24,0 97.32,-33.26 97.32,-90.27 0,-66.52 -42.68,-91.67 -105.78,-91.67l-101.55 0c-3.25,0 -4.23,0.98 -4.23,4.23z"/>
     <path class="fil33" d="M10802.43 8073.16c8.84,-1.35 23.18,-7.51 27.66,-12.74 8.42,-55.68 -27.06,-135.59 56.96,-135.4 23.65,0.06 75.67,-2.89 93.63,2.29 11.15,3.21 21.66,12.53 26.32,21.63 7.36,14.35 4.71,23.77 5.77,43.78 3.75,4.02 21.84,12.12 28.01,13.76 0,-17.98 1.49,-162.54 -0.72,-172.4 -2.23,-9.89 -9.45,-15.21 -19.3,-15.9 -26.98,-1.89 -20.88,33.04 -20.88,49.02 -21.91,-1.82 -138.09,-2.65 -150.54,-1.04 -56.11,7.23 -46.91,48.65 -46.91,105.41 0,33.86 0,67.73 0,101.59z"/>
     <path class="fil37" d="M10896.89 8050.55c-4.01,7.32 -27.24,18.36 -38.3,22.31 -7.37,2.64 -15.23,4.71 -23.57,5.99 -9.68,1.49 -19.91,0.34 -28.77,1.85l24.39 4.92c32.89,9.83 103.77,9.67 142.46,0.21 18.3,-4.48 34.03,-11.44 39.47,-12.71 1.54,-1.82 25.49,-16.02 28.21,-17.04l16.58 -15.75c4.44,-4.41 12.81,-13.24 14.45,-19.4 -5.45,-1.27 -10.65,-4.8 -15.71,-6.85 -5.78,-2.34 -10.32,-4.23 -15.32,-7.6 -6.17,-1.64 -24.26,-9.74 -28.01,-13.76 -8.89,-1.94 -37.74,-19.81 -49.56,-22.56 -3.66,15.7 -46.53,70.06 -66.32,80.39z"/>
     <path class="fil38" d="M10830.09 8060.42c-4.48,5.23 -18.82,11.39 -27.66,12.74 -6.63,0.07 -4.83,1.38 -11.28,1.38 -6.38,0 -4.73,-1.28 -11.29,-1.42l1.79 1.02c0.39,0.18 2.94,1.19 3.02,1.22l17.76 5.44 3.82 -0.1c8.86,-1.51 19.09,-0.36 28.77,-1.85 8.34,-1.28 16.2,-3.35 23.57,-5.99 11.06,-3.95 34.29,-14.99 38.3,-22.31 -14.26,-3.36 -24.78,-23.28 -29.58,-26.8 -2.35,1.72 -6.49,7.34 -8.45,9.89 -5.57,7.23 -21.63,22.96 -28.77,26.78z"/>
    </g>
    <path class="fil37" d="M11095.12 8380.18c-2.01,3.66 -13.62,9.18 -19.15,11.15 -3.69,1.32 -7.62,2.36 -11.79,3 -4.84,0.74 -9.95,0.17 -14.39,0.92l12.2 2.46c16.45,4.92 51.89,4.84 71.23,0.11 9.15,-2.24 17.01,-5.72 19.73,-6.36 0.77,-0.91 12.75,-8.01 14.11,-8.52l8.29 -7.87c2.22,-2.21 6.4,-6.62 7.22,-9.7 -2.72,-0.63 -5.32,-2.41 -7.85,-3.43 -2.89,-1.17 -5.16,-2.11 -7.66,-3.8 -3.08,-0.82 -12.13,-4.87 -14.01,-6.88 -4.44,-0.97 -18.87,-9.9 -24.77,-11.28 -1.83,7.85 -23.27,35.04 -33.16,40.2z"/>
    <path class="fil37" d="M11248.13 8520.95c-2.01,3.67 -13.62,9.19 -19.15,11.16 -3.69,1.32 -7.62,2.35 -11.79,2.99 -4.84,0.75 -9.95,0.17 -14.39,0.93l12.2 2.46c16.45,4.91 51.89,4.83 71.23,0.1 9.15,-2.24 17.01,-5.72 19.73,-6.35 0.77,-0.91 12.75,-8.01 14.11,-8.52l8.29 -7.88c2.22,-2.2 6.4,-6.62 7.23,-9.7 -2.73,-0.63 -5.33,-2.4 -7.86,-3.42 -2.89,-1.17 -5.16,-2.11 -7.66,-3.8 -3.08,-0.82 -12.13,-4.87 -14.01,-6.88 -4.44,-0.97 -18.87,-9.91 -24.77,-11.28 -1.83,7.85 -23.27,35.03 -33.16,40.19z"/>
    <path class="fil37" d="M11412.44 8631.68c-2.01,3.66 -13.62,9.18 -19.15,11.15 -3.69,1.32 -7.62,2.36 -11.79,3 -4.84,0.74 -9.95,0.16 -14.39,0.92l12.2 2.46c16.45,4.91 51.89,4.84 71.23,0.1 9.15,-2.23 17.01,-5.71 19.73,-6.35 0.77,-0.91 12.75,-8.01 14.11,-8.52l8.29 -7.87c2.22,-2.21 6.4,-6.62 7.22,-9.7 -2.72,-0.64 -5.32,-2.41 -7.85,-3.43 -2.89,-1.17 -5.16,-2.11 -7.66,-3.8 -3.08,-0.82 -12.13,-4.87 -14.01,-6.88 -4.44,-0.97 -18.87,-9.9 -24.77,-11.28 -1.83,7.85 -23.27,35.03 -33.16,40.2z"/>
    <path class="fil37" d="M11589.86 8739.87c-2,3.66 -13.62,9.18 -19.15,11.16 -3.69,1.32 -7.62,2.35 -11.78,2.99 -4.85,0.75 -9.96,0.17 -14.39,0.93l12.19 2.46c16.45,4.91 51.89,4.83 71.23,0.1 9.16,-2.24 17.02,-5.72 19.74,-6.35 0.77,-0.92 12.75,-8.01 14.11,-8.52l8.28 -7.88c2.23,-2.2 6.41,-6.62 7.23,-9.7 -2.72,-0.63 -5.33,-2.4 -7.86,-3.42 -2.89,-1.17 -5.15,-2.12 -7.65,-3.8 -3.09,-0.82 -12.14,-4.87 -14.01,-6.88 -4.45,-0.97 -18.87,-9.91 -24.78,-11.28 -1.83,7.85 -23.27,35.03 -33.16,40.19z"/>
    <path class="fil37" d="M11739.83 8854.58c-2,3.67 -13.62,9.19 -19.15,11.16 -3.68,1.32 -7.61,2.35 -11.78,2.99 -4.84,0.75 -9.96,0.17 -14.39,0.93l12.19 2.46c16.45,4.91 51.89,4.83 71.24,0.1 9.15,-2.24 17.01,-5.72 19.73,-6.35 0.77,-0.91 12.75,-8.01 14.11,-8.52l8.29 -7.88c2.22,-2.2 6.4,-6.62 7.22,-9.7 -2.72,-0.63 -5.33,-2.4 -7.86,-3.42 -2.89,-1.17 -5.15,-2.11 -7.65,-3.8 -3.09,-0.82 -12.13,-4.87 -14.01,-6.88 -4.44,-0.97 -18.87,-9.91 -24.78,-11.28 -1.83,7.85 -23.26,35.03 -33.16,40.19z"/>
    <path class="fil37" d="M11933.16 8942.27c-2.01,3.66 -13.62,9.18 -19.15,11.16 -3.69,1.31 -7.62,2.35 -11.79,2.99 -4.84,0.75 -9.95,0.17 -14.38,0.93l12.19 2.45c16.45,4.92 51.89,4.84 71.23,0.11 9.15,-2.24 17.01,-5.72 19.74,-6.35 0.76,-0.92 12.74,-8.01 14.1,-8.52l8.29 -7.88c2.22,-2.2 6.41,-6.62 7.23,-9.7 -2.73,-0.63 -5.33,-2.4 -7.86,-3.42 -2.89,-1.18 -5.16,-2.12 -7.66,-3.8 -3.08,-0.82 -12.13,-4.87 -14,-6.88 -4.45,-0.97 -18.88,-9.91 -24.78,-11.28 -1.83,7.85 -23.27,35.03 -33.16,40.19z"/>
    <path class="fil37" d="M12081.16 9042.66c-2.01,3.66 -13.62,9.18 -19.15,11.16 -3.69,1.32 -7.62,2.35 -11.79,2.99 -4.84,0.75 -9.95,0.17 -14.38,0.93l12.19 2.46c16.45,4.91 51.89,4.83 71.23,0.1 9.15,-2.24 17.01,-5.72 19.73,-6.35 0.77,-0.92 12.75,-8.01 14.11,-8.52l8.29 -7.88c2.22,-2.2 6.41,-6.62 7.23,-9.7 -2.73,-0.63 -5.33,-2.4 -7.86,-3.42 -2.89,-1.17 -5.16,-2.12 -7.66,-3.8 -3.08,-0.82 -12.13,-4.87 -14,-6.88 -4.45,-0.97 -18.88,-9.91 -24.78,-11.28 -1.83,7.85 -23.27,35.03 -33.16,40.19z"/>
   </g>
   <g id="_2749643431888">
    <path class="fil31" d="M14305.01 10382.26c16.87,-3.8 311.17,-4.68 322.34,1.93l-0.02 8.58c-10.88,6.98 -246.22,2.78 -295.51,3.27 -18.3,0.18 -28.61,4.27 -26.81,-13.78zm307.47 -22.74l-293.6 0c-14.09,0 -14.69,-1.17 -13.98,-14.07 39.92,-3.72 251.08,-1.3 307.58,-1.3 6.87,0 10.92,1.12 15.05,3.28 0.92,14.46 0.4,12.09 -15.05,12.09zm1.3 -36.38l-294.9 0c-14.09,0 -14.69,-1.16 -13.98,-14.06 38.14,-3.7 252.44,-1.35 307.58,-1.35 7.64,0 10.36,0.77 15.05,3.33 0.91,14.37 0.37,12.08 -13.75,12.08zm-1.3 -36.59c-97.87,0 -195.73,0 -293.6,0 -13.61,0 -14.56,-1.42 -14.08,-14.09 43.67,-3.79 248.31,-1.22 307.68,-1.22l15.05 3.45c0.78,14.15 -0.06,11.86 -15.05,11.86zm-306.71 -48.5c13.09,-7.94 136.25,-3.38 161.21,-3.38 27.31,0 146.82,-4.67 160.93,3.38l0.22 8.86c-11.06,6.86 -244.32,2.73 -293.7,3.1 -16.64,0.13 -30.12,4.72 -28.66,-11.96zm0 -36.38c13.26,-8.27 88.62,-3.45 109.24,-3.45 21.47,0 93.63,-4.36 105.92,3.79 0.61,13.51 -2.29,11.88 -17.38,11.79l-150.89 -0.18c-37.13,0 -48.4,5.27 -46.89,-11.95zm-1.29 -31.18c3.44,-12.35 11.69,-9.02 24.73,-8.8l145.56 0.11c40.18,-0.01 45.45,-5.28 46.59,11.71 -11.06,7.17 -135.14,3.49 -166.1,3.49 -26.35,0 -43.36,4.48 -50.78,-6.51zm-26.77 -48.84l-0.75 295.47 374.49 0 2.93 0 -0.01 -205.35 -100.14 0.29 1.07 -101.24c-68.82,-2.91 -175.49,-0.3 -252.13,-0.51 -16.31,-0.05 -19.44,-1.46 -25.46,11.34z"/>
    <path class="fil39" d="M14387.27 10552.93l-20.84 3.21c2.25,-33.95 10.2,21.02 10.22,-53.32 0,-1.63 0.22,-8.56 0.55,-9.81 1.98,-7.33 -0.92,-6.38 15.04,-6.38 -0.15,11.56 -0.12,23.09 -0.05,34.65 0.08,16.58 -4.58,26.1 -4.92,31.65zm72.87 -36.88c-3.28,-38.47 43.08,-39.1 47.06,-9.43 5.03,37.59 -44.4,40.54 -47.06,9.43zm78.98 -16.93c-4.86,8.82 -2.59,26.46 -3.18,36.7l-14.51 0.67 -0.5 -49.7c18.24,0 8.8,5.42 18.84,2.7 6.77,-1.84 9.43,-7.77 18.97,-0.39 9.37,7.25 7.2,33.34 6.05,46.6l-14.14 0.43c-2.09,-25.56 5.21,-40.77 -11.53,-37.01zm-118 1.34c6.4,6.93 16.97,8.08 25.21,12.15 6.1,32.22 -35.61,32.74 -41.18,8.01 24.72,-1.44 8.74,12.85 27.97,4.38 -5.31,-18.24 -2.93,0.59 -25.79,-15.9 -3.64,-30.76 34.95,-30.12 40.02,-8.64 -13.01,4.99 -24.39,-11.12 -26.23,0zm-37.26 -24.51c-12.04,0.02 -6.21,-2.58 -7.61,-6.67 6.25,-4.75 -12.67,-4.29 14.99,-4.38 1.77,12.95 1.43,11.03 -7.38,11.05zm-137.58 105.6l438.8 0.02 -0.02 -142.01 -438.93 -0.14 0.15 142.13z"/>
    <path class="fil40" d="M14246.13 10439.42l438.93 0.14 0.02 142.01 -438.8 -0.02 -0.15 -142.13zm-18.35 162.75l31.13 -0.04 17.07 0.5 379.4 0 17.06 -0.5 31.14 0.04c5.34,-15.29 1.54,-84.91 1.54,-106.9 0,-16.95 1.12,-37.98 -0.03,-54.42 -1.37,-19.46 -11.72,-23.29 -31.77,-21.49l-18.3 -0.61 -378.68 0 -18.3 0.61c-20.18,-1.81 -30.56,1.56 -31.89,21.46 -1.11,16.56 -0.01,37.41 -0.01,54.45 0,21.56 -3.72,92.18 1.64,106.9z"/>
    <path class="fil31" d="M14655.38 10602.63l-379.4 0c-0.48,22.91 -4.2,30.74 6.53,46.21l364.09 -1.01c12.97,-14.46 9.26,-22.29 8.78,-45.2z"/>
    <path class="fil41" d="M14258.04 10419.36l18.3 -0.61c-4.4,-17.73 -1.08,-224.65 -1.52,-279.49 -0.07,-8.9 -1.61,-12.56 2.89,-17.61 6.02,-12.8 9.15,-11.39 25.46,-11.34 76.64,0.21 183.31,-2.4 252.13,0.51l-2.85 -16.36c-68.73,-2.37 -158.36,-0.17 -230.97,-0.22 -26.64,-0.02 -51.16,-3.7 -59.42,19.37 -9.36,26.14 4.2,266.42 -4.02,305.75z"/>
    <path class="fil41" d="M14259.5 10623.46c-1.08,51.34 34.92,41.59 80.17,41.59l249.42 0c45.69,0 83.87,10.57 82.77,-41.59l0.58 -21.33 -17.06 0.5c0.48,22.91 4.19,30.74 -8.78,45.2l-364.09 1.01c-10.73,-15.47 -7.01,-23.3 -6.53,-46.21l-17.07 -0.5 0.59 21.33z"/>
    <path class="fil40" d="M14555.3 10110.82l-1.07 101.24 100.14 -0.29 2.12 0.45 14.38 -0.3c-7.55,-13.8 -44.25,-46.63 -57.81,-60.2 -11.97,-11.99 -48.2,-52.14 -60.61,-57.26l2.85 16.36z"/>
    <path class="fil39" d="M14305.77 10238.05c-1.46,16.68 12.02,12.09 28.66,11.96 49.38,-0.37 282.64,3.76 293.7,-3.1l-0.22 -8.86c-14.11,-8.05 -133.62,-3.38 -160.93,-3.38 -24.96,0 -148.12,-4.56 -161.21,3.38z"/>
    <path class="fil41" d="M14627.33 10392.77l0.02 -8.58c-11.17,-6.61 -305.47,-5.73 -322.34,-1.93 -1.8,18.05 8.51,13.96 26.81,13.78 49.29,-0.49 284.63,3.71 295.51,-3.27z"/>
    <path class="fil41" d="M14304.9 10309.08c-0.71,12.9 -0.11,14.06 13.98,14.06l294.9 0c14.12,0 14.66,2.29 13.75,-12.08 -4.69,-2.56 -7.41,-3.33 -15.05,-3.33 -55.14,0 -269.44,-2.35 -307.58,1.35z"/>
    <path class="fil41" d="M14304.9 10345.45c-0.71,12.9 -0.11,14.07 13.98,14.07l293.6 0c15.45,0 15.97,2.37 15.05,-12.09 -4.13,-2.16 -8.18,-3.28 -15.05,-3.28 -56.5,0 -267.66,-2.42 -307.58,1.3z"/>
    <path class="fil41" d="M14304.8 10272.46c-0.48,12.67 0.47,14.09 14.08,14.09 97.87,0 195.73,0 293.6,0 14.99,0 15.83,2.29 15.05,-11.86l-15.05 -3.45c-59.37,0 -264.01,-2.57 -307.68,1.22z"/>
    <path class="fil39" d="M14305.77 10201.67c-1.51,17.22 9.76,11.95 46.89,11.95l150.89 0.18c15.09,0.09 17.99,1.72 17.38,-11.79 -12.29,-8.15 -84.45,-3.79 -105.92,-3.79 -20.62,0 -95.98,-4.82 -109.24,3.45z"/>
    <path class="fil41" d="M14304.48 10170.49c7.42,10.99 24.43,6.51 50.78,6.51 30.96,0 155.04,3.68 166.1,-3.49 -1.14,-16.99 -6.41,-11.72 -46.59,-11.71l-145.56 -0.11c-13.04,-0.22 -21.29,-3.55 -24.73,8.8z"/>
    <path class="fil41" d="M14655.02 10418.75l18.3 0.61 -2.45 -207.44 -14.38 0.3c0,37.74 4.93,180.71 -1.47,206.53z"/>
    <path class="fil42" d="M14276.34 10418.75l378.68 0c6.4,-25.82 1.47,-168.79 1.47,-206.53l-2.12 -0.45 0.01 205.35 -2.93 0 -374.49 0 0.75 -295.47c-4.5,5.05 -2.96,8.71 -2.89,17.61 0.44,54.84 -2.88,261.76 1.52,279.49z"/>
    <path class="fil31" d="M14479.23 10499.17c16.79,-4.4 16.99,18.06 5.93,26.1 -7.86,-2.46 -9.34,-1.16 -10,-11.99 -0.49,-7.98 1.43,-10.18 4.07,-14.11zm-19.09 16.88c2.66,31.11 52.09,28.16 47.06,-9.43 -3.98,-29.67 -50.34,-29.04 -47.06,9.43z"/>
    <path class="fil31" d="M14539.12 10499.12c16.74,-3.76 9.44,11.45 11.53,37.01l14.14 -0.43c1.15,-13.26 3.32,-39.35 -6.05,-46.6 -9.54,-7.38 -12.2,-1.45 -18.97,0.39 -10.04,2.72 -0.6,-2.7 -18.84,-2.7l0.5 49.7 14.51 -0.67c0.59,-10.24 -1.68,-27.88 3.18,-36.7z"/>
    <path class="fil31" d="M14421.12 10500.46c1.84,-11.12 13.22,4.99 26.23,0 -5.07,-21.48 -43.66,-22.12 -40.02,8.64 22.86,16.49 20.48,-2.34 25.79,15.9 -19.23,8.47 -3.25,-5.82 -27.97,-4.38 5.57,24.73 47.28,24.21 41.18,-8.01 -8.24,-4.07 -18.81,-5.22 -25.21,-12.15z"/>
    <path class="fil31" d="M14387.27 10552.93c0.34,-5.55 5,-15.07 4.92,-31.65 -0.07,-11.56 -0.1,-23.09 0.05,-34.65 -15.96,0 -13.06,-0.95 -15.04,6.38 -0.33,1.25 -0.55,8.18 -0.55,9.81 -0.02,74.34 -7.97,19.37 -10.22,53.32l20.84 -3.21z"/>
    <path class="fil39" d="M14479.23 10499.17c-2.64,3.93 -4.56,6.13 -4.07,14.11 0.66,10.83 2.14,9.53 10,11.99 11.06,-8.04 10.86,-30.5 -5.93,-26.1z"/>
    <path class="fil43" d="M14259.5 10623.46l-0.59 -21.33 -31.13 0.04 31.72 21.29z"/>
    <path class="fil43" d="M14671.86 10623.46l31.72 -21.29 -31.14 -0.04 -0.58 21.33z"/>
    <path class="fil44" d="M14376.25 10469.28c1.4,4.09 -4.43,6.69 7.61,6.67 8.81,-0.02 9.15,1.9 7.38,-11.05 -27.66,0.09 -8.74,-0.37 -14.99,4.38z"/>
   </g>
   <g id="_2749643426864">
    <path class="fil45" d="M10520.9 11197.53c1.63,-2.38 2.98,-14.89 3.48,-18 3.46,-21.23 19.09,-126.41 21.27,-130.13 -1.56,-2.85 5.96,-43.4 6.39,-46.13 2.08,-13.18 16.73,-110.54 18.71,-115.83 2.17,-5.8 7.77,-10.84 15.3,-11.73 6.45,-0.77 98.82,-0.23 107.87,-0.23 29.72,0 60.38,0.9 87.3,13.73 3.63,1.73 2.27,0.66 2.71,3.56 0.89,-0.89 0.53,-0.05 0.89,-2.14 3.02,-11.73 2.83,-31.03 0.76,-43.67 -0.71,-4.35 -1.95,-9.36 -3.34,-13.07 -19.15,-50.99 -69.15,-65.76 -127.47,-65.76l-0.67 0 -150.94 0c-5.16,0.09 -8.42,0.21 -9.04,0.37 -16.25,4.13 -16.13,19.06 -17.96,30.03l-37.44 237.25c-1.51,9.01 -3.12,18.63 -4.36,27.84l-8.81 55.6c-3.11,18.46 -5.67,37.35 -8.75,55.66 -1.19,7.02 -3.69,18.49 7.26,22.23 3.6,1.23 88.7,0.39 96.84,0.42z"/>
    <path class="fil46" d="M10783.93 10892.77c0.58,7.19 -7.12,33.38 -9.73,40.23 -13.49,35.42 -31.91,62.37 -66.32,81.49 -40.97,22.75 -80.32,22.01 -125.73,22.01 -12.66,0 -30.99,-2.75 -36.5,12.9 -2.18,3.72 -17.81,108.9 -21.27,130.13 -0.5,3.11 -1.85,15.62 -3.48,18l-6.37 41.68c-0.17,7.5 4.75,11.98 12.02,12.02l72.02 -0.03c9.93,0 13.61,0.01 18.81,-5.19 4.9,-4.89 5.75,-9.83 6.9,-17.73 4.09,-28.18 8.86,-55.33 13.17,-83.43 1.76,-11.43 2.59,-27.59 20.45,-27.54 41.48,0.1 81.66,-4.05 114.41,-30.21 18.97,-15.14 30.95,-33.63 40.15,-56.46 10.15,-25.19 19.31,-70.69 6.76,-101.76 -1.27,-3.15 -2.04,-5.54 -3.69,-8.31 -7.86,-13.15 -16.36,-22.57 -30.71,-29.94 -0.36,2.09 0,1.25 -0.89,2.14z"/>
    <path class="fil47" d="M10545.65 11049.4c5.51,-15.65 23.84,-12.9 36.5,-12.9 45.41,0 84.76,0.74 125.73,-22.01 34.41,-19.12 52.83,-46.07 66.32,-81.49 2.61,-6.85 10.31,-33.04 9.73,-40.23 -0.44,-2.9 0.92,-1.83 -2.71,-3.56 -26.92,-12.83 -57.58,-13.73 -87.3,-13.73 -9.05,0 -101.42,-0.54 -107.87,0.23 -7.53,0.89 -13.13,5.93 -15.3,11.73 -1.98,5.29 -16.63,102.65 -18.71,115.83 -0.43,2.73 -7.95,43.28 -6.39,46.13z"/>
    <path class="fil46" d="M10711.6 11379.39l-17.05 0 5.41 -35.01c1.13,-7.18 1.71,-7.3 9.12,-7.3 15.15,0 28.41,1.16 28.41,16.42 0,7.25 -2.82,15.65 -6.51,19.37 -4.54,4.56 -12.54,6.52 -19.38,6.52zm-70.72 82.08c0,2.48 2.35,4.42 5.05,4.42 39.2,0 34.18,3.15 36.99,-13.52l5.59 -34.83c4.29,-12.64 37.5,3.29 65.66,-15.16 13.29,-8.7 20.33,-20.73 24.5,-36.75 3.98,-15.24 4.96,-35.85 -7.22,-47.99 -2.62,-2.6 -8.62,-6.57 -12.2,-8 -10.68,-4.27 -21.09,-5.4 -35.65,-5.4l-48.62 0c-9.96,0 -10.36,5.85 -11.37,12 -1.13,6.88 -2.28,13.63 -3.26,20.73 -1.88,13.56 -4.44,27.48 -6.58,41.42l-12.89 83.08z"/>
    <path class="fil48" d="M10280.95 11379.39l5.64 -34.15c1.11,-8.68 2.77,-8.16 9.51,-8.16 6.74,0 13.44,0.38 18.73,2.1 9.4,3.06 9.05,9.84 9.05,16.84 0,9.98 -5.14,17.84 -12.06,20.77 -8.41,3.57 -19.2,2.6 -30.87,2.6zm-53.05 81.45c0,3.3 2.17,5.05 3.79,5.05l29.68 0c8.38,0 8.16,-13.01 9.11,-18.67 1.43,-8.49 2.49,-16.03 3.88,-24.54 1.85,-11.42 4.72,-10.46 17.32,-10.46 10.07,0 18.45,0.33 27,-1.42 23.93,-4.88 37.69,-17.49 44.91,-39.07 4.42,-13.23 7.62,-34.7 -0.42,-47.42 -10.88,-17.21 -30.24,-20.07 -52.55,-20.07l-48.62 0c-9.56,0 -10.61,5.14 -11.55,11.81l-21.19 134.15c-0.63,3.76 -1.36,6.44 -1.36,10.64z"/>
    <path class="fil46" d="M10833.48 11438.74c-11.95,0 -22.74,-7.35 -22.74,-19.57 0,-14.31 4.99,-24.24 17.04,-30.32 13.93,-7.03 37.27,-3.9 37.27,19.58 0,16.77 -13.95,30.31 -31.57,30.31zm-61.26 -18.31c0,25.35 15.06,47.99 42.31,47.99 12.01,0 15.75,0.09 27.34,-4.86 7.88,-3.37 9.84,-6.65 14.34,-9.66 0,14.19 -6.42,11.99 30.31,11.99 8.16,0 8.55,-14.33 9.5,-21.43 1.53,-11.35 12.6,-75.54 12.6,-82.12 0,-2.3 -3.08,-4.42 -5.68,-4.42l-25.26 0c-6.62,0 -7.58,4.88 -7.58,11.36 -3.19,-2.14 -6.98,-13.89 -34.73,-13.89 -34.71,0 -63.15,30.91 -63.15,65.04z"/>
    <path class="fil48" d="M10420.5 11438.74c-10.13,0 -17.19,-3.77 -21.07,-11.77 -3.51,-7.25 -2.39,-14.78 0.14,-21.79 1.36,-3.78 3.55,-6.96 5.95,-9.83 9.04,-10.81 30.84,-13.7 40.73,-3.2 13.32,14.12 2.67,46.59 -25.75,46.59zm-61.25 -21.47c0,14.49 1.51,27.83 11.83,38.06 4.16,4.13 6.23,6.15 11.94,8.9 16.22,7.79 38.67,4.64 53.02,-4.89 2.91,-1.93 4.36,-3.55 7.19,-5.44 -1.14,13.72 -6.27,11.99 29.05,11.99 5.65,0 7.58,-3.47 8.49,-8.55 4.22,-23.5 7.75,-50.42 11.81,-74.71 4.91,-29.37 7.59,-24.71 -29.14,-24.71 -6.44,0 -5.75,6.2 -6.95,11.36 -3.74,-4.31 -4.68,-7.53 -13.49,-10.51 -10.98,-3.72 -22.27,-4.48 -34.12,-1.74 -19.78,4.57 -34.15,17.25 -43.12,35.19 -2.84,5.7 -6.51,16.87 -6.51,25.05z"/>
    <path class="fil48" d="M10508.9 11362.97c0,4.16 25.93,77.45 28.81,86.11 1.94,5.84 2.67,5.13 0.09,8.42 -6.39,8.16 -17.13,24.38 -24.11,34.02 -1.8,2.48 -4.36,4.98 -3.66,7.99 0.39,1.61 1.46,3.64 3.29,3.64l30.94 0c4.23,0 7.88,-6.6 11,-11.11l5.94 -8.58c1.12,-1.66 1.83,-2.85 3.01,-4.56l18.4 -26.44c2.28,-3.05 3.93,-5.79 6.22,-8.93l42.58 -61.62c1.66,-2.34 11.99,-16.59 11.99,-18.31 0,-3.88 -3,-5.68 -6.94,-5.68l-24 0c-7.97,0 -9.19,3.99 -14.52,11.99 -3.67,5.5 -7.21,10.5 -10.99,16.17 -3.72,5.58 -7.04,10.24 -10.73,15.79 -1.92,2.88 -3.43,5.13 -5.31,7.95l-5.81 8.09c-0.68,-2.94 -1.42,-4.93 -2.26,-7.85 -2.09,-7.29 -13,-46.1 -15.38,-49.02 -1.53,-1.89 -4.31,-3.12 -7.62,-3.12l-25.25 0c-3.06,0 -5.69,1.79 -5.69,5.05z"/>
    <path class="fil46" d="M10912.41 11461.47c0,1.79 2,4.42 3.79,4.42l25.89 0c8.04,0 7.93,-10.42 8.84,-15.78 7.22,-42.42 13.22,-86.73 20.38,-129.27 3.24,-19.23 3.97,-16.6 -27.96,-16.6 -3.68,0 -6.21,1.18 -7.17,4.2l-4.83 30.53c-6.19,36.82 -11.35,74.78 -17.59,111.86 -0.57,3.35 -1.35,7.06 -1.35,10.64z"/>
   </g>
   <path class="fil49" d="M12105.22 10919.26c-25.52,-3.36 -50,-13.97 -69.39,-32.66 -17.23,-16.61 -30.36,-39.43 -36.51,-69 -7.33,-35.24 0.23,-70.14 18.39,-98.06 18.16,-27.94 46.91,-48.87 81.95,-56.16l4.96 23.88c-28.46,5.93 -51.81,22.91 -66.54,45.56 -14.73,22.66 -20.86,51.06 -14.88,79.81 5.1,24.48 15.69,43.11 29.52,56.44 15.46,14.9 35.1,23.37 55.66,26.07l-3.16 24.12z"/>
   <path class="fil50" d="M12002.94 11000.15c-40.22,-5.29 -78.79,-22 -109.35,-51.46 -27.14,-26.17 -47.82,-62.13 -57.52,-108.73 -11.55,-55.53 0.37,-110.53 28.97,-154.53 28.61,-44.02 73.92,-77 129.13,-88.49l7.84 37.64c-44.86,9.33 -81.66,36.09 -104.85,71.79 -23.23,35.71 -32.88,80.47 -23.45,125.76 8.02,38.57 24.72,67.94 46.5,88.93 24.36,23.48 55.32,36.83 87.72,41.09l-4.99 38z"/>
   <path class="fil51" d="M11897.22 11081.28c-54.92,-7.21 -107.59,-30.04 -149.31,-70.26 -37.06,-35.73 -65.3,-84.84 -78.54,-148.46 -15.78,-75.82 0.5,-150.91 39.56,-210.98 39.07,-60.11 100.93,-105.14 176.31,-120.83l10.69 51.39c-61.24,12.74 -111.48,49.28 -143.16,98.02 -31.7,48.76 -44.88,109.86 -32.01,171.71 10.96,52.66 33.75,92.76 63.5,121.43 33.25,32.06 75.52,50.29 119.76,56.1l-6.8 51.88z"/>
   <path class="fil52" d="M11760.45 11164.58c-69.61,-9.15 -136.38,-38.08 -189.26,-89.06 -46.99,-45.3 -82.78,-107.54 -99.56,-188.19 -20,-96.11 0.63,-191.3 50.14,-267.45 49.53,-76.2 127.94,-133.28 223.5,-153.16l13.56 65.14c-77.65,16.15 -141.32,62.46 -181.48,124.24 -40.19,61.82 -56.89,139.28 -40.58,217.67 13.89,66.76 42.79,117.59 80.49,153.92 42.15,40.64 95.74,63.75 151.81,71.12l-8.62 65.77z"/>
   <path class="fil53" d="M11635.23 11320.84c-99.01,-13.01 -193.96,-54.15 -269.17,-126.66 -66.83,-64.42 -117.73,-152.95 -141.6,-267.65 -28.44,-136.69 0.89,-272.07 71.31,-380.38 70.44,-108.36 181.96,-189.54 317.87,-217.82l19.28 92.64c-110.43,22.98 -200.99,88.84 -258.1,176.71 -57.16,87.91 -80.92,198.07 -57.72,309.57 19.76,94.94 60.86,167.24 114.47,218.91 59.96,57.8 136.17,90.66 215.92,101.15l-12.26 93.53z"/>
   <g id="_2749643424016">
    <g>
     <path class="fil54" d="M12585.56 10795.17l-55.28 -3.75c-4.12,-14.67 -29.71,-76.9 -36.93,-90.19l-35.35 85.07 -46.3 -1.96c1.18,-11.67 52.66,-102.21 54.45,-111.69 1.79,-9.49 -44.08,-96.67 -50.63,-115.43l47.33 -2.82c5.81,8.25 13.39,30.71 17.64,42.06l18.13 43.97c3.55,-22.13 26.06,-70.62 35.64,-90.57l49.06 -3.07c-7.21,23.59 -58.2,111.25 -57.74,124.75 0.46,13.18 50.92,99.41 59.98,123.63zm320.62 -335.5c5.91,3.92 2.66,90.58 2.66,102.8l-0.66 319.98c-13.35,4.23 -155.7,1.76 -191.92,1.85 -4.51,0.01 -9.33,0.21 -13.77,0.15 -1.88,-0.03 -6.33,-0.04 -8.01,-0.3 -8.48,-1.34 -4.59,-1.39 -6.12,-2.13l0.84 -43.14 43.74 0.1 -0.58 -43.82 -43.69 0.01 0.17 -29.43 42.58 0 1.51 -43.73 -43.07 0.01 -1.19 -29.14 43.94 0 0.24 -43.95 -43.71 0.05 -0.33 -28.96 44.13 0.08 -0.27 -44.09 -43.83 0.04 0.25 -29.04 43.89 0.05 -0.49 -43.97 -43.82 0.01 0.24 -43.62 217.27 0.19zm-582.27 -24.1l0 485.41 357.59 63.82 7.13 0 0.31 -72.84c21.37,0 216.79,3.26 231.95,-3.05 12.11,-5.04 9.3,-8.26 16.07,-18.98l0 -437.18c-12.99,-22.87 -14.96,-22.82 -46.31,-22.62l-201.46 0.05 -0.56 -58.43 -7.13 0 -357.59 63.82z"/>
     <path class="fil54" d="M12761.61 10620.28l11.87 -0.22 79.02 0.03 11.77 0.16 -0.17 -44.53 -102.44 0.27 -0.05 44.29z"/>
     <path class="fil54" d="M12761.84 10693.09l101.79 -0.2 0.62 -44.12 -102.74 0.16 0.33 44.16z"/>
     <path class="fil54" d="M12761.49 10547.2l102.78 -0.14 -0.41 -44.15 -101.37 0.17 -1 44.12z"/>
     <path class="fil54" d="M12762.11 10765.82l100.66 -0.06 1.59 -44.02 -102.75 0.27 0.5 43.81z"/>
     <path class="fil54" d="M12864.09 10838.45l0.8 -43.27 -102.12 0.5 0.07 42.61 101.25 0.16z"/>
    </g>
    <path class="fil55" d="M12688.36 10882.02c1.53,0.74 -2.36,0.79 6.12,2.13 1.68,0.26 6.13,0.27 8.01,0.3 4.44,0.06 9.26,-0.14 13.77,-0.15 36.22,-0.09 178.57,2.38 191.92,-1.85l0.66 -319.98c0,-12.22 3.25,-98.88 -2.66,-102.8l0.33 422.36 -218.15 -0.01z"/>
    <path class="fil56" d="M12864.09 10838.45l-101.25 -0.16 -0.07 -42.61 102.12 -0.5 -102.31 -0.99 -1.46 44.22c13.35,4.26 92.57,3.92 102.97,0.04z"/>
    <path class="fil31" d="M12864.09 10838.45c-10.4,3.88 -89.62,4.23 -102.97,-0.04l1.46 -44.22 102.31 0.99 -0.8 43.27zm42.42 43.58l-0.33 -422.36 -217.27 -0.19 -0.24 43.62 43.82 -0.01 0.49 43.97 -43.89 -0.05 -0.25 29.04 43.83 -0.04 0.27 44.09 -44.13 -0.08 0.33 28.96 43.71 -0.05 -0.24 43.95 -43.94 0 1.19 29.14 43.07 -0.01 -1.51 43.73 -42.58 0 -0.17 29.42 43.69 0 0.58 43.82 -43.74 -0.1 -0.84 43.14 218.15 0.01zm-43.74 -116.27l-100.66 0.06 -0.5 -43.81 102.75 -0.26 -1.59 44.01zm0.86 -72.87l-101.79 0.2 -0.33 -44.16 102.73 -0.16 -0.61 44.12zm-11.13 -72.8l-79.02 -0.03 -11.87 0.22 0.05 -44.29 102.45 -0.27 0.16 44.53 -11.77 -0.16zm11.77 -73.03l-102.78 0.14 1 -44.12 101.37 -0.17 0.41 44.15z"/>
    <path class="fil31" d="M12458 10786.3l35.35 -85.07c7.22,13.29 32.81,75.52 36.93,90.19l55.28 3.74c-9.06,-24.21 -59.52,-110.44 -59.98,-123.62 -0.46,-13.5 50.53,-101.16 57.74,-124.75l-49.06 3.07c-9.58,19.95 -32.09,68.44 -35.64,90.57l-18.13 -43.97c-4.25,-11.35 -11.83,-33.82 -17.64,-42.06l-47.33 2.82c6.55,18.76 52.42,105.94 50.63,115.43 -1.79,9.48 -53.27,100.02 -54.44,111.69l46.29 1.96z"/>
   </g>
   <path class="fil57" d="M8986.05 11932.26l273.52 0c90.86,0 136.29,38.32 136.29,114.97l0 365.31c0,76.65 -45.43,114.97 -136.29,114.97l-273.52 0 0 -595.25zm247.56 468.23l0 -341.21c0,-13.59 -7.73,-20.39 -23.18,-20.39l-62.12 0 0 381.99 62.12 0c15.45,0 23.18,-6.8 23.18,-20.39zm536.84 127.02l-18.55 -89.01 -142.78 0 -19.48 89.01 -159.47 0 152.98 -595.25 197.49 0 152.99 595.25 -163.18 0zm-136.3 -203.98l92.72 0 -45.43 -214.18 -47.29 214.18zm695.39 -391.27l0 115.9 -114.97 0 0 479.35 -162.26 0 0 -479.35 -114.04 0 0 -115.9 391.27 0zm344.91 595.25l-18.55 -89.01 -142.78 0 -19.48 89.01 -159.47 0 152.98 -595.25 197.49 0 152.99 595.25 -163.18 0zm-136.3 -203.98l92.72 0 -45.43 -214.18 -47.29 214.18zm585.98 -167.82l0 -96.43c0,-13.59 -7.73,-20.39 -23.18,-20.39l-66.76 0 0 137.22 66.76 0c15.45,0 23.18,-6.8 23.18,-20.4zm0 244.78l0 -97.36c0,-13.6 -7.73,-20.4 -23.18,-20.4l-66.76 0 0 138.15 66.76 0c15.45,0 23.18,-6.8 23.18,-20.39zm-249.41 -468.23l272.59 0c90.86,0 136.29,38.32 136.29,114.97l0 76.03c0,53.78 -14.83,88.7 -44.5,104.77 17.31,7.42 29.05,18.7 35.23,33.84 6.18,15.15 9.27,35.7 9.27,61.66l0 89.01c0,76.65 -45.43,114.97 -136.29,114.97l-272.59 0 0 -595.25zm781.61 595.25l-18.55 -89.01 -142.78 0 -19.48 89.01 -159.47 0 152.98 -595.25 197.49 0 152.99 595.25 -163.18 0zm-136.3 -203.98l92.72 0 -45.43 -214.18 -47.29 214.18zm564.65 67.68l0 -84.37c0,-13.6 -7.72,-20.4 -23.18,-20.4l-89.01 0c-45.74,0 -78.03,-10.04 -96.89,-30.13 -18.85,-20.09 -28.27,-48.99 -28.27,-86.69l0 -122.39c0,-76.65 45.12,-114.97 135.36,-114.97l127.03 0c90.24,0 135.37,38.32 135.37,114.97l0 71.39 -162.26 0 0 -50.06c0,-13.6 -7.73,-20.4 -23.18,-20.4l-26.89 0c-15.45,0 -23.18,6.8 -23.18,20.4l0 88.08c0,13.6 7.73,20.4 23.18,20.4l87.16 0c45.74,0 78.34,9.58 97.81,28.74 19.47,19.16 29.21,47.28 29.21,84.37l0 122.39c0,76.65 -45.12,114.97 -135.37,114.97l-126.09 0c-90.87,0 -136.3,-38.32 -136.3,-114.97l0 -71.39 162.26 0 0 50.06c0,13.6 7.72,20.4 23.18,20.4l26.88 0c15.46,0 23.18,-6.8 23.18,-20.4zm389.42 20.4l203.06 0 0 115.9 -365.31 0 0 -595.25 356.96 0 0 115.9 -194.71 0 0 121.46 167.82 0 0 115.9 -167.82 0 0 126.09zm448.76 -479.35l273.52 0c90.86,0 136.29,38.32 136.29,114.97l0 365.31c0,76.65 -45.43,114.97 -136.29,114.97l-273.52 0 0 -595.25zm247.56 468.23l0 -341.21c0,-13.59 -7.73,-20.39 -23.18,-20.39l-62.12 0 0 381.99 62.12 0c15.45,0 23.18,-6.8 23.18,-20.39zm395.9 11.12l203.06 0 0 115.9 -365.31 0 0 -595.25 356.96 0 0 115.9 -194.71 0 0 121.46 167.82 0 0 115.9 -167.82 0 0 126.09zm535.91 -479.35l168.75 0 -146.5 595.25 -188.22 0 -146.49 -595.25 168.75 0 71.39 397.76 72.32 -397.76zm374.58 479.35l203.06 0 0 115.9 -365.31 0 0 -595.25 356.96 0 0 115.9 -194.71 0 0 121.46 167.82 0 0 115.9 -167.82 0 0 126.09zm416.3 0l184.51 0 0 115.9 -346.76 0 0 -595.25 162.25 0 0 479.35zm355.11 -479.35l137.22 0c90.87,0 136.3,38.32 136.3,114.97l0 365.31c0,76.65 -45.43,114.97 -136.3,114.97l-137.22 0c-90.86,0 -136.29,-38.32 -136.29,-114.97l0 -365.31c0,-76.65 45.43,-114.97 136.29,-114.97zm111.26 458.95l0 -322.65c0,-13.6 -7.72,-20.4 -23.18,-20.4l-38.94 0c-15.45,0 -23.18,6.8 -23.18,20.4l0 322.65c0,13.6 7.73,20.4 23.18,20.4l38.94 0c15.46,0 23.18,-6.8 23.18,-20.4zm233.65 -458.95l275.37 0c90.86,0 136.3,38.32 136.3,114.97l0 170.6c0,76.65 -45.44,114.97 -136.3,114.97l-113.12 0 0 194.71 -162.25 0 0 -595.25zm249.41 264.25l0 -127.95c0,-13.6 -7.73,-20.4 -23.18,-20.4l-63.98 0 0 168.74 63.98 0c15.45,0 23.18,-6.79 23.18,-20.39zm362.53 331l-144.64 0 0 -595.25 177.09 0 96.43 318.02 96.42 -318.02 177.09 0 0 595.25 -143.71 0 0 -378.29 -74.17 249.41 -111.27 0 -73.24 -247.56 0 376.44zm638.82 -115.9l203.06 0 0 115.9 -365.31 0 0 -595.25 356.96 0 0 115.9 -194.71 0 0 121.46 167.82 0 0 115.9 -167.82 0 0 126.09zm525.71 -479.35l148.35 0 0 595.25 -139.08 0 -132.58 -312.46 0 312.46 -148.35 0 0 -595.25 139.07 0 132.59 318.02 0 -318.02zm581.35 0l0 115.9 -114.97 0 0 479.35 -162.26 0 0 -479.35 -114.04 0 0 -115.9 391.27 0z"/>
  </g>
 </g>
</svg>
