<?xml version="1.0" encoding="UTF-8"?>
<!DOCTYPE svg PUBLIC "-//W3C//DTD SVG 1.1//EN" "http://www.w3.org/Graphics/SVG/1.1/DTD/svg11.dtd">
<!-- Creator: CorelDRAW 2019 (64-Bit Evaluation Version) -->
<svg xmlns="http://www.w3.org/2000/svg" xml:space="preserve" width="297mm" height="210mm" version="1.1" style="shape-rendering:geometricPrecision; text-rendering:geometricPrecision; image-rendering:optimizeQuality; fill-rule:evenodd; clip-rule:evenodd"
viewBox="0 0 29700 21000"
 xmlns:xlink="http://www.w3.org/1999/xlink"
 xmlns:xodm="http://www.corel.com/coreldraw/odm/2003">
 <defs>
  <style type="text/css">
   <![CDATA[
    .fil3 {fill:#080808}
    .fil4 {fill:#090909}
    .fil8 {fill:#0A0A0B}
    .fil11 {fill:#0D0D0D}
    .fil10 {fill:#1A1A1A}
    .fil2 {fill:#337F01}
    .fil7 {fill:#347C0A}
    .fil5 {fill:#357D06}
    .fil6 {fill:#357D09}
    .fil0 {fill:#3E2D44}
    .fil13 {fill:#F3FAEC}
    .fil12 {fill:#FAFAF9}
    .fil9 {fill:#FDFDFD}
    .fil1 {fill:white;fill-rule:nonzero}
   ]]>
  </style>
 </defs>
 <g id="Layer_x0020_1">
  <metadata id="CorelCorpID_0Corel-Layer"/>
  <g id="_2320458090576">
   <rect class="fil0" x="8813.1" y="13715.5" width="10870.57" height="5714.01" rx="371.64" ry="371.64"/>
   <path class="fil1" d="M12066.82 18660.02l-162.25 0 0 -76.96c0,-13.59 -7.73,-20.39 -23.18,-20.39l-33.38 0c-15.46,0 -23.18,6.8 -23.18,20.39l0 341.21c0,13.59 7.72,20.39 23.18,20.39l33.38 0c15.45,0 23.18,-6.8 23.18,-20.39l0 -99.21 -46.36 0 0 -102.92 208.61 0 0 214.18c0,76.65 -45.43,114.97 -136.29,114.97l-131.66 0c-90.87,0 -136.3,-38.32 -136.3,-114.97l0 -365.31c0,-76.65 45.43,-114.97 136.3,-114.97l131.66 0c90.86,0 136.29,38.32 136.29,114.97l0 89.01zm227.16 179.87l0 211.4 -162.25 0 0 -595.25 275.37 0c90.86,0 136.3,38.32 136.3,114.97l0 153.91c0,58.72 -26.58,94.88 -79.74,108.48l109.4 217.89 -174.3 0 -94.58 -211.4 -10.2 0zm63.98 -267.95l-63.98 0 0 157.62 63.98 0c15.45,0 23.18,-6.8 23.18,-20.4l0 -116.82c0,-13.6 -7.73,-20.4 -23.18,-20.4zm553.53 479.35l-18.55 -89.01 -142.78 0 -19.48 89.01 -159.47 0 152.98 -595.25 197.49 0 152.99 595.25 -163.18 0zm-136.3 -203.98l92.72 0 -45.43 -214.18 -47.29 214.18zm336.57 -391.27l275.37 0c90.86,0 136.3,38.32 136.3,114.97l0 170.6c0,76.65 -45.44,114.97 -136.3,114.97l-113.12 0 0 194.71 -162.25 0 0 -595.25zm249.41 264.25l0 -127.95c0,-13.6 -7.73,-20.4 -23.18,-20.4l-63.98 0 0 168.74 63.98 0c15.45,0 23.18,-6.79 23.18,-20.39zm494.19 -264.25l159.47 0 0 595.25 -159.47 0 0 -235.5 -116.83 0 0 235.5 -159.47 0 0 -595.25 159.47 0 0 243.85 116.83 0 0 -243.85zm233.65 0l162.25 0 0 595.25 -162.25 0 0 -595.25zm635.11 222.52l-162.25 0 0 -95.5c0,-13.59 -7.73,-20.39 -23.18,-20.39l-32.45 0c-15.46,0 -23.18,6.8 -23.18,20.39l0 341.21c0,13.59 7.72,20.39 23.18,20.39l32.45 0c15.45,0 23.18,-6.8 23.18,-20.39l0 -91.79 162.25 0 0 103.84c0,76.65 -45.43,114.97 -136.29,114.97l-130.73 0c-90.87,0 -136.3,-38.32 -136.3,-114.97l0 -365.31c0,-76.65 45.43,-114.97 136.3,-114.97l130.73 0c90.86,0 136.29,38.32 136.29,114.97l0 107.55zm254.98 -222.52l273.52 0c90.86,0 136.29,38.32 136.29,114.97l0 365.31c0,76.65 -45.43,114.97 -136.29,114.97l-273.52 0 0 -595.25zm247.56 468.23l0 -341.21c0,-13.59 -7.73,-20.39 -23.18,-20.39l-62.12 0 0 381.99 62.12 0c15.45,0 23.18,-6.8 23.18,-20.39zm395.9 11.12l203.06 0 0 115.9 -365.31 0 0 -595.25 356.96 0 0 115.9 -194.71 0 0 121.46 167.82 0 0 115.9 -167.82 0 0 126.09zm482.13 -20.4l0 -84.37c0,-13.6 -7.72,-20.4 -23.18,-20.4l-89.01 0c-45.74,0 -78.03,-10.04 -96.89,-30.13 -18.85,-20.09 -28.27,-48.99 -28.27,-86.69l0 -122.39c0,-76.65 45.12,-114.97 135.36,-114.97l127.03 0c90.24,0 135.37,38.32 135.37,114.97l0 71.39 -162.26 0 0 -50.06c0,-13.6 -7.73,-20.4 -23.18,-20.4l-26.89 0c-15.45,0 -23.18,6.8 -23.18,20.4l0 88.08c0,13.6 7.73,20.4 23.18,20.4l87.16 0c45.74,0 78.34,9.58 97.81,28.74 19.47,19.16 29.21,47.28 29.21,84.37l0 122.39c0,76.65 -45.12,114.97 -135.37,114.97l-126.09 0c-90.87,0 -136.3,-38.32 -136.3,-114.97l0 -71.39 162.26 0 0 50.06c0,13.6 7.72,20.4 23.18,20.4l26.88 0c15.46,0 23.18,-6.8 23.18,-20.4zm227.17 -458.95l162.25 0 0 595.25 -162.25 0 0 -595.25zm636.04 203.98l-162.25 0 0 -76.96c0,-13.59 -7.73,-20.39 -23.18,-20.39l-33.38 0c-15.46,0 -23.18,6.8 -23.18,20.39l0 341.21c0,13.59 7.72,20.39 23.18,20.39l33.38 0c15.45,0 23.18,-6.8 23.18,-20.39l0 -99.21 -46.36 0 0 -102.92 208.61 0 0 214.18c0,76.65 -45.43,114.97 -136.29,114.97l-131.66 0c-90.87,0 -136.3,-38.32 -136.3,-114.97l0 -365.31c0,-76.65 45.43,-114.97 136.3,-114.97l131.66 0c90.86,0 136.29,38.32 136.29,114.97l0 89.01zm336.57 -203.98l148.35 0 0 595.25 -139.08 0 -132.58 -312.46 0 312.46 -148.35 0 0 -595.25 139.07 0 132.59 318.02 0 -318.02z"/>
   <g>
    <path class="fil2" d="M14425.4 15809.45c26.27,-19.86 73.25,-88.42 97.17,-117.98l278.25 -346.97 -226.21 -639.3 -529.16 0.5c-27.65,38.17 -80.4,221.36 -101.46,281.49 -63.79,182.11 -673.03,1941.06 -680.4,1992.45l616.56 -0.68 149.05 -454.19c24.05,-10.51 555.9,-12.85 569.03,0 21.56,41.99 60.73,175.91 78.41,229.62 23.56,71.6 50.23,158.44 75.51,224.86l625.85 -0.78 -236.69 -673.2c-22.29,-59.68 -51.44,-175.46 -82.66,-220.53 -56.57,40.89 -53.71,26.65 -71.56,39.01 -28.31,19.61 -10.7,40.73 -52.9,57.91 -51.37,20.93 -32.06,-5.19 -70.46,38.94 -33.02,37.94 -38.3,13.63 -64.32,35.4 48.07,49.39 85.67,88.86 145.4,136.65 39.69,31.75 137.87,88.65 152.79,131.35 -14.09,3.48 -12.03,0.77 -25.66,5.37 -2.09,0.7 -4.27,1.6 -6.15,2.33 -1.89,0.74 -4.48,2.25 -6,2.91l13.5 47.01c-14.38,28.3 -9.88,12.02 -31.34,35.76l3.16 60.62c-23.16,-6.15 -41.03,-18.9 -57.26,-22.61 -40.49,-9.26 -15.98,9.08 -55.1,4.36 -70.38,-8.5 -123.94,-213.56 -164.65,-278.23 -224.44,38.58 -456.05,166.47 -548.61,-213 -19.77,-81.05 -34.19,-233.86 -47.25,-264.23l-90.83 -4.96c29.27,-44.13 71.5,-34.16 95.27,-58.97 18.46,-19.28 26.76,-75.14 57.79,-104.27 62.87,-59.01 139.02,52.17 190.93,73.36z"/>
    <path class="fil3" d="M15736.38 16507.37l63.55 4.05c6.23,224.22 -46.81,449.9 101.7,474.99 47.81,8.07 113.91,-0.71 144.14,-23.71l-11.44 -118.11c-32.98,11.43 -72.5,33.62 -89.7,-16.4 -0.12,-0.34 -4.71,-18.61 -4.89,-19.73 -2.35,-14.71 -1.98,-24.41 -2.2,-39.13l-0.21 -261.37 97.3 0.17 -0.09 -126.41 -96.82 -0.09 0.24 -205.31c-22.1,9.64 -122.63,73.71 -137.51,95.85l-0.11 107.88 -64.77 1.58 0.81 125.74z"/>
    <path class="fil4" d="M15728.91 16398.47c-99.46,-68.13 -161.12,-12.49 -205.69,63.53l-1.34 -80.42 -128.11 0.25 1.6 596.35 132.62 -0.46c17.16,-146.83 -21.04,-389.57 52.38,-452.6 37.18,-31.91 76.21,-6.59 111.58,7.99l36.96 -134.64z"/>
    <path class="fil5" d="M13859.84 17349.51c27.16,-82.9 57.46,-178.03 79.77,-258.76l0.91 259.08 68.12 -0.02 -1.02 -344.96 -98.5 1.09 -73.99 241.11c-5.87,-15.18 -11.32,-40.08 -17.53,-60.28 -7.36,-23.98 -12.46,-39.51 -19.38,-62.23 -11.67,-38.3 -24.57,-80.47 -35.69,-119.31l-99.85 0.43 1.09 344.09 61.18 0.49 2.13 -244.43c25.51,69.18 50.34,186.16 78.94,244.19l53.82 -0.49z"/>
    <path class="fil5" d="M15120.61 17118.08c29.13,60.19 107.03,172.66 131.95,232.61l71.51 -4.62 -0.68 -339.31 -63.66 -0.95 -2.36 223.53c-38.27,-49.24 -97.94,-162.46 -132.03,-224.13l-74.1 0.8 0.51 344.11 64.98 -2.79 3.88 -229.25z"/>
    <path class="fil5" d="M14694.22 17216.18c1.56,31.04 9.3,56.11 -12.22,70.06 -23.93,15.51 -118.51,2.1 -113.29,-112.26 2.1,-46.13 27.99,-89.18 59.47,-100.66 47.5,-17.32 87.93,3.61 123.53,14.03l-0.37 -71.83c-73.5,-13.53 -123.45,-26.42 -183.67,14.89 -140.99,96.73 -76.61,418.42 193.05,300.25l0.03 -174.78 -127.18 0.59 0.59 58.67 60.06 1.04z"/>
    <path class="fil5" d="M15528.55 17005.28c-6,161.73 -34.71,357.07 125.39,350.99 152.49,-5.79 127.89,-185.33 121.46,-351.13l-68.13 0.06c-3.31,85.01 30.48,289.03 -58.85,282.91 -77.59,-5.32 -49.65,-148.34 -54.26,-282.82l-65.61 -0.01z"/>
    <path class="fil6" d="M14158.1 17212.5c1.96,-56.03 27.24,-87.5 32.24,-141.46l34.15 142.13 -66.39 -0.67zm-22.28 62.21l109.51 0.18 22.12 74.9 71.17 -0.16c-4.54,-33.04 -89.76,-309.8 -106.9,-343.64l-74.52 -0.94c-21.56,31.47 -110.02,330.48 -112.37,344.86l70.91 -0.15 20.08 -75.05z"/>
    <path class="fil6" d="M13495.39 17349.47c-12.68,-24.41 -103.73,-161.24 -106.24,-173.04 -5.7,-26.85 81.48,-132.69 96.73,-170.63l-80.75 0.09c-16.45,36.27 -66.82,121.6 -90.44,147.56l-1.51 -147.66 -64.96 -0.42 0.15 345.36 64.79 -3.91 3.02 -154.45c32.45,52.09 64.47,104.26 94.52,157.5l84.69 -0.4z"/>
    <path class="fil7" d="M15900.73 17079.33c28.6,-26.64 81.59,-13.6 118.26,2.88 1.3,-39.12 11.43,-63.29 -16.25,-75.44 -9.84,-4.32 -153.63,-26.44 -174.2,69.19 -31.68,147.28 154.99,112.06 125.84,199.98 -35.73,37.97 -100.5,6.17 -128.25,-16.52l2.42 79.12c79.22,24.37 197.06,31.27 205.65,-73.42 10.77,-131.16 -127.79,-86.81 -133.47,-185.79z"/>
    <path class="fil5" d="M14888.38 17070.08l108.35 -2.07 0.02 -62.43 -174.27 2.18 0.32 341.44 182.98 -0.9 -1.15 -64.58 -116.25 -2.03 0.21 -73.5 101.12 -3.57 0.58 -56.34 -101.5 -3.27 -0.41 -74.93z"/>
    <path class="fil5" d="M14962.63 15801.26c18.31,54.42 57.34,181.76 81.12,223.42 68.39,-7.89 140.84,-37.9 149.32,-106.03 -45.31,2.58 -61.51,27.12 -101.58,2.71 57.95,-25.86 131.81,-42.31 144.49,-110.05l-273.35 -10.05z"/>
    <path class="fil6" d="M14962.63 15801.26l-146.26 -412.13 -21.75 83.49 27.72 -0.35c-7.84,52.95 -33.52,90.07 -53.27,125.91l56.2 -29.28c8.59,81.4 -14.46,64.45 -21.19,114.37 -14.24,105.66 -2.58,31.78 -29.12,108.92l187.67 9.07z"/>
    <path class="fil8" d="M15148.05 17706.5c22.59,30.45 -7.61,11.38 22.35,33.71 1.22,-2.08 2.09,-8.28 2.64,-6.88 11.1,28.81 -16.52,-47.91 51.08,-24.21 23.86,8.37 45.65,28.28 53.21,51.22 19.86,60.3 -21.21,111.98 -64.58,126.65 -99.94,33.8 -227.33,-89.46 -64.7,-180.49zm43.78 -237.54c11.23,38.59 4.81,4.24 29.6,33.93 25.62,30.69 20.34,86.31 -28.68,117.32 -0.98,-1.93 -1.35,-4.91 -1.74,-6.37l-4.99 -19.49c-5.8,-20.99 5.95,-3.66 -8.17,-25.17 -22.83,15.21 -2.99,-9.87 -18.37,37.44 -0.45,1.39 -1.66,7.45 -1.98,6.25 -0.31,-1.2 -0.94,4.35 -2,6.2 -28.32,-22.06 -38.26,-49.24 -24.26,-94.16 12.63,-40.51 28.5,-37.01 60.59,-55.95zm0 0c-6.8,-19.07 9.06,-20.42 -25.65,-15.66 -24.96,3.41 -52.43,36.53 -61.01,76.16 -21.36,98.8 39.29,94.62 52.74,132.01 -18.15,43.2 -115.27,28.07 -107.07,150.99 9.94,149.07 254.19,143.39 253.99,-24.68 -0.13,-111.5 -93.08,-92.95 -123.5,-117.89 18.08,-46.75 5.28,-7.67 43.16,-39.66 56.63,-47.81 43.53,-179.04 -32.66,-161.27z"/>
    <path class="fil9" d="M15148.05 17706.5c-162.63,91.03 -35.24,214.29 64.7,180.49 43.37,-14.67 84.44,-66.35 64.58,-126.65 -7.56,-22.94 -29.35,-42.85 -53.21,-51.22 -67.6,-23.7 -39.98,53.02 -51.08,24.21 -0.55,-1.4 -1.42,4.8 -2.64,6.88 -29.96,-22.33 0.24,-3.26 -22.35,-33.71z"/>
    <path class="fil6" d="M14448.04 17088.91c10.56,-33.36 -4.61,-9.4 26.37,-25.26l0.04 -57.6 -118.59 -0.62c-3.95,103.83 14.14,31.63 21.7,83.48l-0.43 193.66c-31.87,25.62 -24.29,-1.74 -23.92,66.7l121.32 -2.67c-0.24,-56.26 6.04,-39.89 -26.3,-64.03l-0.19 -193.66z"/>
    <path class="fil5" d="M13606.58 17071.07c13.94,-16.45 0.16,9.97 10.52,-12.6 6.86,-14.95 3.64,-33.61 3.01,-53.21l-118.3 0.86c-2.79,57.06 2.39,47.94 10.03,61.69 11.11,20.01 5.14,-17.48 12.46,29.13l-0.28 177.21c-6.99,36.26 -21.3,-17.21 -23.93,76.03l120.56 0.47c1.72,-76.14 7.25,-42.89 -28.37,-68.08l-0.37 -193.66c7.32,-23.97 4.03,-5.28 14.67,-17.84z"/>
    <path class="fil5" d="M15471.74 17287.29c-28.4,-45.47 5.88,33.42 -9.81,-13.14l-0.32 -159.98c0.4,-87.84 25.83,1.33 21.23,-109.08l-112.39 0.16c-3.76,108 16.55,28.88 22.58,92.08l-0.29 176.82c-15.29,42.91 21.25,-34.36 -10.01,13.28 -9.75,14.86 -2.41,-3.25 -9.11,15.38 -6.3,17.49 -3.74,27.42 -3.7,47.36l113.07 -0.43c2,-37.25 4.2,-37.71 -11.25,-62.45z"/>
    <path class="fil8" d="M15848.35 17634.54c-33.15,-56.44 18.51,-139.9 0,-173.29 -30.8,13.32 -51.06,137.09 -13.64,198.93 86.25,8.46 92.66,-49.46 123.23,-115.59 29.87,72.03 3.22,241.49 -20.34,293.69 -15.73,34.84 -48.86,65.77 -86.92,48.69 -61.83,-27.73 -25.55,-79.52 -61.93,-98.12 -43.33,80.66 108.56,220 175.96,46.22 32.95,-84.96 38.81,-321.39 2.84,-372.29 -26.68,15.78 -17.71,40.94 -46.11,104.45 -18.21,40.74 -25.54,68.25 -73.09,67.31z"/>
    <path class="fil9" d="M14864.23 17585.81l157.37 10.53c-4.61,-61.51 -38.14,-181.36 -81.17,-197.32 -56.25,-20.88 -73.43,124.4 -76.2,186.79z"/>
    <path class="fil8" d="M14864.23 17585.81c2.77,-62.39 19.95,-207.67 76.2,-186.79 43.03,15.96 76.56,135.81 81.17,197.32l-157.37 -10.53zm209.24 13.93c-51.76,-15.26 -13.85,-1.28 -55.91,-127.02 -13.16,-39.33 -34.86,-91.93 -74.79,-102.1 -74.5,-18.98 -89.62,114.59 -97.5,168.28 -10.91,74.37 0.22,12.7 -30.54,55.25 23.76,25.56 12.33,-2.67 22.43,34.46 5.24,19.28 0.03,26.03 12.89,39.47 18.44,-22.12 11.96,-15.61 13.12,-56.44 37.84,-1.04 72.26,5.71 114.14,7.31 88.32,3.39 26.67,16.5 66.44,50.98 6.83,-10.05 1.68,-3.57 6.95,-18.79l22.77 -51.4z"/>
    <path class="fil10" d="M15442.55 17581.4c-33.11,6.11 -40,80.46 -99.57,47.23 -23.31,-15.93 -29.71,-28.38 -26.87,-74.81l115.78 -9.24c-2.43,-32.37 -8.91,-47.44 -26.4,-64.76 -60,-59.46 -86.03,22.57 -128.16,49.07 -1.11,0.71 -4.41,4.83 -5.24,3.1 -0.84,-1.75 -3.71,1.8 -5.29,3.18 20.94,57.32 -22.83,-41.25 13.22,18.9 16.72,27.9 8.66,33.16 16.65,57.28 30.75,92.89 160.82,49.01 145.88,-29.95z"/>
    <path class="fil4" d="M15484.02 17660.21c18.46,-7.73 5.7,3.99 14.84,-15.44 0.67,-1.41 5.22,-22.81 5.83,-26.68 28.73,-182.1 87.4,-151.61 96.11,-56.66 9.86,107.48 -25.25,71.64 9.15,100.09 30.76,-34.45 15.16,-144.97 -6.58,-178.12 -13.05,-19.9 -38.23,-33.82 -67.32,-15.31 -30.7,19.53 -15.39,44.02 -41.25,45.02 -6.21,-24.29 -1.13,-21.88 -4.01,-45.43 -5.14,-42.01 9.84,-12.63 -13.84,-31.79 -18.68,32.4 -5.59,68.45 -3.1,108.3 2.62,42.15 -4.5,88.19 10.17,116.02z"/>
    <path class="fil11" d="M15773.73 17594c-6.67,4.73 -5.3,6.48 -10.39,12.81 -31.75,39.49 -71.22,55.28 -91.12,0.88 -22.59,-61.75 8.46,-130.4 60.27,-126.63 20.04,25.34 3.99,4.36 13.64,34.12 13.1,40.45 -5.81,17.37 22.97,29.38 34.45,-120.68 -127.48,-123.63 -128.06,24.32 -0.62,157.11 161.89,95.87 150.01,22.63l-17.32 2.49z"/>
    <path class="fil12" d="M15191.83 17468.96c-32.09,18.94 -47.96,15.44 -60.59,55.95 -14,44.92 -4.06,72.1 24.26,94.16 1.06,-1.85 1.69,-7.4 2,-6.2 0.32,1.2 1.53,-4.86 1.98,-6.25 15.38,-47.31 -4.46,-22.23 18.37,-37.44 14.12,21.51 2.37,4.18 8.17,25.17l4.99 19.49c0.39,1.46 0.76,4.44 1.74,6.37 49.02,-31.01 54.3,-86.63 28.68,-117.32 -24.79,-29.69 -18.37,4.66 -29.6,-33.93z"/>
    <path class="fil13" d="M14158.1 17212.5l66.39 0.67 -34.15 -142.13c-5,53.96 -30.28,85.43 -32.24,141.46z"/>
   </g>
  </g>
 </g>
</svg>
