<?xml version="1.0" encoding="UTF-8"?>
<!DOCTYPE svg PUBLIC "-//W3C//DTD SVG 1.1//EN" "http://www.w3.org/Graphics/SVG/1.1/DTD/svg11.dtd">
<!-- Creator: CorelDRAW 2019 (64-Bit Evaluation Version) -->
<svg xmlns="http://www.w3.org/2000/svg" xml:space="preserve" width="297mm" height="100mm" version="1.1" style="shape-rendering:geometricPrecision; text-rendering:geometricPrecision; image-rendering:optimizeQuality; fill-rule:evenodd; clip-rule:evenodd"
viewBox="0 0 29700 10000"
 xmlns:xlink="http://www.w3.org/1999/xlink"
 xmlns:xodm="http://www.corel.com/coreldraw/odm/2003">
 <defs>
  <style type="text/css">
   <![CDATA[
    .fil0 {fill:#3E2D44}
    .fil1 {fill:#ED3237}
    .fil2 {fill:#FFF212}
    .fil3 {fill:#282829;fill-rule:nonzero}
    .fil4 {fill:#ED3237;fill-rule:nonzero}
   ]]>
  </style>
 </defs>
 <g id="Layer_x0020_1">
  <metadata id="CorelCorpID_0Corel-Layer"/>
  <g id="_2105204018400">
   <path class="fil0" d="M6455.75 7360.92l-119.8 103.89 933.63 1369.93 130.44 -88.3 -944.27 -1385.52z"/>
   <path class="fil0" d="M13221.82 5679.98l78.94 -1.3c164.23,-2.2 380.36,-5.13 380.17,-30.2l-1.4 -164.5c-0.02,-4.27 -33.11,-0.56 -79.22,-10.4 -37.68,-8.01 -81.14,-13.42 -124.97,-14.89 -43.87,-1.47 -88.22,0.88 -127.77,8.26 -62.01,11.56 -110.3,34.35 -113.6,72.62l-12.15 140.41z"/>
   <path class="fil0" d="M13826.52 5169.74l0 0.24c39.56,39.62 63.77,88.51 59.1,145.53l-20.75 252.13c-15.2,184.53 -134.98,281.92 -314.2,335.38 -150.58,44.9 -343.6,57.16 -549.83,66.65l-8.76 101.03c-5.81,67.31 47.73,96.18 115.51,102.04 35.65,3.08 74.62,0.65 112.78,-5.74 38.59,-6.45 157.5,17.64 190.54,4.6 85.58,-31.57 90.75,-65.36 18.5,-137.15 48.99,-41.17 91.94,-52.41 163.53,-71.03 46.56,-12.1 107.24,-27.92 194.57,-60.23l78.16 -28.93 -1.73 83.54c-3.96,190.82 -37.38,321.3 -106.74,409.87 -72.27,92.25 -145.77,172.8 -324.81,173.12l-580.94 6.06c-215.23,-0.47 -479.54,-136.6 -447.11,-356.29l118.62 -804.01c31.02,-210.21 168.69,-306.03 377.23,-306.57l717.69 -1.87c102.95,0.6 162.99,45.98 208.64,91.63z"/>
   <path class="fil0" d="M12187.6 6093.45c7.51,363.41 -181.84,453.47 -286.54,452.37l-341.27 -3.63c-42.72,-6.87 -102.16,-40.78 -142.82,-145.2 -52.7,77.75 -156.74,146.2 -227.29,149.18l-183.68 -1.17c-294.64,0.63 -388.57,-246.37 -380.6,-464.59l102.04 -965.66 523.57 -332.48 -157.27 1302.64c1.87,19.93 5.79,32.87 11.16,40.31 2.01,2.81 5.05,4.16 8.53,4.46 9.84,0.74 22.47,-2.65 35.92,-8.63 34.51,-15.25 68.65,-44.26 87.76,-70.61l340.64 -534.03 4.01 187.34c1.57,232.92 104.58,396.24 240.96,356.84l-116.58 -976.17 532.86 -1.59 -51.4 1010.62z"/>
   <path class="fil0" d="M15010.27 5079.31l-42.9 1610.16c-13.44,314.56 -170.23,474.83 -400.31,505.38l-237.45 16.19c-241.73,27.32 -633.47,-116.12 -638.74,-672.65l551.35 0.07c6.19,328.56 149,167.61 137.92,15.99l1.77 -1474.03 628.36 -1.11z"/>
   <path class="fil0" d="M14434.97 4308.58l577.22 -28.27 0 563.35 -646.75 31.69 0 -563.36 69.53 -3.41z"/>
   <path class="fil0" d="M15791.81 5921.13l-31.2 6.87c-38.58,8.26 -87.71,17.85 -147.25,28.7 -52.9,9.72 -97.7,19.59 -134.14,29.5 -32.32,8.78 -55.04,16.86 -67.95,24.09 -17.91,11.21 -31.09,23.14 -39.36,35.84 -6.97,10.53 -10.46,22.49 -10.46,35.72 0,30.75 14.22,57.69 42.59,81.29 15.31,12.76 33.04,22.47 53.06,29.02 20.88,6.84 44.73,10.29 71.46,10.29 31.3,0 61.57,-4.3 90.69,-12.82 29.32,-8.57 58.4,-21.64 87.05,-39.05 19.46,-12.57 35.5,-26.17 47.85,-40.77 11.46,-13.56 19.87,-28.06 25.1,-43.54l0.21 -0.67c3.69,-10.52 6.7,-27.47 8.86,-50.66 2.21,-23.77 3.4,-55.06 3.49,-93.81z"/>
   <path class="fil0" d="M15309.39 5644.86l47.3 -294.74c0,0 6.18,-235.34 352.22,-269.75l525.59 -3.28c308.39,26.3 413.61,297.9 413.61,564.53l-29.68 540.7 170.19 334.18 -1305.63 11.06c-159.02,2.63 -298.24,-128.07 -262.76,-327.14l38.7 -217.25c48.98,-274.91 643.12,-322.84 877.7,-399.78 -1.64,-71.11 -23.08,-98.6 -94.72,-112.61l-207.28 -1.63c-77.23,16.89 -81.47,25.66 -100.66,72.81l-424.58 102.9z"/>
   <path class="fil0" d="M16998.5 5455.2c-113.2,-187.97 -104.26,-212.42 -268.97,-369.53l634.8 3.82 41.03 222.72c110.67,-93.31 174.68,-211.97 507.89,-235.72l257.45 -1.89 -212.08 420.61c-408.95,149.35 -453.35,104.14 -443.78,390.2l22.4 669.27 -505.12 0.56 -33.62 -1100.04z"/>
   <path class="fil0" d="M9469.12 3580.9l1071.19 -3.19 14.4 5.82c236.45,96.69 518.1,314.55 483.52,732.53l-30.22 364.83c-2.62,258.51 -286.33,413.01 -530.75,414.15l-609.23 -0.79c-141.05,0.68 -244.62,60.92 -243.72,246.98l7.65 1531.9 -697.23 -481.03 -7.11 -1263.29c-0.87,-159.16 54.55,-300.9 147.72,-414.68 96.97,-118.42 234.96,-206.37 392.38,-251.6l962.36 -20.51c81.16,-50.58 73.86,-139.09 -3,-185.65l-1647.54 6.43 689.58 -681.9z"/>
   <path class="fil0" d="M3212.76 6066.78l192.48 319.52c2596.43,2156.96 1350.3,1964.74 3930.33,87.83l215.78 -407.35c180.88,202.93 180.88,534.98 0,737.91l-1840.42 2064.74c-180.88,202.93 -476.86,202.93 -657.73,0l-1840.44 -2064.74c-180.88,-202.93 -180.88,-534.98 0,-737.91z"/>
   <path class="fil0" d="M5379.47 4272.49c900.34,0 1624.4,910.73 1624.4,1744.97 0,834.25 -1630.2,1754.97 -1630.2,1754.97 0,0 -1630.18,-920.72 -1630.18,-1754.97 0,-834.24 735.64,-1744.97 1635.98,-1744.97z"/>
   <path class="fil0" d="M4314.95 4499.4l-801.64 -1176.25 -29.63 -6.66 -101.99 -120.73 -535.7 -264.46 -78.59 -850.67 760.56 389.08 27.61 556.29 105.23 170.99 -14.02 42.33 787.46 1155.43 -119.29 104.65z"/>
   <path class="fil1" d="M5627.49 4683.83c338.04,185.7 672.36,482.3 821.96,850.61 -0.68,-25.89 -2.48,-50.96 -5.64,-74.98 -93.58,-709.93 -502.69,-943.08 -579.01,-1012.93 713.76,392.11 1411.28,1278.43 387.76,2290.96 -33.49,33.13 -57.68,52.36 -74.35,59.94 -48.66,58.64 -102.71,117.77 -162.95,177.36 -338.85,335.21 263.15,-732.59 191.24,-1278.03 -93.57,-709.93 -502.68,-943.08 -579.01,-1012.93z"/>
   <path class="fil2" d="M5682.52 5509.8c218.53,120.05 434.65,311.78 531.37,549.88 -0.45,-16.73 -1.61,-32.94 -3.66,-48.47 -60.49,-458.94 -324.96,-609.65 -374.29,-654.81 461.41,253.47 912.32,826.45 250.66,1481 -21.65,21.42 -37.28,33.84 -48.06,38.75 -31.45,37.9 -66.4,76.13 -105.34,114.65 -219.06,216.7 170.11,-473.58 123.63,-826.19 -60.49,-458.94 -324.96,-609.65 -374.31,-654.81z"/>
   <path class="fil1" d="M5143.12 4849.89c-338.04,185.7 -672.35,482.3 -821.95,850.61 0.69,-25.89 2.48,-50.96 5.65,-74.98 93.57,-709.93 502.69,-943.08 579,-1012.92 -713.77,392.11 -1411.28,1278.42 -387.75,2290.95 33.49,33.13 57.67,52.37 74.33,59.94 48.67,58.64 102.73,117.77 162.97,177.36 338.84,335.21 -263.15,-732.59 -191.25,-1278.03 93.57,-709.92 502.69,-943.08 579,-1012.93z"/>
   <path class="fil2" d="M5055.83 5618.89c-218.53,120.04 -434.64,311.79 -531.35,549.87 0.44,-16.73 1.6,-32.94 3.65,-48.46 60.49,-458.95 324.96,-609.66 374.3,-654.82 -461.41,253.48 -912.33,826.45 -250.67,1481 21.64,21.42 37.28,33.86 48.05,38.76 31.46,37.9 66.41,76.12 105.35,114.65 219.05,216.7 -170.11,-473.59 -123.63,-826.19 60.49,-458.94 324.96,-609.66 374.3,-654.81z"/>
   <path class="fil3" d="M18083.19 6533.62l0 -193.04 234.71 0 0 193.04 -234.71 0zm996.18 -587.34l212.9 0 -146.02 587.34 -230.64 0 -83.24 -346.05 -84.61 346.05 -230.61 0 -137.83 -587.34 215.62 0 50.48 370.77 88.71 -370.77 203.33 0 79.14 368.41 62.77 -368.41zm461.26 0l166.5 0c133.73,0 200.58,48.66 200.58,145.95l0 200.1 -347.97 0 0 77.69c0,17.26 11.36,25.88 34.12,25.88l60.04 0c22.73,0 34.11,-9.41 34.11,-28.25l0 -32.95 219.7 0 0 52.96c0,97.3 -66.85,145.96 -200.58,145.96l-166.5 0c-133.73,0 -200.61,-48.66 -200.61,-145.96l0 -295.43c0,-97.29 66.88,-145.95 200.61,-145.95zm19.11 237.76l128.27 0 0 -74.15c0,-17.27 -11.38,-25.89 -34.11,-25.89l-60.04 0c-22.76,0 -34.12,8.62 -34.12,25.89l0 74.15zm788.75 -237.76l24.59 0c120.99,0 181.48,48.66 181.48,145.95l0 295.43c0,97.3 -60.49,145.96 -181.48,145.96l-24.59 0c-70.04,0 -111.44,-25.11 -124.18,-75.33l0 75.33 -227.89 0 0 -787.43 231.99 0 0 263.66c17.28,-42.39 57.32,-63.57 120.08,-63.57zm-25.92 414.31l0 -241.29c0,-17.26 -11.37,-25.89 -34.11,-25.89l-23.19 0c-24.57,0 -36.86,11.77 -36.86,35.3l0 222.47c0,23.53 12.29,35.31 36.86,35.31l23.19 0c22.74,0 34.11,-8.64 34.11,-25.9zm327.51 173.03l0 -193.04 234.72 0 0 193.04 -234.72 0zm660.49 -587.34l227.89 0 0 587.34 -231.99 0 0 -63.57c-17.29,42.38 -57.32,63.57 -120.08,63.57l-24.56 0c-121.02,0 -181.51,-48.66 -181.51,-145.96l0 -295.43c0,-97.29 60.49,-145.95 181.51,-145.95l24.56 0c70.04,0 111.44,25.11 124.18,75.33l0 -75.33zm-64.14 440.21l23.21 0c24.56,0 36.83,-11.78 36.83,-35.31l0 -222.47c0,-23.53 -12.27,-35.3 -36.83,-35.3l-23.21 0c-22.75,0 -34.12,8.63 -34.12,25.89l0 241.29c0,17.26 11.37,25.9 34.12,25.9zm753.27 -440.21l24.57 0c121,0 181.5,48.66 181.5,145.95l0 295.43c0,97.3 -60.5,145.96 -181.5,145.96l-24.57 0c-62.78,0 -102.8,-21.19 -120.08,-63.57l0 215.4 -231.99 0 0 -739.17 227.89 0 0 75.33c12.74,-50.22 54.13,-75.33 124.18,-75.33zm-25.92 414.31l0 -241.29c0,-17.26 -11.37,-25.89 -34.12,-25.89l-23.2 0c-24.55,0 -36.84,11.77 -36.84,35.3l0 222.47c0,23.53 12.29,35.31 36.84,35.31l23.2 0c22.75,0 34.12,-8.64 34.12,-25.9zm679.58 -414.31l24.57 0c121,0 181.5,48.66 181.5,145.95l0 295.43c0,97.3 -60.5,145.96 -181.5,145.96l-24.57 0c-62.77,0 -102.79,-21.19 -120.08,-63.57l0 215.4 -231.99 0 0 -739.17 227.89 0 0 75.33c12.74,-50.22 54.13,-75.33 124.18,-75.33zm-25.93 414.31l0 -241.29c0,-17.26 -11.37,-25.89 -34.11,-25.89l-23.19 0c-24.56,0 -36.85,11.77 -36.85,35.3l0 222.47c0,23.53 12.29,35.31 36.85,35.31l23.19 0c22.74,0 34.11,-8.64 34.11,-25.9z"/>
   <path class="fil0" d="M7075.4 3292.46c238.91,-81.66 356.44,-95.91 403.01,-95.84 -25.75,-8.55 -67.24,-32.27 -105.29,-91.44 -86.34,-134.32 -451.38,-73.29 -273.84,-136.82 624.3,-223.4 -21.84,-113.5 85.16,-213.84 469.89,-440.68 368.87,-207.81 -46.17,-373.72 465.07,-391.51 -101.83,-96.2 -314.07,-321.34 471.86,-844.98 -450.12,-323.87 -212.56,-696.7 217.37,-341.15 -527.4,124.08 -533.82,-46.25 -9.04,-240.38 368.72,-300.45 148.49,-333.93 -361.58,-54.96 -927.35,666.26 -1098.94,905.7 -221.33,308.82 -349.76,185.63 -424.59,571.41 -79.08,407.43 -246.79,392.39 -244.89,595.29 1.26,133.53 -68.18,46.82 -51.76,162 177.74,102.92 -37.22,99.79 101.76,126.76 141.71,27.49 -164.1,486.6 490.79,176.91l40.26 -32.18c-8.4,129.59 108.73,397.05 189.35,652.21 52.36,-6.25 105.43,-9.49 159.07,-9.49 452.33,0 860.18,229.89 1154.06,564.45 55.55,-74.59 67.34,-167.52 14.42,-278.86 -128.41,-14.54 -412.69,-388.27 -456.67,-462.41 -198.57,-334.66 -610.19,-493.94 -282.28,-415 254.9,61.38 1209.86,-72.39 1273.74,-96.92 595.75,-228.7 -340.81,-38.67 -15.23,-149.99z"/>
   <g>
    <path class="fil4" d="M15743.77 7421.68c8.19,0 14.65,3.79 19.37,11.35 4.73,7.56 7.09,17.96 7.09,31.19 0,25.21 -5.99,44.75 -17.96,58.61 -23.31,28.35 -56.24,54.51 -98.77,78.46 -42.54,23.95 -88.07,35.92 -136.6,35.92 -66.17,0 -117.54,-17.96 -154.08,-53.88 -36.56,-35.92 -54.83,-85.08 -54.83,-147.47 0,-43.48 9.14,-83.97 27.41,-121.46 18.28,-37.5 43.64,-67.28 76.1,-89.34 32.46,-22.06 69.16,-33.08 110.12,-33.08 36.56,0 65.86,10.87 87.92,32.6 22.05,21.75 33.09,51.21 33.09,88.39 0,43.49 -15.6,80.83 -46.8,112.02 -31.19,31.2 -83.97,55.93 -158.34,74.2 15.76,29 45.7,43.5 89.8,43.5 28.36,0 60.67,-9.93 96.9,-29.79 36.23,-19.84 67.59,-45.84 94.06,-77.99 7.56,-8.82 16.06,-13.23 25.52,-13.23zm-238.21 -137.07c-23.32,0 -43.02,13.55 -59.09,40.66 -16.06,27.09 -24.1,59.86 -24.1,98.31l0 1.89c37.18,-8.83 66.48,-22.06 87.91,-39.71 21.43,-17.65 32.14,-38.12 32.14,-61.44 0,-11.97 -3.3,-21.59 -9.93,-28.83 -6.61,-7.25 -15.59,-10.88 -26.93,-10.88zm660.76 60.51c1.89,-0.63 5.04,-0.95 9.45,-0.95 9.46,0 16.7,3.15 21.75,9.46 5.03,6.3 7.56,14.81 7.56,25.52 0,19.53 -3.79,34.82 -11.35,45.84 -7.56,11.04 -18.9,19.06 -34.03,24.11 -28.99,9.45 -59.87,14.17 -92.64,14.17 -27.72,0 -53.88,-3.77 -78.46,-11.33 -18.27,29.62 -38.43,60.18 -60.49,91.68 -25.21,35.92 -46.96,60.51 -65.23,73.74 -18.27,13.24 -39.07,19.85 -62.39,19.85 -25.83,0 -46.16,-10.09 -60.97,-30.25 -14.81,-20.17 -24.11,-51.99 -27.89,-95.47 -7.56,-88.24 -11.34,-165.42 -11.34,-231.6l0 -33.08c0.63,-20.8 6.3,-35.3 17.01,-43.48 10.71,-8.2 26.79,-12.3 48.22,-12.3 16.38,0 28.51,3.62 36.39,10.87 7.88,7.25 11.81,19.38 11.81,36.39 0,72.48 4.42,166.69 13.24,282.65 37.81,-56.09 66.16,-100.84 85.07,-134.23 -9.44,-18.27 -14.18,-40.02 -14.18,-65.23 0,-21.42 4.74,-42.22 14.18,-62.39 9.45,-20.16 22.38,-36.54 38.76,-49.15 16.39,-12.6 34.98,-18.91 55.77,-18.91 18.28,0 33.09,6.46 44.43,19.38 11.35,12.92 17.02,31.67 17.02,56.24 0,28.36 -7.56,60.82 -22.68,97.38 23.94,-1.27 55.76,-5.99 95.47,-14.19l25.52 -4.72zm378.12 76.56c8.18,0 14.65,3.79 19.37,11.35 4.72,7.56 7.09,17.96 7.09,31.19 0,25.21 -5.99,44.75 -17.96,58.61 -23.31,28.35 -56.25,54.51 -98.78,78.46 -42.54,23.95 -88.07,35.92 -136.6,35.92 -66.17,0 -117.53,-17.96 -154.08,-53.88 -36.55,-35.92 -54.83,-85.08 -54.83,-147.47 0,-43.48 9.14,-83.97 27.41,-121.46 18.29,-37.5 43.65,-67.28 76.1,-89.34 32.46,-22.06 69.17,-33.08 110.12,-33.08 36.56,0 65.87,10.87 87.93,32.6 22.04,21.75 33.08,51.21 33.08,88.39 0,43.49 -15.6,80.83 -46.79,112.02 -31.2,31.2 -83.98,55.93 -158.34,74.2 15.76,29 45.69,43.5 89.8,43.5 28.36,0 60.66,-9.93 96.9,-29.79 36.23,-19.84 67.59,-45.84 94.06,-77.99 7.56,-8.82 16.06,-13.23 25.52,-13.23zm-238.22 -137.07c-23.32,0 -43.01,13.55 -59.09,40.66 -16.06,27.09 -24.09,59.86 -24.09,98.31l0 1.89c37.18,-8.83 66.47,-22.06 87.91,-39.71 21.42,-17.65 32.13,-38.12 32.13,-61.44 0,-11.97 -3.3,-21.59 -9.92,-28.83 -6.61,-7.25 -15.6,-10.88 -26.94,-10.88zm255.24 352.6c-23.96,0 -40.81,-12.6 -50.58,-37.81 -9.76,-25.21 -14.65,-65.54 -14.65,-121 0,-81.93 11.66,-159.76 34.97,-233.48 5.68,-18.29 14.97,-31.67 27.89,-40.18 12.92,-8.51 31.04,-12.76 54.35,-12.76 12.61,0 21.43,1.57 26.47,4.72 5.05,3.15 7.56,9.14 7.56,17.96 0,10.09 -4.72,32.77 -14.17,68.07 -6.3,25.2 -11.35,47.26 -15.12,66.16 -3.79,18.91 -6.94,42.23 -9.46,69.95 20.79,-54.19 44.11,-98.31 69.95,-132.33 25.84,-34.03 51.2,-58.3 76.1,-72.79 24.89,-14.49 47.73,-21.74 68.52,-21.74 40.97,0 61.46,20.48 61.46,61.44 0,8.2 -2.84,28.04 -8.51,59.55 -5.04,25.21 -7.56,40.97 -7.56,47.27 0,22.06 7.87,33.08 23.63,33.08 17.65,0 40.33,-13.86 68.06,-41.59 8.19,-8.19 16.7,-12.29 25.52,-12.29 8.19,0 14.65,3.63 19.38,10.88 4.72,7.24 7.08,16.85 7.08,28.83 0,23.31 -6.3,41.59 -18.89,54.83 -17.65,18.27 -38.29,33.87 -61.92,46.79 -23.63,12.91 -48.69,19.37 -75.15,19.37 -33.41,0 -58.77,-8.51 -76.1,-25.52 -17.34,-17.01 -26,-40.02 -26,-69 0,-9.46 0.95,-18.91 2.84,-28.36 1.26,-12.61 1.89,-21.12 1.89,-25.53 0,-10.08 -3.46,-15.13 -10.4,-15.13 -9.45,0 -21.9,10.57 -37.33,31.67 -15.45,21.11 -30.72,49 -45.86,83.67 -15.12,34.65 -27.41,71.21 -36.86,109.64 -6.93,29.62 -14.97,49.63 -24.1,60.03 -9.14,10.4 -23.48,15.6 -43.01,15.6zm846.98 -213.63c8.19,0 14.65,3.94 19.37,11.81 4.73,7.87 7.09,17.81 7.09,29.78 0,14.49 -2.2,25.84 -6.61,34.02 -4.41,8.2 -11.35,15.45 -20.8,21.75l-181.49 121.94c-23.95,130.46 -55.31,233.02 -94.07,307.68 -38.75,74.68 -88.06,112.02 -147.93,112.02 -32.14,0 -58.3,-9.92 -78.46,-29.78 -20.17,-19.85 -30.25,-45.85 -30.25,-77.98 0,-29.61 6.78,-59.86 20.33,-90.73 13.55,-30.89 38.76,-66.33 75.61,-106.35 36.87,-40.02 89.03,-85.87 156.46,-137.54l2.83 -21.75c4.41,-23.32 9.45,-56.71 15.13,-100.2 -12.6,45.37 -30.25,79.88 -52.93,103.51 -22.7,23.64 -46.65,35.45 -71.86,35.45 -28.35,0 -51.51,-13.07 -69.47,-39.23 -17.96,-26.15 -26.95,-58.77 -26.95,-97.84 0,-47.27 3.16,-90.58 9.46,-129.98 6.3,-39.38 16.7,-81.14 31.2,-125.24 6.3,-18.91 15.12,-32.46 26.47,-40.66 11.33,-8.18 29.29,-12.28 53.88,-12.28 13.86,0 23.47,2.21 28.83,6.62 5.35,4.4 8.04,11.02 8.04,19.85 0,5.03 -3.48,22.06 -10.4,51.04 -6.31,23.32 -11.35,44.43 -15.14,63.34 -5.03,25.83 -9.44,50.57 -13.23,74.2 -3.78,23.64 -5.66,43.01 -5.66,58.14 0,23.95 6.61,35.92 19.84,35.92 9.45,0 21.28,-9.46 35.45,-28.36 14.18,-18.91 29.31,-47.58 45.38,-86.02 16.07,-38.44 31.67,-85.71 46.79,-141.79 5.04,-18.91 12.76,-32.46 23.16,-40.66 10.4,-8.18 26,-12.28 46.79,-12.28 14.49,0 24.57,1.88 30.25,5.67 5.67,3.78 8.51,10.09 8.51,18.91 0,15.75 -8.2,69.95 -24.58,162.59l-24.57 152.19c48.51,-36.55 95.78,-69.95 141.79,-100.2 8.18,-5.05 15.43,-7.56 21.74,-7.56zm-414.05 547.3c15.76,0 33.41,-18.27 52.95,-54.8 19.53,-36.56 39.06,-97.37 58.6,-182.45 -48.52,40.96 -83.65,78.3 -105.4,112.02 -21.74,33.71 -32.6,63.18 -32.6,88.39 0,10.7 2.04,19.52 6.13,26.44 4.1,6.94 10.87,10.4 20.32,10.4zm795.01 -549.2c8.18,0 14.64,3.79 19.37,11.35 4.72,7.56 7.09,17.96 7.09,31.19 0,25.21 -5.99,44.75 -17.96,58.61 -27.1,33.4 -56.72,60.81 -88.85,82.25 -32.15,21.42 -69.02,32.13 -110.61,32.13 -128.56,0 -192.83,-90.44 -192.83,-271.3 0,-27.73 0.95,-55.78 2.83,-84.13l-36.87 0c-18.91,0 -31.67,-3.47 -38.28,-10.4 -6.62,-6.93 -9.92,-17.96 -9.92,-33.09 0,-35.29 14.17,-52.92 42.53,-52.92l53.88 0c10.72,-69.33 27.11,-132.66 49.15,-190.01 22.06,-57.36 48.7,-103.04 79.89,-137.07 31.2,-34.03 64.75,-51.04 100.67,-51.04 26.46,0 47.26,11.65 62.39,34.97 15.13,23.32 22.69,52.61 22.69,87.91 0,97.68 -40.97,182.76 -122.9,255.24l105.88 0c10.08,0 17.33,2.2 21.74,6.61 4.41,4.41 6.61,12.61 6.61,24.58 0,43.48 -35.59,65.22 -106.81,65.22l-115.33 0c-1.26,31.52 -1.88,56.09 -1.88,73.73 0,65.54 7.72,111.55 23.15,138.02 15.44,26.46 39.86,39.69 73.27,39.69 27.09,0 51.04,-8.18 71.84,-24.57 20.79,-16.38 45.36,-40.97 73.74,-73.74 7.56,-8.82 16.06,-13.23 25.52,-13.23zm-165.43 -523.68c-9.46,0 -20.01,11.81 -31.67,35.44 -11.66,23.64 -22.68,56.41 -33.08,98.31 -10.4,41.91 -19.07,88.39 -26,139.43 37.19,-32.13 65.07,-68.21 83.65,-108.23 18.6,-40.02 27.9,-76.42 27.9,-109.19 0,-37.18 -6.94,-55.76 -20.8,-55.76zm639.97 523.68c8.18,0 14.64,3.79 19.37,11.35 4.74,7.56 7.1,17.96 7.1,31.19 0,25.21 -5.99,44.75 -17.96,58.61 -29,33.4 -58.77,60.81 -89.34,82.25 -30.56,21.42 -65.38,32.13 -104.46,32.13 -32.13,0 -56.39,-9.3 -72.77,-27.88 -16.39,-18.6 -24.59,-45.54 -24.59,-80.83 0,-17.65 4.41,-49.15 13.24,-94.52 8.18,-39.71 12.28,-67.12 12.28,-82.25 0,-10.08 -3.46,-15.13 -10.4,-15.13 -8.18,0 -19.84,10.57 -34.96,31.67 -15.13,21.11 -30.26,49 -45.39,83.67 -15.12,34.65 -27.4,71.21 -36.86,109.64 -11.98,50.42 -41.59,75.63 -88.85,75.63 -18.91,0 -31.36,-6.78 -37.35,-20.32 -5.98,-13.55 -8.97,-37.97 -8.97,-73.27 0,-20.16 0.31,-36.23 0.94,-48.2l0.95 -75.63c0,-97.05 9.92,-198.19 29.77,-303.44 19.86,-105.23 49.15,-193.62 87.91,-265.15 38.77,-71.52 85.23,-107.29 139.44,-107.29 28.98,0 52.45,12.45 70.41,37.34 17.98,24.89 26.95,57.19 26.95,96.89 0,63.65 -18.59,129.67 -55.77,198.04 -37.18,68.38 -97.68,148.25 -181.49,239.63 -1.9,32.77 -2.84,66.49 -2.84,101.14 20.8,-53.56 43.95,-97.21 69.48,-130.91 25.52,-33.72 50.72,-57.83 75.62,-72.32 24.88,-14.49 47.73,-21.74 68.53,-21.74 40.97,0 61.45,20.48 61.45,61.44 0,24.58 -6.94,69.01 -20.8,133.29 -11.97,54.83 -17.96,91.06 -17.96,108.71 0,25.21 9.14,37.8 27.41,37.8 12.6,0 27.57,-7.71 44.91,-23.15 17.32,-15.44 40.48,-40.49 69.48,-75.16 7.56,-8.82 16.07,-13.23 25.52,-13.23zm-280.76 -584.19c-11.34,0 -23.95,16.23 -37.81,48.68 -13.86,32.46 -27.26,76.25 -40.18,131.4 -12.91,55.14 -23.47,115.17 -31.66,180.08 39.07,-46 71.37,-96.11 96.89,-150.3 25.52,-54.19 38.28,-103.35 38.28,-147.47 0,-20.17 -2.2,-35.6 -6.61,-46.31 -4.41,-10.71 -10.71,-16.08 -18.91,-16.08zm354.5 292.1c-26.48,0 -46.32,-6.14 -59.56,-18.44 -13.23,-12.28 -19.86,-29.46 -19.86,-51.52 0,-22.05 8.68,-40.49 26,-55.29 17.33,-14.81 38.92,-22.22 64.75,-22.22 23.32,0 42.23,5.68 56.72,17.02 14.49,11.34 21.74,27.41 21.74,48.21 0,25.21 -8.19,45.22 -24.58,60.03 -16.38,14.81 -38.12,22.21 -65.21,22.21zm-7.57 507.62c-40.96,0 -70.74,-14.5 -89.33,-43.48 -18.59,-29 -27.89,-67.43 -27.89,-115.33 0,-28.36 3.63,-64.76 10.88,-109.18 7.25,-44.43 16.53,-85.87 27.88,-124.3 5.67,-20.17 13.24,-34.03 22.68,-41.59 9.45,-7.57 24.59,-11.35 45.39,-11.35 32.13,0 48.2,10.71 48.2,32.14 0,15.75 -5.99,52.31 -17.96,109.65 -15.12,69.32 -22.68,116.27 -22.68,140.85 0,18.91 2.51,33.4 7.56,43.48 5.03,10.09 13.55,15.12 25.52,15.12 11.35,0 25.52,-7.87 42.53,-23.63 17.02,-15.75 39.71,-40.64 68.06,-74.68 7.57,-8.82 16.08,-13.23 25.53,-13.23 8.19,0 14.66,3.79 19.38,11.35 4.72,7.56 7.09,17.96 7.09,31.19 0,25.21 -5.99,44.75 -17.96,58.61 -62.39,76.26 -120.68,114.38 -174.88,114.38zm183.39 0c-23.96,0 -40.81,-12.6 -50.58,-37.81 -9.76,-25.21 -14.65,-65.54 -14.65,-121 0,-81.93 11.66,-159.76 34.97,-233.48 5.67,-18.29 14.97,-31.67 27.88,-40.18 12.93,-8.51 31.05,-12.76 54.36,-12.76 12.61,0 21.43,1.57 26.47,4.72 5.05,3.15 7.56,9.14 7.56,17.96 0,10.09 -4.72,32.77 -14.17,68.07 -6.3,25.2 -11.35,47.26 -15.13,66.16 -3.78,18.91 -6.93,42.23 -9.46,69.95 20.8,-54.19 44.12,-98.31 69.96,-132.33 25.84,-34.03 51.2,-58.3 76.1,-72.79 24.89,-14.49 47.73,-21.74 68.52,-21.74 40.97,0 61.46,20.48 61.46,61.44 0,24.58 -6.94,69.01 -20.8,133.29 -11.97,54.83 -17.96,91.06 -17.96,108.71 0,25.21 9.14,37.8 27.41,37.8 12.61,0 27.57,-7.71 44.9,-23.15 17.33,-15.44 40.48,-40.49 69.48,-75.16 7.56,-8.82 16.07,-13.23 25.52,-13.23 8.2,0 14.65,3.79 19.39,11.35 4.72,7.56 7.08,17.96 7.08,31.19 0,25.21 -5.98,44.75 -17.96,58.61 -27.09,33.4 -56.24,60.81 -87.43,82.25 -31.2,21.42 -66.66,32.13 -106.35,32.13 -32.15,0 -56.4,-9.3 -72.79,-27.88 -16.38,-18.6 -24.58,-45.54 -24.58,-80.83 0,-17.65 4.41,-49.15 13.23,-94.52 8.2,-39.71 12.29,-67.12 12.29,-82.25 0,-10.08 -3.46,-15.13 -10.4,-15.13 -8.19,0 -19.68,10.57 -34.49,31.67 -14.82,21.11 -29.94,49 -45.39,83.67 -15.43,34.65 -27.88,71.21 -37.33,109.64 -6.93,29.62 -14.97,49.63 -24.11,60.03 -9.13,10.4 -23.47,15.6 -43,15.6zm885.74 -213.63c8.18,0 14.65,3.94 19.37,11.81 4.72,7.87 7.09,17.81 7.09,29.78 0,14.49 -2.2,25.84 -6.62,34.02 -4.41,8.2 -11.34,15.45 -20.79,21.75 -54.19,36.56 -93.9,63.65 -119.11,81.3l-60.5 40.64c-23.95,130.46 -55.29,233.02 -94.05,307.68 -38.76,74.68 -88.07,112.02 -147.94,112.02 -32.15,0 -58.29,-9.92 -78.46,-29.78 -20.16,-19.85 -30.25,-45.85 -30.25,-77.98 0,-44.74 17.65,-92.78 52.93,-144.15 35.3,-51.36 101.46,-114.53 198.52,-189.53l5.66 -36.86c-10.71,17.01 -24.73,30.08 -42.05,39.22 -17.34,9.15 -34.51,13.71 -51.52,13.71 -39.08,0 -70.28,-14.17 -93.59,-42.53 -23.32,-28.36 -34.98,-65.54 -34.98,-111.55 0,-50.42 11.66,-98.16 34.98,-143.21 23.31,-45.06 54.36,-81.3 93.11,-108.71 38.76,-27.41 79.88,-41.12 123.36,-41.12 13.86,0 23.16,2.67 27.88,8.04 4.74,5.35 8.68,14.96 11.83,28.83 11.97,-2.53 25.83,-3.79 41.59,-3.79 15.75,0 26.93,2.36 33.56,7.09 6.61,4.72 9.92,14.02 9.92,27.89 0,7.57 -0.31,13.55 -0.95,17.96 -2.51,19.54 -10.4,69.01 -23.63,148.41 -2.52,15.12 -5.2,31.67 -8.03,49.63 -2.83,17.96 -5.83,37.03 -8.98,57.19 48.53,-37.81 95.16,-71.22 139.9,-100.2 8.19,-5.05 15.44,-7.56 21.75,-7.56zm-333.7 118.16c14.5,0 28.36,-8.83 41.59,-26.48 13.24,-17.64 22.7,-42.85 28.36,-75.62l30.26 -161.64c-25.85,0.63 -49.79,10.55 -71.85,29.77 -22.05,19.22 -39.7,44.59 -52.93,76.1 -13.24,31.51 -19.85,64.92 -19.85,100.2 0,19.53 3.94,34.03 11.81,43.49 7.87,9.45 18.75,14.18 32.61,14.18zm-78.45 429.14c15.75,0 33.56,-18.89 53.4,-56.7 19.85,-37.81 38.92,-98 57.19,-180.55 -48.53,41.59 -83.5,79.09 -104.92,112.5 -21.43,33.39 -32.14,62.7 -32.14,87.91 0,10.7 2.05,19.52 6.15,26.44 4.08,6.94 10.86,10.4 20.32,10.4zm755.28 -841.29c-26.47,0 -46.32,-6.14 -59.55,-18.44 -13.24,-12.28 -19.86,-29.46 -19.86,-51.52 0,-22.05 8.67,-40.49 26,-55.29 17.33,-14.81 38.91,-22.22 64.75,-22.22 23.32,0 42.23,5.68 56.71,17.02 14.5,11.34 21.75,27.41 21.75,48.21 0,25.21 -8.2,45.22 -24.58,60.03 -16.39,14.81 -38.12,22.21 -65.22,22.21zm-7.56 507.62c-40.97,0 -70.74,-14.5 -89.34,-43.48 -18.58,-29 -27.88,-67.43 -27.88,-115.33 0,-28.36 3.63,-64.76 10.87,-109.18 7.25,-44.43 16.54,-85.87 27.89,-124.3 5.67,-20.17 13.23,-34.03 22.68,-41.59 9.45,-7.57 24.59,-11.35 45.38,-11.35 32.14,0 48.21,10.71 48.21,32.14 0,15.75 -5.99,52.31 -17.96,109.65 -15.12,69.32 -22.69,116.27 -22.69,140.85 0,18.91 2.52,33.4 7.57,43.48 5.03,10.09 13.54,15.12 25.52,15.12 11.34,0 25.52,-7.87 42.53,-23.63 17.02,-15.75 39.7,-40.64 68.06,-74.68 7.56,-8.82 16.07,-13.23 25.52,-13.23 8.2,0 14.66,3.79 19.39,11.35 4.72,7.56 7.08,17.96 7.08,31.19 0,25.21 -5.98,44.75 -17.96,58.61 -62.39,76.26 -120.68,114.38 -174.87,114.38zm292.09 20.8c-32.77,0 -57.83,-7.57 -75.15,-22.69 -17.33,-15.12 -25.99,-32.14 -25.99,-51.04 0,-16.39 5.98,-30.57 17.96,-42.54 11.97,-11.98 29.62,-17.96 52.93,-17.96 8.19,0 17.81,0.78 28.83,2.36 11.03,1.57 19.38,2.67 25.04,3.31 -0.62,-16.38 -4.24,-31.83 -10.86,-46.32 -6.62,-14.5 -14.97,-28.52 -25.05,-42.07 -10.08,-13.54 -19.54,-25.37 -28.36,-35.44 -19.54,37.18 -38.91,68.05 -58.13,92.63 -19.22,24.58 -40.18,47.9 -62.87,69.96 -11.34,11.33 -23.32,17.01 -35.92,17.01 -10.08,0 -18.27,-3.63 -24.58,-10.88 -6.3,-7.23 -9.45,-16.22 -9.45,-26.93 0,-12.61 4.41,-24.26 13.24,-34.98l12.28 -15.12c34.66,-42.86 60.82,-78.14 78.47,-105.88 10.71,-18.27 23.32,-42.69 37.8,-73.26 14.5,-30.56 28.69,-62.23 42.55,-95 11.97,-27.73 36.87,-41.59 74.67,-41.59 17.65,0 29.93,1.57 36.87,4.72 6.93,3.15 10.4,8.2 10.4,15.13 0,3.78 -1.26,9.77 -3.79,17.97 -2.51,8.18 -5.98,16.38 -10.4,24.57 -11.33,22.68 -17.01,41.9 -17.01,57.67 0,9.44 3.32,19.84 9.93,31.19 6.61,11.34 16.86,25.52 30.72,42.53 20.17,26.47 35.44,49.01 45.84,67.59 10.4,18.6 15.6,38.92 15.6,60.98 0,6.3 -0.63,15.12 -1.89,26.46 30.88,-11.98 67.12,-43.8 108.71,-95.48 7.56,-8.82 16.07,-13.23 25.52,-13.23 8.2,0 14.66,3.79 19.39,11.35 4.72,7.56 7.08,17.96 7.08,31.19 0,23.95 -5.98,43.48 -17.96,58.61 -31.51,39.08 -61.6,65.7 -90.27,79.87 -28.67,14.19 -64.13,21.91 -106.35,23.17 -25.21,21.42 -55.14,32.14 -89.8,32.14zm579.45 -528.42c-26.46,0 -46.32,-6.14 -59.55,-18.44 -13.22,-12.28 -19.85,-29.46 -19.85,-51.52 0,-22.05 8.66,-40.49 26,-55.29 17.33,-14.81 38.92,-22.22 64.75,-22.22 23.32,0 42.22,5.68 56.72,17.02 14.49,11.34 21.74,27.41 21.74,48.21 0,25.21 -8.2,45.22 -24.58,60.03 -16.39,14.81 -38.12,22.21 -65.23,22.21zm170.16 293.99c8.19,0 14.65,3.94 19.38,11.81 4.72,7.87 7.09,17.81 7.09,29.78 0,14.49 -2.21,25.84 -6.62,34.02 -4.41,8.2 -11.35,15.45 -20.8,21.75 -44.11,28.99 -103.03,69 -176.77,120.06 -24.57,131.08 -56.4,234.11 -95.47,309.09 -39.07,75 -88.85,112.49 -149.35,112.49 -32.77,0 -59.08,-9.92 -78.94,-29.78 -19.85,-19.85 -29.77,-45.85 -29.77,-77.98 0,-44.74 17.32,-92.47 51.99,-143.2 34.66,-50.73 99.88,-113.28 195.67,-187.65l6.62 -48.2c8.83,-60.51 15.75,-120.06 20.8,-178.66 3.77,-34.03 9.76,-84.76 17.96,-152.19 2.51,-18.29 9.45,-31.67 20.8,-40.18 11.33,-8.51 28.67,-12.76 51.99,-12.76 18.9,0 31.34,2.83 37.33,8.51 5.99,5.67 8.99,13.55 8.99,23.63 0,28.98 -10.4,109.02 -31.2,240.1l-9.46 65.23c50.42,-37.82 96.42,-70.59 138.02,-98.31 8.2,-5.05 15.43,-7.56 21.74,-7.56zm-412.15 547.3c16.39,0 34.35,-18.58 53.88,-55.75 19.54,-37.18 37.81,-97.05 54.83,-179.61 -47.89,40.97 -82.4,77.99 -103.51,111.07 -21.11,33.09 -31.67,62.24 -31.67,87.45 0,24.56 8.83,36.84 26.47,36.84zm466.97 -333.67c-28.36,0 -51.52,-13.07 -69.48,-39.23 -17.96,-26.15 -26.94,-58.77 -26.94,-97.84 0,-47.27 3.16,-90.58 9.46,-129.98 6.3,-39.38 16.7,-81.14 31.19,-125.24 6.3,-18.91 15.13,-32.46 26.47,-40.66 11.34,-8.18 29.3,-12.28 53.88,-12.28 13.86,0 23.48,2.21 28.84,6.62 5.35,4.4 8.03,11.02 8.03,19.85 0,5.03 -3.47,22.06 -10.4,51.04 -6.31,23.32 -11.34,44.43 -15.13,63.34 -12.6,66.17 -18.9,110.28 -18.9,132.34 0,13.23 1.58,22.52 4.73,27.89 3.15,5.34 8.18,8.03 15.12,8.03 9.45,0 21.27,-9.46 35.44,-28.36 14.19,-18.91 29.31,-47.58 45.38,-86.02 16.08,-38.44 31.67,-85.71 46.8,-141.79 5.03,-18.91 12.76,-32.46 23.16,-40.66 10.39,-8.18 25.99,-12.28 46.79,-12.28 14.48,0 24.57,1.73 30.24,5.2 5.68,3.46 8.52,9.92 8.52,19.38 0,15.75 -7.89,58.92 -23.64,129.51 -17.65,80.66 -26.47,130.44 -26.47,149.35 0,11.97 2.53,21.27 7.56,27.88 5.05,6.63 11.66,9.92 19.86,9.92 12.6,0 27.57,-7.71 44.89,-23.15 17.34,-15.44 40.5,-40.49 69.48,-75.16 7.56,-8.82 16.07,-13.23 25.54,-13.23 8.18,0 14.64,3.79 19.37,11.35 4.72,7.56 7.08,17.96 7.08,31.19 0,25.21 -5.98,44.75 -17.96,58.61 -27.09,33.4 -56.24,60.81 -87.43,82.25 -31.2,21.42 -66.64,32.13 -106.35,32.13 -30.24,0 -52.47,-11.66 -66.64,-34.97 -14.18,-23.32 -21.27,-56.09 -21.27,-98.31 -10.71,42.84 -26.78,75.77 -48.21,98.77 -21.43,23.01 -44.43,34.51 -69.01,34.51zm516.13 20.8c-32.77,0 -57.83,-7.57 -75.15,-22.69 -17.33,-15.12 -25.99,-32.14 -25.99,-51.04 0,-16.39 5.98,-30.57 17.96,-42.54 11.97,-11.98 29.62,-17.96 52.93,-17.96 8.19,0 17.81,0.78 28.83,2.36 11.03,1.57 19.38,2.67 25.04,3.31 -0.62,-16.38 -4.24,-31.83 -10.86,-46.32 -6.62,-14.5 -14.97,-28.52 -25.05,-42.07 -10.08,-13.54 -19.54,-25.37 -28.36,-35.44 -19.54,37.18 -38.91,68.05 -58.13,92.63 -19.22,24.58 -40.18,47.9 -62.87,69.96 -11.34,11.33 -23.32,17.01 -35.92,17.01 -10.08,0 -18.27,-3.63 -24.58,-10.88 -6.3,-7.23 -9.45,-16.22 -9.45,-26.93 0,-12.61 4.41,-24.26 13.24,-34.98l12.28 -15.12c34.66,-42.86 60.82,-78.14 78.47,-105.88 10.71,-18.27 23.32,-42.69 37.8,-73.26 14.5,-30.56 28.69,-62.23 42.55,-95 11.97,-27.73 36.87,-41.59 74.67,-41.59 17.65,0 29.93,1.57 36.87,4.72 6.93,3.15 10.4,8.2 10.4,15.13 0,3.78 -1.26,9.77 -3.79,17.97 -2.51,8.18 -5.98,16.38 -10.4,24.57 -11.33,22.68 -17.01,41.9 -17.01,57.67 0,9.44 3.32,19.84 9.93,31.19 6.61,11.34 16.86,25.52 30.72,42.53 20.17,26.47 35.44,49.01 45.84,67.59 10.4,18.6 15.6,38.92 15.6,60.98 0,6.3 -0.63,15.12 -1.89,26.46 30.88,-11.98 67.12,-43.8 108.71,-95.48 7.56,-8.82 16.07,-13.23 25.52,-13.23 8.2,0 14.66,3.79 19.39,11.35 4.72,7.56 7.08,17.96 7.08,31.19 0,23.95 -5.98,43.48 -17.96,58.61 -31.51,39.08 -61.6,65.7 -90.27,79.87 -28.67,14.19 -64.13,21.91 -106.35,23.17 -25.21,21.42 -55.14,32.14 -89.8,32.14z"/>
    <path class="fil4" d="M21996.88 7421.68c8.18,0 14.64,3.79 19.37,11.35 4.72,7.56 7.08,17.96 7.08,31.19 0,25.21 -5.98,44.75 -17.95,58.61 -27.1,33.4 -56.72,60.81 -88.85,82.25 -32.15,21.42 -69.02,32.13 -110.61,32.13 -128.56,0 -192.83,-90.44 -192.83,-271.3 0,-27.73 0.95,-55.78 2.83,-84.13l-36.87 0c-18.91,0 -31.67,-3.47 -38.28,-10.4 -6.62,-6.93 -9.92,-17.96 -9.92,-33.09 0,-35.29 14.17,-52.92 42.53,-52.92l53.88 0c10.72,-69.33 27.11,-132.66 49.15,-190.01 22.06,-57.36 48.7,-103.04 79.89,-137.07 31.2,-34.03 64.75,-51.04 100.67,-51.04 26.46,0 47.26,11.65 62.39,34.97 15.13,23.32 22.69,52.61 22.69,87.91 0,97.68 -40.97,182.76 -122.9,255.24l105.88 0c10.08,0 17.33,2.2 21.74,6.61 4.41,4.41 6.61,12.61 6.61,24.58 0,43.48 -35.59,65.22 -106.81,65.22l-115.33 0c-1.26,31.52 -1.88,56.09 -1.88,73.73 0,65.54 7.72,111.55 23.15,138.02 15.44,26.46 39.86,39.69 73.27,39.69 27.09,0 51.04,-8.18 71.84,-24.57 20.79,-16.38 45.36,-40.97 73.74,-73.74 7.56,-8.82 16.06,-13.23 25.52,-13.23zm-165.43 -523.68c-9.46,0 -20.01,11.81 -31.67,35.44 -11.66,23.64 -22.68,56.41 -33.08,98.31 -10.4,41.91 -19.07,88.39 -26,139.43 37.19,-32.13 65.07,-68.21 83.65,-108.23 18.6,-40.02 27.9,-76.42 27.9,-109.19 0,-37.18 -6.94,-55.76 -20.8,-55.76zm868.71 444.28c8.19,0 14.49,4.1 18.91,12.28 4.41,8.2 6.61,18.6 6.61,31.2 0,15.76 -2.2,27.88 -6.61,36.39 -4.42,8.52 -11.35,14.34 -20.8,17.49 -37.81,13.23 -79.4,20.8 -124.78,22.7 -12.6,52.3 -36.4,94.52 -71.35,126.66 -34.99,32.14 -73.58,48.21 -115.81,48.21 -63.64,0 -109.96,-24.26 -138.95,-72.79 -28.99,-48.52 -43.49,-118.79 -43.49,-210.79 0,-81.3 10.09,-169.69 30.25,-265.16 20.17,-95.48 49.63,-176.78 88.39,-243.89 38.75,-67.11 84.92,-100.67 138.49,-100.67 28.98,0 52.3,12.45 69.95,37.34 17.62,24.89 26.45,57.19 26.45,96.89 0,51.68 -9.77,103.03 -29.29,154.09 -19.53,51.04 -51.99,104.61 -97.37,160.7 42.23,3.15 76.58,20.63 103.05,52.45 26.44,31.83 42.2,71.07 47.24,117.7 29.62,-1.89 64.91,-8.19 105.87,-18.91 3.79,-1.27 8.2,-1.89 13.24,-1.89zm-260.89 -504.79c-12.6,0 -26.31,18.75 -41.12,56.25 -14.81,37.49 -28.52,88.38 -41.12,152.66 -12.61,64.28 -22.06,134.55 -28.35,210.8 41.59,-76.25 74.83,-143.52 99.72,-201.81 24.89,-58.3 37.34,-110.14 37.34,-155.51 0,-20.17 -2.36,-35.6 -7.08,-46.31 -4.74,-10.71 -11.19,-16.08 -19.39,-16.08zm-49.15 699.52c19.53,0 36.87,-8.2 51.99,-24.58 15.12,-16.39 25.21,-40.02 30.24,-70.89 -19.53,-13.24 -34.49,-30.57 -44.89,-51.99 -10.4,-21.44 -15.6,-44.12 -15.6,-68.07 0,-8.82 1.25,-20.79 3.78,-35.92l-2.84 0c-25.83,0 -47.42,12.76 -64.75,38.28 -17.32,25.53 -26,59.72 -26,102.58 0,35.92 6.78,63.32 20.32,82.23 13.56,18.91 29.47,28.36 47.75,28.36zm350.68 100.2c-28.36,0 -51.52,-13.07 -69.48,-39.23 -17.96,-26.15 -26.94,-58.77 -26.94,-97.84 0,-47.27 3.16,-90.58 9.46,-129.98 6.3,-39.38 16.7,-81.14 31.19,-125.24 6.3,-18.91 15.13,-32.46 26.47,-40.66 11.34,-8.18 29.3,-12.28 53.88,-12.28 13.86,0 23.48,2.21 28.84,6.62 5.35,4.4 8.03,11.02 8.03,19.85 0,5.03 -3.47,22.06 -10.4,51.04 -6.31,23.32 -11.34,44.43 -15.13,63.34 -12.6,66.17 -18.9,110.28 -18.9,132.34 0,13.23 1.58,22.52 4.73,27.89 3.15,5.34 8.18,8.03 15.12,8.03 9.45,0 21.27,-9.46 35.44,-28.36 14.19,-18.91 29.31,-47.58 45.38,-86.02 16.08,-38.44 31.67,-85.71 46.8,-141.79 5.03,-18.91 12.76,-32.46 23.16,-40.66 10.39,-8.18 25.99,-12.28 46.79,-12.28 14.48,0 24.57,1.73 30.24,5.2 5.68,3.46 8.52,9.92 8.52,19.38 0,15.75 -7.89,58.92 -23.64,129.51 -17.65,80.66 -26.47,130.44 -26.47,149.35 0,11.97 2.53,21.27 7.56,27.88 5.05,6.63 11.66,9.92 19.86,9.92 12.6,0 27.57,-7.71 44.89,-23.15 17.34,-15.44 40.5,-40.49 69.48,-75.16 7.56,-8.82 16.07,-13.23 25.54,-13.23 8.18,0 14.64,3.79 19.37,11.35 4.72,7.56 7.08,17.96 7.08,31.19 0,25.21 -5.98,44.75 -17.96,58.61 -27.09,33.4 -56.24,60.81 -87.43,82.25 -31.2,21.42 -66.64,32.13 -106.35,32.13 -30.24,0 -52.47,-11.66 -66.64,-34.97 -14.18,-23.32 -21.27,-56.09 -21.27,-98.31 -10.71,42.84 -26.78,75.77 -48.21,98.77 -21.43,23.01 -44.43,34.51 -69.01,34.51zm761.91 -215.53c8.18,0 14.65,3.79 19.37,11.35 4.72,7.56 7.09,17.96 7.09,31.19 0,25.21 -5.99,44.75 -17.96,58.61 -27.1,33.4 -56.72,60.81 -88.85,82.25 -32.15,21.42 -69.02,32.13 -110.61,32.13 -128.56,0 -192.83,-90.44 -192.83,-271.3 0,-27.73 0.95,-55.78 2.83,-84.13l-36.87 0c-18.9,0 -31.67,-3.47 -38.28,-10.4 -6.62,-6.93 -9.92,-17.96 -9.92,-33.09 0,-35.29 14.17,-52.92 42.53,-52.92l53.88 0c10.72,-69.33 27.11,-132.66 49.15,-190.01 22.06,-57.36 48.7,-103.04 79.89,-137.07 31.2,-34.03 64.76,-51.04 100.67,-51.04 26.46,0 47.26,11.65 62.39,34.97 15.13,23.32 22.69,52.61 22.69,87.91 0,97.68 -40.97,182.76 -122.89,255.24l105.87 0c10.08,0 17.33,2.2 21.74,6.61 4.42,4.41 6.61,12.61 6.61,24.58 0,43.48 -35.59,65.22 -106.8,65.22l-115.34 0c-1.26,31.52 -1.88,56.09 -1.88,73.73 0,65.54 7.72,111.55 23.16,138.02 15.43,26.46 39.85,39.69 73.26,39.69 27.1,0 51.04,-8.18 71.84,-24.57 20.8,-16.38 45.37,-40.97 73.74,-73.74 7.56,-8.82 16.06,-13.23 25.52,-13.23zm-165.43 -523.68c-9.46,0 -20.01,11.81 -31.67,35.44 -11.66,23.64 -22.68,56.41 -33.08,98.31 -10.4,41.91 -19.07,88.39 -26,139.43 37.19,-32.13 65.07,-68.21 83.65,-108.23 18.6,-40.02 27.9,-76.42 27.9,-109.19 0,-37.18 -6.94,-55.76 -20.8,-55.76zm870.62 523.68c8.19,0 14.65,3.79 19.37,11.35 4.73,7.56 7.09,17.96 7.09,31.19 0,25.21 -5.99,44.75 -17.96,58.61 -27.1,33.4 -56.24,60.81 -87.44,82.25 -31.19,21.42 -66.64,32.13 -106.34,32.13 -33.4,0 -60.51,-11.97 -81.29,-35.92 -35.93,23.32 -73.43,35.29 -112.5,35.92 -8.2,121.63 -26.78,223.25 -55.78,304.84 -28.98,81.61 -71.52,122.42 -127.6,122.42 -34.03,0 -59.24,-12.29 -75.63,-36.87 -16.38,-24.57 -24.58,-58.6 -24.58,-102.07 0,-61.77 14.18,-133.77 42.54,-216.01 28.36,-82.23 72.15,-172.82 131.39,-271.77 0,-92.01 -0.62,-155.97 -1.88,-191.89 -0.63,-18.28 6.61,-32.77 21.74,-43.48 15.13,-10.72 34.02,-16.08 56.72,-16.08 13.24,0 22.85,2.69 28.83,8.04 5.99,5.36 9.29,15.91 9.93,31.67 0,15.76 0.31,27.41 0.93,34.97 20.18,-25.2 40.02,-43.32 59.56,-54.36 19.54,-11.02 40.33,-16.53 62.39,-16.53 35.29,0 64.13,14.17 86.5,42.53 22.37,28.36 33.55,65.54 33.55,111.55 0,33.4 -5.36,65.86 -16.07,97.37 -10.71,31.51 -25.52,60.18 -44.43,86.02 13.24,3.78 24.27,5.66 33.1,5.66 20.78,0 40.64,-7.56 59.55,-22.68 18.9,-15.12 43.17,-40.33 72.78,-75.63 7.57,-8.82 16.07,-13.23 25.53,-13.23zm-374.34 124.78c22.68,-5.04 43.64,-17.48 62.86,-37.33 19.22,-19.86 34.51,-44.43 45.85,-73.74 11.34,-29.31 17.02,-60.03 17.02,-92.16 0,-18.91 -3.79,-33.25 -11.35,-43.02 -7.56,-9.76 -17.65,-14.65 -30.25,-14.65 -22.69,0 -50.1,23.95 -82.25,71.84 -0.62,27.73 -0.93,68.38 -0.93,121.95 0,28.99 -0.32,51.36 -0.95,67.11zm-180.55 425.37c17.01,0 31.2,-37 42.53,-111.06 11.35,-74.05 18.6,-166.21 21.75,-276.49 -27.1,63.01 -48.53,123.19 -64.28,180.55 -15.76,57.34 -23.63,105.56 -23.63,144.62 0,20.18 2.36,35.6 7.08,46.31 4.73,10.71 10.25,16.07 16.55,16.07zm986.87 -629.55c8.2,0 14.5,4.1 18.91,12.28 4.42,8.2 6.61,18.6 6.61,31.2 0,30.26 -9.13,48.22 -27.4,53.88 -37.81,13.23 -79.4,20.8 -124.78,22.7 -11.98,52.92 -35.61,95.31 -70.89,127.14 -35.3,31.82 -75.32,47.73 -120.06,47.73 -37.81,0 -70.11,-9.14 -96.9,-27.41 -26.78,-18.28 -47.1,-42.54 -60.96,-72.79 -13.86,-30.24 -20.8,-63.01 -20.8,-98.31 0,-47.89 9.14,-90.6 27.41,-128.09 18.28,-37.5 43.49,-66.8 75.62,-87.91 32.15,-21.11 67.76,-31.67 106.83,-31.67 47.89,0 86.49,16.54 115.79,49.63 29.31,33.09 46.48,73.89 51.52,122.42 29.62,-1.89 64.91,-8.19 105.87,-18.91 5.05,-1.27 9.46,-1.89 13.23,-1.89zm-310.05 194.73c20.17,0 37.66,-8.2 52.47,-24.58 14.81,-16.39 24.73,-40.02 29.77,-70.89 -19.54,-13.24 -34.5,-30.57 -44.89,-51.99 -10.4,-21.44 -15.6,-44.12 -15.6,-68.07 0,-10.08 0.94,-20.16 2.83,-30.24l-4.73 0c-25.21,0 -46.16,12.12 -62.85,36.39 -16.71,24.26 -25.06,58.44 -25.06,102.56 0,34.66 6.77,61.13 20.32,79.4 13.56,18.29 29.47,27.42 47.74,27.42zm496.29 121c-32.77,0 -57.83,-7.57 -75.15,-22.69 -17.34,-15.12 -26,-32.14 -26,-51.04 0,-16.39 5.99,-30.57 17.96,-42.54 11.97,-11.98 29.62,-17.96 52.93,-17.96 8.2,0 17.81,0.78 28.83,2.36 11.04,1.57 19.39,2.67 25.05,3.31 -0.63,-16.38 -4.25,-31.83 -10.86,-46.32 -6.63,-14.5 -14.97,-28.52 -25.06,-42.07 -10.07,-13.54 -19.53,-25.37 -28.36,-35.44 -19.53,37.18 -38.91,68.05 -58.13,92.63 -19.22,24.58 -40.18,47.9 -62.86,69.96 -11.35,11.33 -23.32,17.01 -35.92,17.01 -10.09,0 -18.27,-3.63 -24.59,-10.88 -6.29,-7.23 -9.44,-16.22 -9.44,-26.93 0,-12.61 4.41,-24.26 13.23,-34.98l12.29 -15.12c34.65,-42.86 60.81,-78.14 78.46,-105.88 10.71,-18.27 23.32,-42.69 37.81,-73.26 14.49,-30.56 28.68,-62.23 42.54,-95 11.97,-27.73 36.87,-41.59 74.68,-41.59 17.64,0 29.93,1.57 36.87,4.72 6.92,3.15 10.39,8.2 10.39,15.13 0,3.78 -1.26,9.77 -3.78,17.97 -2.52,8.18 -5.99,16.38 -10.4,24.57 -11.34,22.68 -17.01,41.9 -17.01,57.67 0,9.44 3.31,19.84 9.92,31.19 6.61,11.34 16.86,25.52 30.72,42.53 20.17,26.47 35.45,49.01 45.85,67.59 10.39,18.6 15.59,38.92 15.59,60.98 0,6.3 -0.62,15.12 -1.88,26.46 30.88,-11.98 67.11,-43.8 108.7,-95.48 7.57,-8.82 16.08,-13.23 25.53,-13.23 8.19,0 14.66,3.79 19.38,11.35 4.72,7.56 7.09,17.96 7.09,31.19 0,23.95 -5.99,43.48 -17.96,58.61 -31.51,39.08 -61.61,65.7 -90.28,79.87 -28.67,14.19 -64.13,21.91 -106.34,23.17 -25.21,21.42 -55.15,32.14 -89.8,32.14zm403.64 0c-32.77,0 -57.83,-7.57 -75.16,-22.69 -17.33,-15.12 -25.99,-32.14 -25.99,-51.04 0,-16.39 5.99,-30.57 17.96,-42.54 11.97,-11.98 29.62,-17.96 52.93,-17.96 8.2,0 17.81,0.78 28.83,2.36 11.04,1.57 19.39,2.67 25.05,3.31 -0.63,-16.38 -4.25,-31.83 -10.86,-46.32 -6.63,-14.5 -14.98,-28.52 -25.06,-42.07 -10.08,-13.54 -19.54,-25.37 -28.36,-35.44 -19.53,37.18 -38.91,68.05 -58.13,92.63 -19.22,24.58 -40.18,47.9 -62.86,69.96 -11.35,11.33 -23.33,17.01 -35.92,17.01 -10.09,0 -18.28,-3.63 -24.59,-10.88 -6.3,-7.23 -9.45,-16.22 -9.45,-26.93 0,-12.61 4.42,-24.26 13.24,-34.98l12.28 -15.12c34.66,-42.86 60.82,-78.14 78.47,-105.88 10.71,-18.27 23.32,-42.69 37.8,-73.26 14.5,-30.56 28.69,-62.23 42.55,-95 11.97,-27.73 36.87,-41.59 74.67,-41.59 17.65,0 29.94,1.57 36.87,4.72 6.93,3.15 10.4,8.2 10.4,15.13 0,3.78 -1.26,9.77 -3.79,17.97 -2.51,8.18 -5.98,16.38 -10.39,24.57 -11.34,22.68 -17.01,41.9 -17.01,57.67 0,9.44 3.31,19.84 9.92,31.19 6.61,11.34 16.86,25.52 30.72,42.53 20.17,26.47 35.44,49.01 45.84,67.59 10.4,18.6 15.6,38.92 15.6,60.98 0,6.3 -0.62,15.12 -1.89,26.46 30.89,-11.98 67.12,-43.8 108.71,-95.48 7.56,-8.82 16.07,-13.23 25.52,-13.23 8.2,0 14.66,3.79 19.39,11.35 4.72,7.56 7.08,17.96 7.08,31.19 0,23.95 -5.98,43.48 -17.96,58.61 -31.5,39.08 -61.6,65.7 -90.27,79.87 -28.67,14.19 -64.13,21.91 -106.35,23.17 -25.2,21.42 -55.14,32.14 -89.79,32.14zm351.64 -528.42c-26.47,0 -46.32,-6.14 -59.55,-18.44 -13.24,-12.28 -19.86,-29.46 -19.86,-51.52 0,-22.05 8.67,-40.49 26,-55.29 17.33,-14.81 38.91,-22.22 64.75,-22.22 23.32,0 42.23,5.68 56.71,17.02 14.5,11.34 21.75,27.41 21.75,48.21 0,25.21 -8.2,45.22 -24.58,60.03 -16.39,14.81 -38.12,22.21 -65.22,22.21zm-7.56 507.62c-40.97,0 -70.74,-14.5 -89.34,-43.48 -18.58,-29 -27.88,-67.43 -27.88,-115.33 0,-28.36 3.63,-64.76 10.87,-109.18 7.25,-44.43 16.54,-85.87 27.89,-124.3 5.67,-20.17 13.23,-34.03 22.68,-41.59 9.45,-7.57 24.59,-11.35 45.38,-11.35 32.13,0 48.21,10.71 48.21,32.14 0,15.75 -5.99,52.31 -17.96,109.65 -15.13,69.32 -22.69,116.27 -22.69,140.85 0,18.91 2.52,33.4 7.56,43.48 5.04,10.09 13.55,15.12 25.53,15.12 11.34,0 25.52,-7.87 42.53,-23.63 17.02,-15.75 39.7,-40.64 68.06,-74.68 7.56,-8.82 16.07,-13.23 25.52,-13.23 8.2,0 14.66,3.79 19.39,11.35 4.72,7.56 7.08,17.96 7.08,31.19 0,25.21 -5.98,44.75 -17.96,58.61 -62.39,76.26 -120.68,114.38 -174.87,114.38zm619.16 -294.93c8.19,0 14.49,4.1 18.91,12.28 4.41,8.2 6.61,18.6 6.61,31.2 0,15.76 -2.2,27.88 -6.61,36.39 -4.42,8.52 -11.35,14.34 -20.8,17.49 -37.81,13.23 -79.4,20.8 -124.78,22.7 -12.6,52.3 -36.4,94.52 -71.37,126.66 -34.98,32.14 -73.57,48.21 -115.8,48.21 -63.64,0 -109.96,-24.26 -138.96,-72.79 -28.98,-48.52 -43.48,-118.79 -43.48,-210.79 0,-81.3 10.09,-169.69 30.25,-265.16 20.17,-95.48 49.63,-176.78 88.38,-243.89 38.76,-67.11 84.93,-100.67 138.49,-100.67 28.99,0 52.31,12.45 69.96,37.34 17.63,24.89 26.45,57.19 26.45,96.89 0,51.68 -9.76,103.03 -29.29,154.09 -19.54,51.04 -51.99,104.61 -97.37,160.7 42.23,3.15 76.57,20.63 103.04,52.45 26.46,31.83 42.22,71.07 47.26,117.7 29.62,-1.89 64.91,-8.19 105.87,-18.91 3.79,-1.27 8.2,-1.89 13.24,-1.89zm-260.9 -504.79c-12.6,0 -26.31,18.75 -41.12,56.25 -14.81,37.49 -28.52,88.38 -41.12,152.66 -12.61,64.28 -22.06,134.55 -28.36,210.8 41.6,-76.25 74.84,-143.52 99.72,-201.81 24.9,-58.3 37.35,-110.14 37.35,-155.51 0,-20.17 -2.36,-35.6 -7.09,-46.31 -4.73,-10.71 -11.18,-16.08 -19.38,-16.08zm-49.16 699.52c19.54,0 36.87,-8.2 52,-24.58 15.12,-16.39 25.2,-40.02 30.24,-70.89 -19.53,-13.24 -34.49,-30.57 -44.89,-51.99 -10.4,-21.44 -15.6,-44.12 -15.6,-68.07 0,-8.82 1.25,-20.79 3.77,-35.92l-2.83 0c-25.84,0 -47.42,12.76 -64.76,38.28 -17.32,25.53 -25.99,59.72 -25.99,102.58 0,35.92 6.77,63.32 20.32,82.23 13.56,18.91 29.47,28.36 47.74,28.36zm612.55 -115.33c8.2,0 14.64,3.79 19.38,11.35 4.73,7.56 7.09,17.96 7.09,31.19 0,25.21 -5.99,44.75 -17.96,58.61 -27.1,33.4 -56.57,60.81 -88.39,82.25 -31.82,21.42 -67.9,32.13 -108.23,32.13 -55.46,0 -96.59,-25.21 -123.37,-75.63 -26.78,-50.4 -40.17,-115.63 -40.17,-195.67 0,-76.89 9.92,-164.48 29.77,-262.79 19.86,-98.31 49.16,-182.75 87.91,-253.34 38.77,-70.58 84.93,-105.87 138.49,-105.87 30.25,0 54.05,14.02 71.37,42.07 17.33,28.04 25.99,68.21 25.99,120.52 0,75 -20.79,161.96 -62.37,260.91 -41.6,98.93 -98,196.93 -169.22,293.98 4.42,25.83 11.67,44.26 21.74,55.3 10.08,11.02 23.32,16.53 39.7,16.53 25.84,0 48.54,-7.39 68.07,-22.2 19.53,-14.81 44.43,-40.19 74.68,-76.11 7.56,-8.82 16.07,-13.23 25.52,-13.23zm-116.27 -584.19c-14.5,0 -30.89,26.16 -49.16,78.47 -18.27,52.3 -34.34,117.2 -48.2,194.72 -13.88,77.52 -21.44,151.89 -22.7,223.09 44.74,-73.73 80.35,-147.62 106.82,-221.67 26.47,-74.05 39.71,-141.64 39.71,-202.77 0,-47.89 -8.83,-71.84 -26.47,-71.84zm487.77 584.19c8.19,0 14.65,3.79 19.37,11.35 4.73,7.56 7.09,17.96 7.09,31.19 0,25.21 -5.99,44.75 -17.96,58.61 -23.31,28.35 -56.24,54.51 -98.77,78.46 -42.54,23.95 -88.08,35.92 -136.61,35.92 -66.16,0 -117.53,-17.96 -154.07,-53.88 -36.56,-35.92 -54.83,-85.08 -54.83,-147.47 0,-43.48 9.14,-83.97 27.41,-121.46 18.28,-37.5 43.64,-67.28 76.1,-89.34 32.46,-22.06 69.16,-33.08 110.12,-33.08 36.56,0 65.86,10.87 87.92,32.6 22.05,21.75 33.09,51.21 33.09,88.39 0,43.49 -15.6,80.83 -46.8,112.02 -31.19,31.2 -83.97,55.93 -158.34,74.2 15.76,29 45.7,43.5 89.8,43.5 28.36,0 60.67,-9.93 96.9,-29.79 36.23,-19.84 67.59,-45.84 94.06,-77.99 7.56,-8.82 16.06,-13.23 25.52,-13.23zm-238.21 -137.07c-23.32,0 -43.02,13.55 -59.09,40.66 -16.06,27.09 -24.1,59.86 -24.1,98.31l0 1.89c37.18,-8.83 66.48,-22.06 87.91,-39.71 21.42,-17.65 32.14,-38.12 32.14,-61.44 0,-11.97 -3.3,-21.59 -9.93,-28.83 -6.61,-7.25 -15.6,-10.88 -26.93,-10.88z"/>
   </g>
  </g>
 </g>
</svg>
