<?xml version="1.0" encoding="UTF-8"?>
<!DOCTYPE svg PUBLIC "-//W3C//DTD SVG 1.1//EN" "http://www.w3.org/Graphics/SVG/1.1/DTD/svg11.dtd">
<!-- Creator: CorelDRAW 2019 (64-Bit Evaluation Version) -->
<svg xmlns="http://www.w3.org/2000/svg" xml:space="preserve" width="297mm" height="210mm" version="1.1" style="shape-rendering:geometricPrecision; text-rendering:geometricPrecision; image-rendering:optimizeQuality; fill-rule:evenodd; clip-rule:evenodd"
viewBox="0 0 29700 21000"
 xmlns:xlink="http://www.w3.org/1999/xlink"
 xmlns:xodm="http://www.corel.com/coreldraw/odm/2003">
 <defs>
  <style type="text/css">
   <![CDATA[
    .str1 {stroke:black;stroke-width:35.28;stroke-miterlimit:22.9256}
    .str0 {stroke:black;stroke-width:20;stroke-miterlimit:22.9256}
    .fil3 {fill:black}
    .fil15 {fill:#010101}
    .fil18 {fill:#3A8601}
    .fil7 {fill:#3E2D44}
    .fil0 {fill:#3E2D44}
    .fil20 {fill:#7BAE55}
    .fil2 {fill:gray}
    .fil16 {fill:gray}
    .fil19 {fill:#99C17B}
    .fil10 {fill:#CCCCCC}
    .fil5 {fill:#CCCCFF}
    .fil8 {fill:#ED3237}
    .fil17 {fill:#FEFFFE}
    .fil9 {fill:#FFF212}
    .fil6 {fill:white}
    .fil14 {fill:white}
    .fil12 {fill:black;fill-rule:nonzero}
    .fil11 {fill:white;fill-rule:nonzero}
    .fil1 {fill:white;fill-rule:nonzero}
    .fil4 {fill:url(#id0)}
    .fil13 {fill:url(#id1)}
   ]]>
  </style>
  <linearGradient id="id0" gradientUnits="userSpaceOnUse" x1="17219.23" y1="8771.94" x2="17227.26" y2="10999.64">
   <stop offset="0" style="stop-opacity:1; stop-color:#99CCCC"/>
   <stop offset="1" style="stop-opacity:1; stop-color:#FEFEFE"/>
  </linearGradient>
  <linearGradient id="id1" gradientUnits="userSpaceOnUse" xlink:href="#id0" x1="11713.65" y1="8693.32" x2="11721.67" y2="10981.66">
  </linearGradient>
 </defs>
 <g id="Layer_x0020_1">
  <metadata id="CorelCorpID_0Corel-Layer"/>
  <rect class="fil0" x="8762.04" y="7317.94" width="10870.57" height="5714.01" rx="371.64" ry="371.64"/>
  <path class="fil1" d="M10505.66 11992.35l160.4 0 -126.1 595.25 -186.36 0 -65.83 -355.11 -65.83 355.11 -186.36 0 -126.1 -595.25 168.75 0 50.07 400.54 79.73 -400.54 158.55 0 79.74 400.54 59.34 -400.54zm369.01 479.35l203.06 0 0 115.9 -365.31 0 0 -595.25 356.96 0 0 115.9 -194.71 0 0 121.46 167.82 0 0 115.9 -167.82 0 0 126.09zm503.46 -255.9l0 -96.43c0,-13.59 -7.73,-20.39 -23.18,-20.39l-66.76 0 0 137.22 66.76 0c15.45,0 23.18,-6.8 23.18,-20.4zm0 244.78l0 -97.36c0,-13.6 -7.73,-20.4 -23.18,-20.4l-66.76 0 0 138.15 66.76 0c15.45,0 23.18,-6.8 23.18,-20.39zm-249.41 -468.23l272.59 0c90.86,0 136.29,38.32 136.29,114.97l0 76.03c0,53.78 -14.83,88.7 -44.5,104.77 17.31,7.42 29.05,18.7 35.23,33.84 6.18,15.15 9.27,35.7 9.27,61.66l0 89.01c0,76.65 -45.43,114.97 -136.29,114.97l-272.59 0 0 -595.25zm707.43 -55.63l133.51 0 -284.64 706.51 -133.51 0 284.64 -706.51zm455.25 650.88l-18.55 -89.01 -142.78 0 -19.48 89.01 -159.47 0 152.98 -595.25 197.49 0 152.99 595.25 -163.18 0zm-136.3 -203.98l92.72 0 -45.43 -214.18 -47.29 214.18zm336.57 -391.27l275.37 0c90.86,0 136.3,38.32 136.3,114.97l0 170.6c0,76.65 -45.44,114.97 -136.3,114.97l-113.12 0 0 194.71 -162.25 0 0 -595.25zm249.41 264.25l0 -127.95c0,-13.6 -7.73,-20.4 -23.18,-20.4l-63.98 0 0 168.74 63.98 0c15.45,0 23.18,-6.79 23.18,-20.39zm217.89 -264.25l275.37 0c90.86,0 136.3,38.32 136.3,114.97l0 170.6c0,76.65 -45.44,114.97 -136.3,114.97l-113.12 0 0 194.71 -162.25 0 0 -595.25zm249.41 264.25l0 -127.95c0,-13.6 -7.73,-20.4 -23.18,-20.4l-63.98 0 0 168.74 63.98 0c15.45,0 23.18,-6.79 23.18,-20.39zm412.6 -264.25l273.52 0c90.86,0 136.29,38.32 136.29,114.97l0 365.31c0,76.65 -45.43,114.97 -136.29,114.97l-273.52 0 0 -595.25zm247.56 468.23l0 -341.21c0,-13.59 -7.73,-20.39 -23.18,-20.39l-62.12 0 0 381.99 62.12 0c15.45,0 23.18,-6.8 23.18,-20.39zm395.9 11.12l203.06 0 0 115.9 -365.31 0 0 -595.25 356.96 0 0 115.9 -194.71 0 0 121.46 167.82 0 0 115.9 -167.82 0 0 126.09zm535.91 -479.35l168.75 0 -146.5 595.25 -188.22 0 -146.49 -595.25 168.75 0 71.39 397.76 72.32 -397.76zm374.58 479.35l203.06 0 0 115.9 -365.31 0 0 -595.25 356.96 0 0 115.9 -194.71 0 0 121.46 167.82 0 0 115.9 -167.82 0 0 126.09zm416.3 0l184.51 0 0 115.9 -346.76 0 0 -595.25 162.25 0 0 479.35zm355.11 -479.35l137.22 0c90.87,0 136.3,38.32 136.3,114.97l0 365.31c0,76.65 -45.43,114.97 -136.3,114.97l-137.22 0c-90.86,0 -136.29,-38.32 -136.29,-114.97l0 -365.31c0,-76.65 45.43,-114.97 136.29,-114.97zm111.26 458.95l0 -322.65c0,-13.6 -7.72,-20.4 -23.18,-20.4l-38.94 0c-15.45,0 -23.18,6.8 -23.18,20.4l0 322.65c0,13.6 7.73,20.4 23.18,20.4l38.94 0c15.46,0 23.18,-6.8 23.18,-20.4zm233.65 -458.95l275.37 0c90.86,0 136.3,38.32 136.3,114.97l0 170.6c0,76.65 -45.44,114.97 -136.3,114.97l-113.12 0 0 194.71 -162.25 0 0 -595.25zm249.41 264.25l0 -127.95c0,-13.6 -7.73,-20.4 -23.18,-20.4l-63.98 0 0 168.74 63.98 0c15.45,0 23.18,-6.79 23.18,-20.39zm362.53 331l-144.64 0 0 -595.25 177.09 0 96.43 318.02 96.42 -318.02 177.09 0 0 595.25 -143.71 0 0 -378.29 -74.17 249.41 -111.27 0 -73.24 -247.56 0 376.44zm638.82 -115.9l203.06 0 0 115.9 -365.31 0 0 -595.25 356.96 0 0 115.9 -194.71 0 0 121.46 167.82 0 0 115.9 -167.82 0 0 126.09zm525.71 -479.35l148.35 0 0 595.25 -139.08 0 -132.58 -312.46 0 312.46 -148.35 0 0 -595.25 139.07 0 132.59 318.02 0 -318.02zm581.35 0l0 115.9 -114.97 0 0 479.35 -162.26 0 0 -479.35 -114.04 0 0 -115.9 391.27 0z"/>
  <g id="thescreen35">
   <rect class="fil2 str0" x="17024.33" y="10216.78" width="140.37" height="258.57"/>
   <path class="fil2 str0" d="M16407.45 9278.52l1381.53 0c44.87,0 81.26,36.39 81.26,81.27l0 849.6c0,44.87 -36.39,81.26 -81.26,81.26l-1381.53 0c-44.88,0 -81.27,-36.39 -81.27,-81.26l0 -849.6c0,-44.88 36.39,-81.27 81.27,-81.27l0 0z"/>
   <path class="fil3" d="M16446.25 9306.95l1303.92 0c42.36,0 76.71,34.35 76.71,76.7l0 801.87c0,42.36 -34.35,76.7 -76.71,76.7l-1303.92 0.01c-42.35,-0.01 -76.7,-34.35 -76.7,-76.71l0 -801.87c0,-42.35 34.35,-76.7 76.7,-76.7l0 0z"/>
   <path class="fil4" d="M16446.25 9306.95l1303.92 0c42.36,0 76.71,34.35 76.71,76.7l0 801.87c0,42.36 -34.35,76.7 -76.71,76.7l-1303.92 0.01c-42.35,-0.01 -76.7,-34.35 -76.7,-76.71l0 -801.87c0,-42.35 34.35,-76.7 76.7,-76.7l0 0z"/>
   <rect class="fil2 str0" x="16427.29" y="10474.11" width="1359.36" height="81.27"/>
  </g>
  <rect class="fil5" x="16570.74" y="9352.05" width="1148.31" height="457.55"/>
  <rect class="fil6" x="16478.61" y="9944.09" width="1223.52" height="236.01"/>
  <g id="theLogo12">
   <path class="fil7" d="M16904.9 9659.6l-4.71 4.08 36.68 53.81 5.12 -3.47 -37.09 -54.42z"/>
   <path class="fil7" d="M17170.66 9593.58l3.1 -0.05c6.45,-0.09 14.94,-0.2 14.93,-1.19l-0.05 -6.46c0,-0.17 -1.3,-0.02 -3.11,-0.41 -1.48,-0.31 -3.19,-0.52 -4.91,-0.58 -1.73,-0.06 -3.47,0.03 -5.02,0.32 -2.44,0.45 -4.33,1.35 -4.46,2.85l-0.48 5.52z"/>
   <path class="fil7" d="M17194.41 9573.54l0 0.01c1.56,1.55 2.51,3.47 2.32,5.71l-0.81 9.91c-0.6,7.24 -5.3,11.07 -12.34,13.17 -5.92,1.76 -13.5,2.24 -21.6,2.62l-0.34 3.96c-0.23,2.65 1.87,3.78 4.53,4.01 1.4,0.12 2.93,0.03 4.43,-0.22 1.52,-0.25 6.19,0.69 7.49,0.18 3.36,-1.24 3.56,-2.57 0.72,-5.39 1.93,-1.62 3.62,-2.06 6.43,-2.79 1.83,-0.47 4.21,-1.09 7.64,-2.36l3.07 -1.14 -0.07 3.28c-0.15,7.5 -1.47,12.62 -4.19,16.1 -2.84,3.62 -5.73,6.79 -12.76,6.8l-22.82 0.24c-8.45,-0.02 -18.83,-5.37 -17.56,-14l4.66 -31.58c1.22,-8.25 6.63,-12.02 14.82,-12.04l28.19 -0.07c4.04,0.02 6.4,1.8 8.19,3.6z"/>
   <path class="fil7" d="M17130.04 9609.82c0.29,14.27 -7.15,17.81 -11.26,17.77l-13.4 -0.14c-1.68,-0.28 -4.02,-1.61 -5.61,-5.71 -2.07,3.06 -6.16,5.74 -8.93,5.86l-7.21 -0.05c-11.58,0.03 -15.27,-9.67 -14.95,-18.24l4.01 -37.93 20.56 -13.06 -6.18 51.16c0.08,0.79 0.23,1.29 0.44,1.59 0.08,0.11 0.2,0.16 0.34,0.17 0.38,0.03 0.88,-0.1 1.41,-0.34 1.35,-0.6 2.69,-1.74 3.44,-2.77l13.38 -20.98 0.16 7.36c0.06,9.15 4.11,15.57 9.46,14.02l-4.57 -38.34 20.93 -0.07 -2.02 39.7z"/>
   <path class="fil7" d="M17240.91 9569.99l-1.69 63.24c-0.53,12.36 -6.68,18.65 -15.72,19.85l-9.33 0.64c-9.49,1.07 -24.88,-4.56 -25.09,-26.42l21.66 0c0.24,12.9 5.85,6.58 5.42,0.63l0.07 -57.9 24.68 -0.04z"/>
   <path class="fil7" d="M17218.31 9539.71l22.67 -1.11 0 22.13 -25.4 1.24 0 -22.12 2.73 -0.14z"/>
   <path class="fil7" d="M17271.6 9603.05l-1.22 0.27c-1.52,0.32 -3.45,0.7 -5.78,1.13 -2.08,0.38 -3.84,0.77 -5.27,1.16 -1.27,0.34 -2.17,0.66 -2.67,0.94 -0.71,0.44 -1.22,0.91 -1.55,1.41 -0.27,0.41 -0.41,0.88 -0.41,1.4 0,1.21 0.56,2.27 1.67,3.2 0.6,0.5 1.3,0.88 2.09,1.14 0.82,0.26 1.75,0.4 2.8,0.4 1.23,0 2.42,-0.17 3.57,-0.5 1.15,-0.34 2.29,-0.85 3.42,-1.54 0.76,-0.49 1.39,-1.02 1.88,-1.6 0.45,-0.53 0.78,-1.1 0.98,-1.71l0.01 -0.03c0.14,-0.41 0.26,-1.07 0.35,-1.98 0.09,-0.94 0.13,-2.17 0.13,-3.69z"/>
   <path class="fil7" d="M17252.65 9592.2l1.86 -11.58c0,0 0.25,-9.24 13.84,-10.59l20.64 -0.13c12.12,1.03 16.25,11.7 16.25,22.17l-1.17 21.24 6.69 13.13 -51.28 0.43c-6.25,0.1 -11.72,-5.03 -10.33,-12.85l1.52 -8.53c1.93,-10.8 25.27,-12.68 34.48,-15.71 -0.07,-2.79 -0.91,-3.87 -3.72,-4.42l-8.14 -0.06c-3.04,0.66 -3.2,1 -3.96,2.86l-16.68 4.04z"/>
   <path class="fil7" d="M17319 9584.75c-4.45,-7.38 -4.09,-8.34 -10.56,-14.52l24.93 0.15 1.61 8.75c4.35,-3.66 6.86,-8.32 19.95,-9.26l10.11 -0.07 -8.33 16.52c-16.06,5.87 -17.8,4.09 -17.43,15.33l0.88 26.29 -19.84 0.02 -1.32 -43.21z"/>
   <path class="fil7" d="M17023.26 9511.13l42.08 -0.13 0.56 0.23c9.29,3.8 20.35,12.36 18.99,28.78l-1.18 14.33c-0.11,10.15 -11.25,16.22 -20.85,16.26l-23.93 -0.03c-5.54,0.03 -9.61,2.39 -9.57,9.7l0.3 60.17 -27.39 -18.89 -0.28 -49.62c-0.03,-6.25 2.14,-11.82 5.8,-16.29 3.81,-4.65 9.23,-8.1 15.42,-9.88l37.8 -0.81c3.18,-1.98 2.9,-5.46 -0.12,-7.29l-64.72 0.25 27.09 -26.78z"/>
   <path class="fil7" d="M16777.52 9608.77l7.56 12.55c101.99,84.72 53.04,77.17 154.38,3.45l8.47 -16c7.11,7.97 7.11,21.01 0,28.99l-72.28 81.1c-7.11,7.96 -18.74,7.96 -25.84,0l-72.29 -81.1c-7.1,-7.98 -7.1,-21.02 0,-28.99z"/>
   <path class="fil7" d="M16862.63 9538.29c35.36,0 63.8,35.78 63.8,68.54 0,32.77 -64.03,68.94 -64.03,68.94 0,0 -64.03,-36.17 -64.03,-68.94 0,-32.76 28.89,-68.54 64.26,-68.54z"/>
   <path class="fil7" d="M16820.81 9547.21l-31.48 -46.2 -1.17 -0.27 -4 -4.74 -21.05 -10.39 -3.08 -33.41 29.87 15.29 1.09 21.84 4.13 6.72 -0.55 1.66 30.93 45.39 -4.69 4.11z"/>
   <path class="fil8" d="M16872.37 9554.45c13.28,7.3 26.41,18.95 32.28,33.41 -0.02,-1.01 -0.09,-2 -0.22,-2.94 -3.67,-27.89 -19.74,-37.05 -22.74,-39.79 28.03,15.4 55.43,50.22 15.23,89.99 -1.32,1.3 -2.27,2.05 -2.92,2.35 -1.91,2.3 -4.03,4.62 -6.4,6.97 -13.31,13.16 10.33,-28.78 7.51,-50.2 -3.67,-27.89 -19.75,-37.04 -22.74,-39.79z"/>
   <path class="fil9" d="M16874.53 9586.9c8.58,4.71 17.07,12.24 20.87,21.59 -0.02,-0.65 -0.06,-1.29 -0.14,-1.9 -2.38,-18.03 -12.77,-23.95 -14.71,-25.72 18.13,9.95 35.84,32.46 9.85,58.17 -0.85,0.84 -1.46,1.33 -1.89,1.52 -1.23,1.49 -2.61,2.99 -4.14,4.5 -8.6,8.52 6.69,-18.6 4.86,-32.45 -2.37,-18.02 -12.76,-23.94 -14.7,-25.71z"/>
   <path class="fil8" d="M16853.34 9560.97c-13.28,7.3 -26.41,18.95 -32.28,33.41 0.03,-1.01 0.1,-2 0.22,-2.94 3.68,-27.89 19.74,-37.04 22.74,-39.79 -28.03,15.41 -55.43,50.22 -15.23,89.99 1.32,1.3 2.27,2.06 2.92,2.35 1.91,2.31 4.04,4.63 6.4,6.97 13.31,13.17 -10.33,-28.78 -7.51,-50.2 3.68,-27.88 19.74,-37.04 22.74,-39.79z"/>
   <path class="fil9" d="M16849.91 9591.18c-8.58,4.71 -17.07,12.25 -20.87,21.6 0.02,-0.66 0.07,-1.3 0.15,-1.91 2.37,-18.02 12.76,-23.94 14.7,-25.72 -18.13,9.96 -35.83,32.46 -9.85,58.17 0.85,0.85 1.47,1.34 1.89,1.53 1.24,1.48 2.61,2.99 4.14,4.5 8.6,8.51 -6.68,-18.6 -4.86,-32.45 2.38,-18.03 12.77,-23.95 14.7,-25.72z"/>
   <path class="fil7" d="M16929.24 9499.8c9.38,-3.21 14,-3.77 15.83,-3.76 -1.01,-0.34 -2.64,-1.27 -4.14,-3.59 -3.39,-5.28 -17.73,-2.88 -10.75,-5.38 24.52,-8.77 -0.86,-4.46 3.34,-8.4 18.46,-17.31 14.49,-8.16 -1.81,-14.68 18.27,-15.37 -4,-3.78 -12.34,-12.62 18.54,-33.19 -17.68,-12.72 -8.35,-27.36 8.54,-13.4 -20.71,4.87 -20.96,-1.82 -0.36,-9.44 14.48,-11.8 5.83,-13.12 -14.2,-2.16 -36.43,26.17 -43.17,35.58 -8.69,12.13 -13.73,7.29 -16.67,22.44 -3.11,16 -9.7,15.41 -9.62,23.38 0.05,5.25 -2.68,1.84 -2.03,6.37 6.98,4.04 -1.47,3.92 3.99,4.97 5.57,1.08 -6.44,19.12 19.28,6.95l1.58 -1.26c-0.33,5.09 4.27,15.6 7.44,25.62 2.05,-0.25 4.14,-0.38 6.25,-0.38 17.76,0 33.78,9.03 45.32,22.17 2.19,-2.92 2.65,-6.58 0.57,-10.95 -5.04,-0.57 -16.21,-15.25 -17.94,-18.16 -7.8,-13.14 -23.96,-19.4 -11.08,-16.3 10.01,2.41 47.52,-2.84 50.03,-3.81 23.4,-8.98 -13.39,-1.52 -0.6,-5.89z"/>
  </g>
  <rect class="fil10" x="16570.74" y="9723.37" width="1054.37" height="456.72"/>
  <path class="fil3 str0" d="M17159.01 9803.76l383.18 0c36.36,0 65.84,29.48 65.84,65.84l0 0c0,36.36 -29.48,65.84 -65.84,65.84l-383.18 0c-36.35,0 -65.84,-29.48 -65.84,-65.84l0 0c0,-36.36 29.49,-65.84 65.84,-65.84z"/>
  <path class="fil6 str1" d="M17442.59 9931.58l-2.08 0.06c0.21,-1.24 -0.26,-2.91 0.25,-4.01 -1.4,-0.97 -3.91,0.36 -5.41,-0.48 -0.93,0.42 -2.19,0.31 -3.1,0.19l-1.22 -0.02c0.02,-0.69 -0.06,-1.66 -0.07,-2.42 -0.02,-0.92 0.25,-1.4 -0.6,-2.08l-2.48 0.25c-0.86,0.01 -1.52,0.1 -2.46,-0.01l-7.02 0.14c-0.16,-0.74 -0.17,-1.47 -0.16,-2.31 0,-0.95 0.05,-1.36 -0.19,-2 -1.62,-0.13 -6.07,0.34 -7.06,-0.04 -0.84,0.35 -1.26,0.25 -2.24,0.15l-0.02 -3.83c-0.17,-0.59 -0.39,-8.13 -0.15,-8.78 -0.21,-0.43 -0.32,0.11 -0.09,-0.99 -0.33,-0.78 -0.34,-2.67 0,-3.3 -0.31,-0.71 -0.26,-1.19 -0.15,-1.95l-0.98 -0.24c-0.79,0.34 -2.17,0.31 -3.33,-0.01l-0.06 -4.17 -8.42 0.21 0.02 3.21 -0.1 -0.03c-0.61,0.24 -0.87,0.2 -1.65,0.22 -0.65,0.01 -0.85,0.02 -1.51,-0.04l-0.24 1.17c0.28,0.68 0.4,2.94 0.06,3.87 0.38,0.75 0.25,0.78 0.14,1.65 0.3,0.91 0.25,2.37 -0.04,3.07 0.39,0.9 0.44,3.29 0.11,4.11 0.26,0.4 0.18,-0.02 0.27,0.82 0.02,0.2 0.01,0.71 0.01,0.91 0,0.63 0.02,1.26 0.04,1.98 -0.07,1.22 0.01,3.05 0.07,4.23 0.06,1.33 0.43,3.08 -0.02,4.38 0.41,0.89 0.32,2.29 0.2,3.3 0.19,0.54 0.12,0.72 -0.1,1.3 0.38,0.81 0.38,3.35 0.19,4.32 0.2,0.5 0.38,5.86 0.16,6.62l-2.51 0.09c-0.01,-0.24 -0.02,-0.55 -0.04,-0.96 -0.04,-0.8 -0.07,-1.55 0.03,-2.23l-0.76 -0.27c-0.85,0.26 -2.97,0.39 -3.91,0 -0.66,0.3 -0.8,0.21 -1.63,0.24 -0.76,0.04 -1.03,0.1 -1.76,0l-0.77 -0.1c-0.3,0.1 -0.16,0.08 -0.56,0.14 -0.13,0.02 -0.47,0.04 -0.56,0.04 -0.39,0.02 -0.69,0.01 -1.1,0.03 -0.79,0.03 -1.24,0.1 -2.08,-0.02l-0.4 0.83c0.41,0.55 0.22,1.99 0.22,2.86 0.01,0.99 0.12,2.13 -0.02,3.15l0.17 0.46c-0.06,0.82 0.1,1.3 -0.19,2.05 0.3,0.7 0.21,0.86 0.25,1.84 0.03,0.78 0.05,1.06 0,1.83l0.76 0.35 3.24 -0.21 0.13 2.8 0.04 0.45 0.2 1.04c0.66,0.1 4.66,-0.28 3.76,0.28 0.46,1.13 0.36,2.33 0.18,3.48 0.36,0.71 0.22,4.84 0.3,5.95 0.58,0.13 2.87,0.12 4.21,-0.03 -0.02,0.53 0.07,0.74 -0.17,1.39 0.46,1.16 0.42,5.25 0.28,6.79l0.9 0.21c0.85,-0.31 2.27,-0.3 3.33,-0.07 0.01,1.24 -0.04,2.3 0.04,3.81 0.05,0.91 0.21,3.09 0.05,3.98 0.02,0.07 0.06,0.11 0.05,0.2 -0.01,0.09 0.05,0.15 0.07,0.19 0.37,0.55 -0.4,-0.29 0.47,0.54 0.35,-0.18 1.29,-0.08 2.21,-0.12 -0.01,0.26 0.02,0.44 -0.07,0.87l0.09 4.22 0.37 8.41 2.66 0.27c1.49,-0.68 -1.01,-0.11 0.44,-0.17 0.77,-0.03 -0.44,-0.18 0.8,0.07l10.49 -0.34c0.87,-0.2 5.41,-0.3 6.44,-0.15 2.1,-0.29 5.23,-0.12 7.6,-0.26 1.28,-0.08 2.5,-0.05 3.73,-0.11 1.05,-0.05 2.77,-0.31 3.78,0.11 1.62,-0.71 6.13,-0.22 8.28,-0.48l0.1 -1.07c-0.15,-0.85 -0.09,-1.5 -0.13,-2.3 -0.02,-0.46 -0.06,-0.7 -0.06,-1.08 0,-1.04 -0.11,-0.4 0.21,-1.14 -0.52,-1.08 -0.53,-6.7 -0.33,-7.99l0.12 -0.64 3.74 0.04c0.47,-1.11 -0.04,-4.79 0.16,-6.45 -0.42,-0.53 -0.11,-2.3 -0.17,-3.2 -0.07,-1.23 -0.31,-2.39 0.04,-3.72 1.19,0.14 2.92,0.21 4.02,-0.12l-0.1 -8.53c-0.33,-1.36 -0.36,-5.6 -0.19,-6.61 -0.33,-1 -0.6,-14.2 -0.32,-15.01 -0.35,-0.66 -0.28,-0.65 -0.22,-1.41l-0.93 -0.15 -3.19 0.26c0,-1.15 -0.04,-2.28 -0.15,-3.57 -0.97,-0.4 -1.07,-0.07 -2.21,-0.21zm-51.4 32.97l3.14 0.03 -3.14 -0.03 0 0z"/>
  <path class="fil11" d="M17222.25 9877.56l7.07 1.79c-1.48,5.8 -4.13,10.2 -7.97,13.25 -3.83,3.04 -8.53,4.56 -14.08,4.56 -5.73,0 -10.4,-1.16 -14,-3.51 -3.6,-2.33 -6.33,-5.72 -8.21,-10.16 -1.87,-4.44 -2.82,-9.19 -2.82,-14.28 0,-5.55 1.06,-10.4 3.18,-14.53 2.13,-4.13 5.14,-7.28 9.05,-9.42 3.91,-2.15 8.22,-3.22 12.91,-3.22 5.34,0 9.83,1.35 13.45,4.07 3.64,2.72 6.17,6.53 7.6,11.45l-6.93 1.64c-1.23,-3.87 -3.03,-6.71 -5.37,-8.47 -2.35,-1.77 -5.31,-2.66 -8.87,-2.66 -4.08,0 -7.51,0.99 -10.25,2.95 -2.75,1.96 -4.68,4.6 -5.79,7.91 -1.12,3.31 -1.68,6.72 -1.68,10.24 0,4.53 0.66,8.49 1.98,11.87 1.31,3.39 3.36,5.91 6.14,7.58 2.78,1.68 5.79,2.51 9.03,2.51 3.95,0 7.27,-1.14 10.01,-3.41 2.73,-2.29 4.58,-5.67 5.55,-10.16zm14.83 18.71l0 -53.33 6.55 0 0 53.33 -6.55 0zm16.7 -45.89l0 -7.44 6.55 0 0 7.44 -6.55 0zm0 45.89l0 -38.66 6.55 0 0 38.66 -6.55 0zm41.8 -14.15l6.4 0.89c-0.7,4.41 -2.49,7.85 -5.38,10.34 -2.9,2.5 -6.46,3.74 -10.67,3.74 -5.27,0 -9.52,-1.73 -12.72,-5.18 -3.22,-3.45 -4.82,-8.39 -4.82,-14.82 0,-4.17 0.69,-7.81 2.07,-10.94 1.38,-3.11 3.48,-5.46 6.31,-7.01 2.82,-1.57 5.88,-2.35 9.21,-2.35 4.19,0 7.62,1.06 10.28,3.18 2.67,2.12 4.38,5.14 5.13,9.04l-6.33 0.97c-0.61,-2.6 -1.68,-4.55 -3.23,-5.86 -1.54,-1.31 -3.4,-1.97 -5.59,-1.97 -3.3,0 -5.98,1.18 -8.05,3.54 -2.07,2.37 -3.1,6.1 -3.1,11.21 0,5.19 1,8.95 2.98,11.3 2,2.35 4.6,3.53 7.79,3.53 2.58,0 4.73,-0.79 6.44,-2.36 1.73,-1.57 2.82,-3.99 3.28,-7.25zm12.01 14.15l0 -53.33 6.56 0 0 30.37 15.49 -15.7 8.47 0 -14.75 14.36 16.24 24.3 -8.07 0 -12.84 -19.75 -4.54 4.42 0 15.33 -6.56 0zm59.03 0l0 -53.33 7.08 0 0 21.97 27.56 0 0 -21.97 7.08 0 0 53.33 -7.08 0 0 -25.1 -27.56 0 0 25.1 -7.08 0zm79.05 -12.51l6.77 0.89c-1.05,3.94 -3.02,7 -5.91,9.17 -2.88,2.18 -6.55,3.27 -11.03,3.27 -5.64,0 -10.11,-1.74 -13.41,-5.21 -3.3,-3.47 -4.95,-8.35 -4.95,-14.62 0,-6.48 1.66,-11.52 5,-15.09 3.34,-3.59 7.67,-5.38 13,-5.38 5.15,0 9.36,1.75 12.62,5.26 3.27,3.52 4.91,8.46 4.91,14.83 0,0.38 -0.01,0.97 -0.04,1.74l-28.79 0c0.25,4.23 1.44,7.48 3.6,9.73 2.15,2.25 4.84,3.38 8.06,3.38 2.39,0 4.44,-0.64 6.13,-1.9 1.7,-1.27 3.04,-3.29 4.04,-6.07zm-21.46 -10.51l21.53 0c-0.29,-3.25 -1.12,-5.68 -2.47,-7.31 -2.07,-2.52 -4.78,-3.79 -8.09,-3.79 -3.01,0 -5.53,1.01 -7.58,3.02 -2.03,2.01 -3.16,4.71 -3.39,8.08zm36.44 23.02l0 -38.66 5.89 0 0 5.92c1.5,-2.74 2.89,-4.55 4.17,-5.42 1.28,-0.89 2.68,-1.32 4.21,-1.32 2.21,0 4.45,0.7 6.74,2.07l-2.34 6.05c-1.59,-0.89 -3.17,-1.34 -4.76,-1.34 -1.43,0 -2.71,0.43 -3.84,1.29 -1.13,0.86 -1.94,2.05 -2.42,3.58 -0.73,2.32 -1.09,4.86 -1.09,7.63l0 20.2 -6.56 0zm51.26 -12.51l6.77 0.89c-1.05,3.94 -3.02,7 -5.91,9.17 -2.88,2.18 -6.55,3.27 -11.03,3.27 -5.64,0 -10.11,-1.74 -13.41,-5.21 -3.3,-3.47 -4.95,-8.35 -4.95,-14.62 0,-6.48 1.66,-11.52 5,-15.09 3.34,-3.59 7.67,-5.38 13,-5.38 5.15,0 9.36,1.75 12.62,5.26 3.27,3.52 4.91,8.46 4.91,14.83 0,0.38 -0.01,0.97 -0.04,1.74l-28.79 0c0.25,4.23 1.44,7.48 3.6,9.73 2.15,2.25 4.84,3.38 8.06,3.38 2.39,0 4.44,-0.64 6.13,-1.9 1.7,-1.27 3.04,-3.29 4.04,-6.07zm-21.46 -10.51l21.53 0c-0.29,-3.25 -1.12,-5.68 -2.47,-7.31 -2.07,-2.52 -4.78,-3.79 -8.09,-3.79 -3.01,0 -5.53,1.01 -7.58,3.02 -2.03,2.01 -3.16,4.71 -3.39,8.08z"/>
  <path class="fil12" d="M16659.7 10102.64l0 -22.05c4.49,-0.25 7.85,-0.91 10.14,-2.04 2.26,-1.1 4.21,-2.95 5.87,-5.56 1.67,-2.6 2.8,-5.87 3.43,-9.8 0.47,-2.95 0.72,-8.07 0.72,-15.39 0,-11.9 0.56,-20.19 1.66,-24.9 1.1,-4.72 3.08,-8.48 5.97,-11.34 2.89,-2.86 7.1,-5.09 12.6,-6.76 3.73,-1.09 9.64,-1.66 17.68,-1.66l4.87 0 0 22.05c-6.85,0 -11.22,0.38 -13.16,1.16 -1.95,0.75 -3.36,1.92 -4.31,3.49 -0.91,1.57 -1.38,4.24 -1.38,8.04 0,3.86 -0.25,11.21 -0.75,21.98 -0.32,6.1 -1.1,11 -2.39,14.8 -1.29,3.77 -2.92,6.88 -4.93,9.33 -1.98,2.44 -5.02,4.99 -9.14,7.63 3.64,2.07 6.6,4.52 8.92,7.32 2.32,2.79 4.08,6.18 5.31,10.17 1.25,3.99 2.04,9.36 2.42,16.05 0.37,10.18 0.56,16.71 0.56,19.54 0,4.05 0.5,6.88 1.48,8.48 0.97,1.57 2.45,2.79 4.46,3.61 1.98,0.85 6.28,1.26 12.91,1.26l0 22.04 -4.87 0c-8.29,0 -14.64,-0.66 -19.07,-1.97 -4.39,-1.32 -8.13,-3.52 -11.15,-6.6 -3.04,-3.05 -5.08,-6.85 -6.12,-11.37 -1.04,-4.49 -1.57,-11.62 -1.57,-21.33 0,-11.27 -0.5,-18.62 -1.48,-21.98 -1.35,-4.93 -3.39,-8.45 -6.12,-10.56 -2.73,-2.13 -6.91,-3.32 -12.56,-3.64zm166.62 -30.9l-25.44 4.52c-0.85,-5.06 -2.8,-8.86 -5.84,-11.43 -3.05,-2.55 -6.98,-3.84 -11.81,-3.84 -6.44,0 -11.59,2.23 -15.43,6.69 -3.83,4.46 -5.74,11.91 -5.74,22.37 0,11.62 1.94,19.82 5.84,24.62 3.89,4.81 9.11,7.19 15.64,7.19 4.9,0 8.92,-1.41 12.03,-4.21 3.14,-2.79 5.34,-7.6 6.63,-14.44l25.44 4.33c-2.64,11.69 -7.7,20.51 -15.17,26.48 -7.48,5.97 -17.5,8.95 -30.09,8.95 -14.26,0 -25.66,-4.52 -34.14,-13.54 -8.51,-9.04 -12.76,-21.54 -12.76,-37.53 0,-16.18 4.28,-28.74 12.79,-37.75 8.51,-9.02 20.04,-13.51 34.58,-13.51 11.87,0 21.32,2.58 28.36,7.7 7,5.12 12.03,12.91 15.11,23.4zm13.6 18.68c0,-8.6 2.1,-16.93 6.34,-24.97 4.24,-8.07 10.24,-14.19 18,-18.43 7.76,-4.24 16.39,-6.38 25.97,-6.38 14.8,0 26.89,4.81 36.34,14.42 9.46,9.64 14.17,21.76 14.17,36.46 0,14.83 -4.78,27.11 -14.29,36.84 -9.55,9.74 -21.55,14.61 -36.03,14.61 -8.95,0 -17.49,-2.04 -25.63,-6.09 -8.1,-4.06 -14.29,-9.99 -18.53,-17.84 -4.24,-7.82 -6.34,-17.37 -6.34,-28.62zm26.57 1.39c0,9.7 2.29,17.14 6.88,22.3 4.61,5.18 10.27,7.75 17.02,7.75 6.72,0 12.38,-2.57 16.93,-7.75 4.55,-5.16 6.85,-12.66 6.85,-22.49 0,-9.58 -2.3,-16.96 -6.85,-22.11 -4.55,-5.19 -10.21,-7.76 -16.93,-7.76 -6.75,0 -12.41,2.57 -17.02,7.76 -4.59,5.15 -6.88,12.59 -6.88,22.3zm184.27 48.71l-23.93 0 0 -14.35c-3.99,5.59 -8.73,9.76 -14.17,12.59 -5.43,2.8 -10.93,4.21 -16.46,4.21 -11.27,0 -20.91,-4.52 -28.95,-13.6 -8.01,-9.08 -12.03,-21.7 -12.03,-37.94 0,-16.58 3.89,-29.21 11.71,-37.85 7.82,-8.64 17.68,-12.94 29.62,-12.94 10.93,0 20.42,4.56 28.39,13.63l0 -48.68 25.82 0 0 134.93zm-68.97 -50.79c0,10.46 1.44,18.03 4.3,22.71 4.18,6.79 9.99,10.18 17.46,10.18 5.94,0 11,-2.55 15.14,-7.63 4.18,-5.09 6.25,-12.66 6.25,-22.78 0,-11.27 -2.01,-19.37 -6.06,-24.34 -4.05,-4.96 -9.2,-7.44 -15.51,-7.44 -6.13,0 -11.25,2.45 -15.39,7.35 -4.12,4.9 -6.19,12.22 -6.19,21.95zm150.91 19.88l25.82 4.34c-3.3,9.45 -8.54,16.64 -15.67,21.61 -7.16,4.93 -16.11,7.41 -26.82,7.41 -17,0 -29.59,-5.56 -37.73,-16.68 -6.43,-8.92 -9.67,-20.16 -9.67,-33.76 0,-16.21 4.24,-28.93 12.69,-38.1 8.45,-9.2 19.16,-13.79 32.1,-13.79 14.51,0 25.97,4.81 34.39,14.42 8.39,9.61 12.41,24.34 12.03,44.19l-64.64 0c0.19,7.66 2.26,13.63 6.25,17.9 3.96,4.27 8.92,6.41 14.83,6.41 4.05,0 7.44,-1.1 10.17,-3.3 2.77,-2.2 4.84,-5.75 6.25,-10.65zm1.51 -26.19c-0.19,-7.51 -2.1,-13.22 -5.78,-17.12 -3.67,-3.92 -8.13,-5.87 -13.41,-5.87 -5.62,0 -10.27,2.07 -13.94,6.19 -3.68,4.11 -5.47,9.73 -5.41,16.8l38.54 0zm50.91 -14.89l0 -25.82 25.82 0 0 25.82 -25.82 0zm0 46.17l25.82 0 0 18.5c0,7.48 -0.63,13.41 -1.91,17.72 -1.29,4.33 -3.74,8.23 -7.32,11.65 -3.58,3.45 -8.14,6.12 -13.63,8.1l-5.03 -10.74c5.18,-1.73 8.86,-4.11 11.06,-7.16 2.16,-3.08 3.33,-7.16 3.45,-12.25l-12.44 0 0 -25.82zm112.13 -12.06c-4.49,0.25 -7.85,0.91 -10.12,2.01 -2.29,1.13 -4.24,2.99 -5.87,5.59 -1.6,2.61 -2.76,5.88 -3.45,9.8 -0.47,2.95 -0.73,8.04 -0.73,15.3 0,11.9 -0.53,20.22 -1.6,24.97 -1.07,4.71 -3.04,8.51 -5.93,11.37 -2.89,2.86 -7.13,5.09 -12.69,6.75 -3.74,1.1 -9.65,1.66 -17.69,1.66l-4.86 0 0 -22.04c6.59,0 10.89,-0.41 12.94,-1.26 2.01,-0.82 3.51,-2.01 4.46,-3.58 0.97,-1.57 1.44,-4.21 1.47,-7.98 0.03,-3.74 0.28,-10.9 0.72,-21.45 0.32,-6.41 1.14,-11.5 2.49,-15.36 1.35,-3.83 3.14,-7.1 5.37,-9.77 2.26,-2.67 5.12,-4.99 8.6,-7.03 -4.52,-2.96 -7.85,-5.84 -9.92,-8.64 -2.89,-4.05 -4.87,-9.2 -5.91,-15.48 -0.66,-4.28 -1.13,-13.73 -1.38,-28.33 -0.06,-4.59 -0.47,-7.67 -1.26,-9.21 -0.75,-1.5 -2.13,-2.7 -4.14,-3.52 -2.01,-0.84 -6.47,-1.25 -13.44,-1.25l0 -22.05 4.86 0c8.3,0 14.64,0.66 19.07,1.95 4.4,1.29 8.1,3.48 11.12,6.56 3.01,3.11 5.05,6.91 6.12,11.43 1.07,4.5 1.6,11.63 1.6,21.33 0,11.21 0.48,18.56 1.39,21.99 1.35,4.93 3.39,8.45 6.15,10.55 2.77,2.14 6.97,3.33 12.63,3.64l0 22.05z"/>
  <g id="_2320448857456">
   <g id="thescreen35_0">
    <rect class="fil2 str0" x="11513.37" y="10177.49" width="144.19" height="265.62"/>
    <path class="fil2 str0" d="M10879.68 9213.67l1419.16 0c46.1,0 83.49,37.38 83.49,83.48l0 872.75c0,46.1 -37.39,83.48 -83.49,83.48l-1419.16 0c-46.1,0 -83.48,-37.38 -83.48,-83.48l0 -872.75c0,-46.1 37.38,-83.48 83.48,-83.48l0 0z"/>
    <path class="fil3" d="M10919.54 9242.87l1339.44 0c43.51,0 78.8,35.28 78.8,78.79l0 823.73c0,43.5 -35.29,78.79 -78.8,78.79l-1339.44 0c-43.51,0 -78.79,-35.29 -78.79,-78.8l0 -823.72c0,-43.51 35.28,-78.79 78.79,-78.79l0 0z"/>
    <path class="fil13" d="M10919.54 9242.87l1339.44 0c43.51,0 78.8,35.28 78.8,78.79l0 823.73c0,43.5 -35.29,78.79 -78.8,78.79l-1339.44 0c-43.51,0 -78.79,-35.29 -78.79,-78.8l0 -823.72c0,-43.51 35.28,-78.79 78.79,-78.79l0 0z"/>
    <rect class="fil2 str0" x="10900.06" y="10441.83" width="1396.4" height="83.48"/>
   </g>
   <g id="theLogo12_1">
    <path class="fil7" d="M11119.29 9512.26l-2.25 1.95 17.51 25.69 2.44 -1.65 -17.7 -25.99z"/>
    <path class="fil7" d="M11246.18 9480.74l1.48 -0.03c3.08,-0.04 7.13,-0.09 7.13,-0.56l-0.03 -3.09c0,-0.08 -0.62,-0.01 -1.48,-0.19 -0.71,-0.15 -1.53,-0.26 -2.35,-0.28 -0.82,-0.03 -1.65,0.01 -2.39,0.15 -1.17,0.22 -2.07,0.65 -2.13,1.36l-0.23 2.64z"/>
    <path class="fil7" d="M11257.52 9471.17l0 0c0.74,0.75 1.19,1.66 1.11,2.73l-0.39 4.73c-0.29,3.46 -2.53,5.29 -5.89,6.29 -2.83,0.84 -6.45,1.07 -10.32,1.25l-0.16 1.89c-0.11,1.27 0.89,1.81 2.16,1.92 0.67,0.06 1.41,0.01 2.12,-0.11 0.72,-0.12 2.95,0.33 3.58,0.09 1.6,-0.6 1.7,-1.23 0.34,-2.57 0.92,-0.78 1.73,-0.99 3.07,-1.34 0.87,-0.22 2.01,-0.52 3.65,-1.13l1.46 -0.54 -0.03 1.57c-0.07,3.58 -0.7,6.02 -2,7.68 -1.36,1.73 -2.74,3.24 -6.09,3.25l-10.9 0.11c-4.03,0 -8.99,-2.56 -8.38,-6.68l2.22 -15.08c0.58,-3.94 3.17,-5.74 7.08,-5.75l13.46 -0.03c1.93,0.01 3.05,0.86 3.91,1.72z"/>
    <path class="fil7" d="M11226.78 9488.49c0.14,6.82 -3.41,8.51 -5.37,8.49l-6.4 -0.07c-0.8,-0.13 -1.92,-0.77 -2.68,-2.73 -0.99,1.46 -2.94,2.75 -4.26,2.8l-3.45 -0.02c-5.53,0.01 -7.28,-4.62 -7.13,-8.71l1.91 -18.11 9.82 -6.24 -2.95 24.43c0.03,0.38 0.11,0.62 0.21,0.76 0.03,0.05 0.09,0.08 0.16,0.08 0.18,0.01 0.42,-0.05 0.67,-0.16 0.65,-0.29 1.29,-0.83 1.65,-1.32l6.38 -10.02 0.08 3.51c0.03,4.37 1.96,7.43 4.52,6.7l-2.19 -18.31 10 -0.03 -0.97 18.95z"/>
    <path class="fil7" d="M11279.72 9469.47l-0.8 30.2c-0.26,5.9 -3.2,8.9 -7.51,9.48l-4.46 0.3c-4.53,0.51 -11.88,-2.18 -11.97,-12.61l10.34 0c0.11,6.16 2.79,3.14 2.58,0.3l0.03 -27.65 11.79 -0.02z"/>
    <path class="fil7" d="M11268.93 9455.02l10.83 -0.53 0 10.56 -12.13 0.6 0 -10.57 1.3 -0.06z"/>
    <path class="fil7" d="M11294.38 9485.26l-0.59 0.13c-0.72,0.15 -1.64,0.33 -2.76,0.54 -0.99,0.18 -1.83,0.36 -2.52,0.55 -0.6,0.16 -1.03,0.32 -1.27,0.45 -0.34,0.21 -0.58,0.44 -0.74,0.67 -0.13,0.2 -0.19,0.43 -0.19,0.67 0,0.58 0.26,1.09 0.79,1.53 0.29,0.24 0.62,0.42 1,0.54 0.39,0.13 0.84,0.19 1.34,0.19 0.59,0 1.15,-0.08 1.7,-0.24 0.55,-0.16 1.1,-0.4 1.63,-0.73 0.37,-0.23 0.67,-0.49 0.9,-0.76 0.22,-0.26 0.37,-0.53 0.47,-0.82l0 -0.01c0.07,-0.2 0.13,-0.52 0.17,-0.95 0.04,-0.45 0.07,-1.03 0.07,-1.76z"/>
    <path class="fil7" d="M11285.33 9480.08l0.89 -5.53c0,0 0.11,-4.41 6.6,-5.06l9.86 -0.06c5.78,0.49 7.76,5.59 7.76,10.59l-0.56 10.14 3.19 6.27 -24.49 0.2c-2.98,0.05 -5.59,-2.4 -4.92,-6.13l0.72 -4.08c0.92,-5.15 12.06,-6.05 16.46,-7.5 -0.03,-1.33 -0.43,-1.84 -1.77,-2.11l-3.89 -0.03c-1.45,0.32 -1.53,0.48 -1.89,1.37l-7.96 1.93z"/>
    <path class="fil7" d="M11317.01 9476.52c-2.12,-3.52 -1.96,-3.98 -5.05,-6.93l11.91 0.07 0.77 4.18c2.07,-1.75 3.27,-3.98 9.52,-4.42l4.83 -0.04 -3.98 7.89c-7.67,2.8 -8.5,1.95 -8.32,7.32l0.42 12.55 -9.47 0.01 -0.63 -20.63z"/>
    <path class="fil7" d="M11175.8 9441.37l20.09 -0.06 0.27 0.11c4.43,1.81 9.72,5.9 9.07,13.74l-0.57 6.84c-0.05,4.85 -5.37,7.75 -9.95,7.77l-11.43 -0.02c-2.65,0.01 -4.59,1.14 -4.57,4.63l0.14 28.73 -13.07 -9.02 -0.14 -23.69c-0.01,-2.99 1.03,-5.64 2.77,-7.78 1.82,-2.22 4.41,-3.87 7.36,-4.72l18.05 -0.38c1.52,-0.95 1.39,-2.61 -0.06,-3.48l-30.89 0.12 12.93 -12.79z"/>
    <path class="fil7" d="M11058.47 9487.99l3.61 5.99c48.69,40.45 25.32,36.85 73.71,1.65l4.04 -7.64c3.39,3.81 3.39,10.03 0,13.84l-34.51 38.72c-3.39,3.81 -8.95,3.81 -12.34,0l-34.51 -38.72c-3.4,-3.81 -3.4,-10.03 0,-13.84z"/>
    <path class="fil7" d="M11099.1 9454.34c16.89,0 30.46,17.08 30.46,32.73 0,15.64 -30.57,32.91 -30.57,32.91 0,0 -30.57,-17.27 -30.57,-32.91 0,-15.65 13.8,-32.73 30.68,-32.73z"/>
    <path class="fil7" d="M11079.14 9458.59l-15.04 -22.05 -0.55 -0.13 -1.92 -2.26 -10.04 -4.96 -1.48 -15.96 14.27 7.3 0.51 10.43 1.98 3.21 -0.27 0.79 14.77 21.67 -2.23 1.96z"/>
    <path class="fil8" d="M11103.75 9462.05c6.34,3.49 12.61,9.05 15.42,15.96 -0.02,-0.49 -0.05,-0.96 -0.11,-1.41 -1.75,-13.31 -9.43,-17.69 -10.86,-19 13.39,7.36 26.47,23.98 7.27,42.97 -0.62,0.62 -1.08,0.98 -1.39,1.12 -0.91,1.1 -1.93,2.21 -3.06,3.33 -6.35,6.29 4.94,-13.74 3.59,-23.97 -1.75,-13.31 -9.43,-17.69 -10.86,-19z"/>
    <path class="fil9" d="M11104.78 9477.55c4.1,2.25 8.16,5.84 9.97,10.31 -0.01,-0.32 -0.03,-0.62 -0.07,-0.91 -1.13,-8.61 -6.09,-11.44 -7.02,-12.28 8.65,4.75 17.11,15.5 4.7,27.77 -0.4,0.4 -0.7,0.64 -0.9,0.73 -0.59,0.71 -1.24,1.43 -1.97,2.15 -4.11,4.07 3.19,-8.88 2.32,-15.49 -1.14,-8.61 -6.1,-11.44 -7.03,-12.28z"/>
    <path class="fil8" d="M11094.67 9465.17c-6.34,3.48 -12.61,9.04 -15.42,15.95 0.02,-0.48 0.05,-0.95 0.11,-1.4 1.75,-13.32 9.43,-17.69 10.86,-19 -13.39,7.35 -26.47,23.97 -7.28,42.96 0.63,0.63 1.09,0.99 1.4,1.13 0.91,1.1 1.93,2.21 3.06,3.32 6.35,6.29 -4.94,-13.73 -3.59,-23.96 1.75,-13.32 9.43,-17.69 10.86,-19z"/>
    <path class="fil9" d="M11093.03 9479.59c-4.1,2.25 -8.15,5.85 -9.96,10.31 0,-0.31 0.02,-0.62 0.06,-0.91 1.14,-8.6 6.1,-11.43 7.02,-12.28 -8.65,4.76 -17.11,15.5 -4.7,27.78 0.41,0.4 0.7,0.63 0.9,0.72 0.59,0.72 1.25,1.43 1.98,2.15 4.11,4.07 -3.19,-8.88 -2.32,-15.49 1.13,-8.6 6.1,-11.43 7.02,-12.28z"/>
    <path class="fil7" d="M11130.91 9435.96c4.48,-1.53 6.68,-1.8 7.55,-1.8 -0.48,-0.16 -1.26,-0.6 -1.97,-1.71 -1.62,-2.52 -8.47,-1.38 -5.14,-2.57 11.71,-4.19 -0.41,-2.13 1.6,-4.01 8.81,-8.26 6.92,-3.9 -0.87,-7.01 8.73,-7.34 -1.91,-1.8 -5.88,-6.02 8.84,-15.85 -8.45,-6.08 -3.99,-13.07 4.08,-6.4 -9.89,2.33 -10.01,-0.87 -0.17,-4.5 6.91,-5.63 2.78,-6.26 -6.78,-1.03 -17.39,12.5 -20.61,16.99 -4.15,5.79 -6.56,3.48 -7.96,10.71 -1.48,7.64 -4.63,7.36 -4.59,11.17 0.02,2.5 -1.28,0.87 -0.97,3.04 3.33,1.93 -0.7,1.87 1.91,2.37 2.65,0.52 -3.08,9.13 9.2,3.32l0.75 -0.6c-0.15,2.43 2.04,7.44 3.55,12.23 0.99,-0.12 1.98,-0.18 2.99,-0.18 8.48,0 16.13,4.31 21.64,10.59 1.04,-1.4 1.27,-3.15 0.27,-5.23 -2.41,-0.28 -7.74,-7.28 -8.56,-8.68 -3.73,-6.27 -11.45,-9.26 -5.3,-7.78 4.78,1.15 22.69,-1.36 23.89,-1.82 11.18,-4.28 -6.39,-0.72 -0.28,-2.81z"/>
   </g>
   <rect class="fil2" x="11485.64" y="9289.21" width="741.37" height="295.4"/>
   <rect class="fil10" x="11143.91" y="9636.74" width="1083.1" height="202.72"/>
   <rect class="fil6" x="10952.78" y="9897.37" width="1256.86" height="242.44"/>
   <g id="_2028849727536">
    <path class="fil14" d="M11579.6 8717.01c6.82,16.68 -1.16,35.73 -17.83,42.56 -16.68,6.82 -35.72,-1.16 -42.55,-17.84 -6.82,-16.67 1.16,-35.72 17.83,-42.55 16.67,-6.83 35.72,1.16 42.55,17.83zm-89.81 36.78c2.35,5.76 5.45,10.99 9.14,15.64l249.38 426.84 -136.79 -492.33 -2.49 1.02c-13.48,-32.94 -51.1,-48.71 -84.03,-35.22 -32.93,13.48 -48.7,51.11 -35.21,84.05z"/>
    <path class="fil14" d="M11538.5 8880.28l-67.75 -105.18 -123.06 422.76 190.81 -317.58z"/>
    <path class="fil14" d="M11541.89 8593.74l-10.33 1.09c-7.31,0.78 -12.65,7.39 -11.88,14.69l5.46 51.44c12.17,-4.92 24.96,-5.87 36.94,-3.43l-5.5 -51.92c-0.78,-7.31 -7.39,-12.65 -14.69,-11.87z"/>
   </g>
   <path class="fil14" d="M10972.76 9127.74c1.23,-4.63 3.28,-5.42 6.54,-9.7l21.3 -27.43c4.98,-6.26 9.18,-11.65 14.3,-18.18 5.14,-6.54 9.11,-11.96 14.26,-18.23 42.27,-51.53 86.43,-112.19 128.47,-163.9l43.8 -55.13 0.2 292.42c-6.24,0.01 -8.22,-1.06 -11.96,-1.17l-17.58 1.19c-6.23,0 -8.21,-1.07 -11.95,-1.17l-17.58 1.19c-6.23,0 -8.21,-1.07 -11.95,-1.17l-17.58 1.19c-6.23,0.01 -8.21,-1.07 -11.95,-1.18l-17.58 1.2c-6.24,0 -8.21,-1.07 -11.95,-1.18l-17.58 1.2c-6.24,0 -8.21,-1.07 -11.95,-1.18l-17.58 1.2c-6.24,0 -8.21,-1.07 -11.95,-1.18 -9.95,-0.28 -5.11,2.07 -28.33,0.12 -5.19,-0.43 -6.02,0.94 -11.4,1.09zm301.26 72.17l-0.38 -580.41c-6.75,4.53 -46.62,58.4 -57.19,71.27l-384.94 490.7c-3.43,4.23 -12.55,14.25 -13.74,18.74l456.25 -0.3z"/>
   <path class="fil14" d="M12433.56 10136.94l-27.69 0 0 6.39 27.69 0 0 -6.39zm10.65 -12.78l-38.34 0 0 6.39 38.34 0 0 -6.39zm-10.65 -10.64l-27.69 0 0 4.25 27.69 0 0 -4.25zm10.65 -12.78l-38.34 0 0 4.26 38.34 0 0 -4.26zm-10.65 -12.78l-27.69 0 0 6.39 27.69 0 0 -6.39zm10.65 -12.78l-38.34 0 0 6.39 38.34 0 0 -6.39zm-10.65 -10.65l-27.69 0 0 4.26 27.69 0 0 -4.26zm10.65 -12.77l-38.34 0 0 4.25 38.34 0 0 -4.25zm-10.65 -12.78l-27.69 0 0 6.39 27.69 0 0 -6.39zm10.65 -12.78l-38.34 0 0 6.39 38.34 0 0 -6.39zm-10.65 -10.65l-27.69 0 0 4.26 27.69 0 0 -4.26zm10.65 -12.77l-38.34 0 0 4.26 38.34 0 0 -4.26zm-10.65 -12.78l-27.69 0 0 6.39 27.69 0 0 -6.39zm10.65 -12.78c-16.56,0 -26.32,2.8 -38.34,0l0 6.39 38.34 0 0 -6.39zm-10.65 -10.65l-27.69 0 0 4.26 27.69 0 0 -4.26zm10.65 -12.78l-38.34 0 0 6.39 38.34 0 0 -6.39zm-38.34 -12.77l0 6.39 27.69 0c-2.95,-11.03 -1.82,-5.05 -10.61,-4.92 -7.98,0.11 -7.32,-1.47 -17.08,-1.47zm38.34 -10.65l-38.34 0 0 4.26 38.34 0 0 -4.26zm-10.65 -12.78l-27.69 0 0 6.39 27.69 0 0 -6.39zm10.65 -12.78l-38.34 0 0 6.39 38.34 0 0 -6.39zm-10.65 -10.64l-27.69 0 0 4.26 27.69 0 0 -4.26zm10.65 -12.78l-38.34 0 0 4.26 38.34 0 0 -4.26zm-10.65 -12.78l-27.69 0 0 6.39 27.69 0 0 -6.39zm10.65 -12.78l-38.34 0 0 6.39 38.34 0 0 -6.39zm-10.65 -10.65l-27.69 0 0 4.26 27.69 0 0 -4.26zm10.65 -12.77l-38.34 0 0 4.26 38.34 0 0 -4.26zm-10.65 -12.78l-27.69 0 0 6.39 27.69 0 0 -6.39zm10.65 -12.78l-38.34 0 0 6.39 38.34 0 0 -6.39zm-10.65 -10.64l-27.69 0 0 4.25 27.69 0 0 -4.25zm10.65 -12.78l-38.34 0 0 4.26 38.34 0 0 -4.26zm-10.65 -12.78l-27.69 0 0 6.39 27.69 0 0 -6.39zm10.65 -12.78l-38.34 0 0 6.39 38.34 0 0 -6.39zm-10.65 -10.65l-27.69 0 0 4.26 27.69 0 0 -4.26zm10.65 -6.38l0 -6.39 -38.34 0 0 6.39c18.45,0 22.41,-1.67 38.34,0zm-10.65 -19.17l-27.69 0 0 6.39 27.69 0 0 -6.39zm10.65 -10.65l-38.34 0 0 4.26 38.34 0 0 -4.26zm-10.65 -12.78l-27.69 0 0 6.39 27.69 0 0 -6.39zm10.65 -12.78l-38.34 0 0 6.39 38.34 0 0 -6.39zm-10.65 -10.64l-27.69 0 0 4.26 27.69 0 0 -4.26zm10.65 -12.78l-38.34 0 0 4.26 38.34 0 0 -4.26zm-10.65 -12.78l-27.69 0 0 6.39 27.69 0 0 -6.39zm10.65 -12.78l-38.34 0 0 6.39 38.34 0 0 -6.39zm-10.65 -10.64l-27.69 0 0 4.26 27.69 0 0 -4.26zm10.65 -12.78l-38.34 0 0 4.26 38.34 0 0 -4.26zm-10.65 -12.78l-27.69 0 0 6.39 27.69 0 0 -6.39zm10.65 -12.78l-38.34 0 0 6.39 38.34 0 0 -6.39zm-10.65 -10.64l-27.69 0 0 4.25 27.69 0 0 -4.25zm10.65 -12.78l-38.34 0 0 4.26 38.34 0 0 -4.26zm-10.65 -12.78l-27.69 0 0 6.39 27.69 0 0 -6.39zm10.65 -12.78l-38.34 0 0 6.39 38.34 0 0 -6.39zm-10.65 -10.65l-27.69 0 0 4.26 27.69 0 0 -4.26zm10.65 -12.77l-38.34 0 0 4.26 38.34 0 0 -4.26zm-10.65 -12.78l-27.69 0 0 6.39 27.69 0 0 -6.39zm10.65 -10.65c-9.9,0 -8.92,-1.34 -17.15,-2.02 -6.45,-0.53 -14.56,-0.11 -21.19,-0.11l0 6.39 38.34 0 0 -4.26zm-10.65 -12.78l-27.69 0 0 4.26 27.69 0 0 -4.26zm10.65 -12.78l-38.34 0 0 6.39 38.34 0 0 -6.39zm83.05 711.29l-129.91 0 0 -732.58 129.91 0 0 732.58z"/>
   <path class="fil15" d="M12020.43 10143.19c3.74,-4.66 16.6,-41.41 34.64,-66.84 68.1,-96.02 170.9,-142.75 284.97,-125.67 87.86,13.15 167.3,69.25 212.36,156.92 6.62,12.9 9.61,24.75 15.94,35.06 -8.76,3.43 -55.26,2.39 -67.32,2.24l-378.05 1.58c-12.36,0.39 -22.53,-0.03 -34.38,0.22l-60.12 0.06c-10.38,-1.77 -1.07,-0.17 -8.04,-3.57zm-106.62 102.23c7.16,-2.8 103.21,-1.83 118.76,-1.71l455.39 -1.96c32.98,-0.34 63.63,0.04 96.17,0.03 14.79,-0.01 87.97,0.75 96.62,-2.96 -3.83,-9.8 -2.07,-35.48 -3.99,-48.7 -14.17,-97.58 -52.89,-178.75 -129.76,-245.17 -15.27,-13.19 -27.4,-23.06 -43.06,-32.97 -27.35,-17.3 -58.99,-33.32 -89.66,-42.62l-46.2 -12.36c-8.58,-1.47 -14.9,-2.16 -23.51,-3.53 -10.01,-1.59 -14.15,-1.18 -23.74,-1.98 -17.87,-1.49 -29.83,-1.32 -48,-0.55 -164.59,6.99 -308.72,127.18 -349.82,285.97 -4.85,18.75 -10.71,44.99 -11.2,63.55 -0.24,9.34 -1.03,12.89 -1.2,22.14 -0.15,8.42 -1.76,14.75 3.2,22.82z"/>
  </g>
  <g id="_2354974530208">
   <g id="_2029151616288">
    <g id="_2029135101856">
     <path class="fil16" d="M14367.15 10340.91c-14.5,-31.88 -6.12,-118.7 -5.84,-157.72l-92.51 0.72 -6.22 162.43c-8.06,22.92 -27.76,41.23 -58.61,39.6 -35.11,-1.85 -44.84,-18.58 -52.61,-46.31 -15.99,-35.31 -7.11,-111.36 -4.27,-155.28l-87.95 1.18 -14.9 -5.76c-98.79,-16.89 -73.34,-131.93 -73.34,-265.03 0,-109.81 -3.82,-226.66 0.66,-335.59l685.65 -0.01c5.76,124.73 0.73,261.54 0.73,387.68 0,189.35 22.95,217.6 -176.53,215.57 -6.83,42.34 5.97,139.94 -7.82,169.94 -21.84,47.53 -96.06,47.76 -106.44,-11.42zm-106.11 -1461.92l118.28 0c107.41,7.42 213.67,35.21 312.46,84.86 311.3,156.46 476.03,448 489.9,745.22l0 82.42c-9.76,206.64 -92.67,410.26 -250.25,567.35 -153.51,153.02 -356.9,241.74 -564.64,256.04l-118.96 0c-107.29,-7.46 -213.43,-35.25 -312.13,-84.86 -301.75,-151.66 -489.9,-424.99 -489.9,-806.23 0,-247.31 125.34,-464.16 250.25,-588.76 153.46,-153.07 357.06,-241.81 564.99,-256.04zm-455.69 1047.32c-8.6,-58.78 -0.6,-188.03 -0.98,-254.66 -0.81,-139.23 106,-94.99 114.5,-45.13 8.69,50.93 0.75,192.79 1.08,253.57 0.76,142.86 -107.72,93.26 -114.6,46.22zm902.83 -5.79c-6.83,-72.62 -0.39,-178.37 -0.68,-254.77 -0.46,-124.49 107.24,-97.48 115.36,-34.43 8.15,63.44 0.61,184.69 0.94,254.61 0.59,126.42 -109.66,97.91 -115.62,34.59zm-555.93 -692.83c-9.23,-26.28 -59.78,-98.32 -52.6,-116.81 16.26,3.96 12.21,1.98 22.67,23.06 4.63,9.33 7.54,16.36 13.48,27.15 5.99,10.86 11,19.82 16.46,29.54 2.67,4.75 5.61,9.99 8.79,14.85 9.54,14.59 1.96,3.53 8.03,10.93 143.8,-47.77 164.08,-40 302.17,4.32 7.35,-18.18 21.08,-42.94 30.74,-61.03 34.43,-64.54 19.11,-44.71 39.67,-50 -5.91,29.44 -42.42,85.58 -57.15,116.47 5.69,6.56 1.99,2.68 10.23,9.41l58.55 46.14c54.28,51.51 113.72,167.58 99.43,242.54l-676.99 -0.67c-14.7,-101.04 77.15,-254.58 176.52,-295.9z"/>
     <path class="fil17" d="M14044.24 10179.77l106.9 2.98 0.22 156.88c7.77,27.73 17.5,44.46 52.61,46.31 30.85,1.63 50.55,-16.68 58.61,-39.6l2.22 -162.29c25.95,-10.98 71.67,-8.5 101.21,-1.97l1.14 158.83c10.38,59.18 84.6,58.95 106.44,11.42 13.79,-30 0.99,-127.6 7.82,-169.94 199.48,2.03 176.53,-26.22 176.53,-215.57 0,-126.14 5.03,-262.95 -0.73,-387.68l-685.65 0.01c-4.48,108.93 -0.66,225.78 -0.66,335.59 0,133.1 -25.45,248.14 73.34,265.03z"/>
     <path class="fil17" d="M14514.9 9347.04c3.45,60.29 -49.02,50.04 -59.5,26.42 -16.4,-36.96 25.59,-59.95 59.5,-26.42zm-393.31 -13.05c41.41,-25.5 69.21,38.69 30.7,55.11 -34.93,14.9 -64.13,-34.53 -30.7,-55.11zm30.66 -106.3c-99.37,41.32 -191.22,194.86 -176.52,295.9l676.99 0.67c14.29,-74.96 -45.15,-191.03 -99.43,-242.54l-58.55 -46.14c-8.24,-6.73 -4.54,-2.85 -10.23,-9.41 14.73,-30.89 51.24,-87.03 57.15,-116.47 -20.56,5.29 -5.24,-14.54 -39.67,50 -9.66,18.09 -23.39,42.85 -30.74,61.03 -138.09,-44.32 -158.37,-52.09 -302.17,-4.32 -6.07,-7.4 1.51,3.66 -8.03,-10.93 -3.18,-4.86 -6.12,-10.1 -8.79,-14.85 -5.46,-9.72 -10.47,-18.68 -16.46,-29.54 -5.94,-10.79 -8.85,-17.82 -13.48,-27.15 -10.46,-21.08 -6.41,-19.1 -22.67,-23.06 -7.18,18.49 43.37,90.53 52.6,116.81z"/>
     <path class="fil17" d="M14708.18 9920.52c5.96,63.32 116.21,91.83 115.62,-34.59 -0.33,-69.92 7.21,-191.17 -0.94,-254.61 -8.12,-63.05 -115.82,-90.06 -115.36,34.43 0.29,76.4 -6.15,182.15 0.68,254.77z"/>
     <path class="fil17" d="M13805.35 9926.31c6.88,47.04 115.36,96.64 114.6,-46.22 -0.33,-60.78 7.61,-202.64 -1.08,-253.57 -8.5,-49.86 -115.31,-94.1 -114.5,45.13 0.38,66.63 -7.62,195.88 0.98,254.66z"/>
     <path class="fil18" d="M14121.59 9333.99c-33.43,20.58 -4.23,70.01 30.7,55.11 38.51,-16.42 10.71,-80.61 -30.7,-55.11z"/>
     <path class="fil18" d="M14514.9 9347.04c-33.91,-33.53 -75.9,-10.54 -59.5,26.42 10.48,23.62 62.95,33.87 59.5,-26.42z"/>
     <path class="fil19" d="M14262.58 10346.34l6.22 -162.43 92.51 -0.72c-0.28,39.02 -8.66,125.84 5.84,157.72l-1.14 -158.83c-29.54,-6.53 -75.26,-9.01 -101.21,1.97l-2.22 162.29z"/>
     <path class="fil20" d="M14151.36 10339.63l-0.22 -156.88 -106.9 -2.98 14.9 5.76 87.95 -1.18c-2.84,43.92 -11.72,119.97 4.27,155.28z"/>
    </g>
   </g>
  </g>
 </g>
</svg>
